<?xml version="1.0" encoding="utf-8"?>
<!-- Generator: Adobe Illustrator 26.3.1, SVG Export Plug-In . SVG Version: 6.00 Build 0)  -->
<svg version="1.1" id="Capa_1" xmlns="http://www.w3.org/2000/svg" xmlns:xlink="http://www.w3.org/1999/xlink" x="0px" y="0px"
	 viewBox="0 0 124.3 128.8" style="enable-background:new 0 0 124.3 128.8;" xml:space="preserve">
<style type="text/css">
	.st0{fill:#D3D3D3;}
	.st1{fill:#CE1126;}
	.st2{opacity:0.3;fill:#FFFFFF;enable-background:new    ;}
	.st3{fill:#F26070;}
	.st4{fill:#FFFFFF;}
</style>
<g>
	<g id="Capa_2_00000104708647510491524130000009493735919173907091_">
		<g id="Capa_1-2">
			<ellipse class="st0" cx="62.5" cy="67.2" rx="61.8" ry="61.6"/>
			<circle class="st1" cx="62.1" cy="62.1" r="58.9"/>
			<path class="st2" d="M69.6,110c-12.6-0.7-24.7-4.8-35.2-11.8c-11.8-8-19.8-19.8-23.9-33.4c-2.1-7.3-3.5-14.7-4-22.2
				c-10.8,30.7,5.3,64.3,36,75c21.1,7.4,44.5,2.2,60.5-13.3C92.5,108.7,81,110.7,69.6,110z"/>
			<path class="st3" d="M62.1,3.2c32.5,0,58.9,26.4,58.9,58.9s-26.4,58.9-58.9,58.9S3.2,94.6,3.2,62.1C3.2,29.5,29.5,3.2,62.1,3.2
				C62.1,3.2,62.1,3.2,62.1,3.2 M62.1,0C27.8,0,0,27.8,0,62.1s27.8,62.1,62.1,62.1s62.1-27.8,62.1-62.1c0,0,0,0,0,0
				C124.1,27.8,96.3,0,62.1,0z"/>
			<path class="st2" d="M108.2,38.9c-5.4-10-13.4-18.4-23.2-24.3c-3.2-1.9-6.1,3.1-2.9,5C91,25,98.2,32.7,103.2,41.8
				C105,45.1,110,42.2,108.2,38.9z"/>
			<path class="st2" d="M110.6,45.9c-3.7,0-3.7,5.8,0,5.8S114.3,45.9,110.6,45.9z"/>
			<path class="st4" d="M95.6,53.8L68.1,26.4c-0.2-0.2-0.5-0.7-0.8-0.6s-0.2,0.7-0.2,1c0,4.7,0,9.3,0,14c0,0.7-0.2,0.9-0.9,1
				c-5.7,0.9-11.3,2.6-16.5,5.2c-7.8,4-14.4,10.1-18.9,17.7c-3.9,6.5-6.6,13.6-8.1,21.1c0,0.1,0,0.2,0,0.4c0.5-0.1,0.6-0.5,0.8-0.7
				c2.5-3.4,5.5-6.5,8.9-9.2c4.8-3.8,10.3-6.5,16.2-8.1c4.4-1.2,9-1.9,13.6-2.2c1.3-0.1,2.6-0.1,4-0.1c1,0,1,0,1,1v14.3
				c0,0.2,0,0.4,0,0.6s0,0.4,0.1,0.4s0.3-0.1,0.4-0.2s0.3-0.3,0.5-0.4l26.6-26.6c0.3-0.3,0.6-0.5,0.8-0.8V53.8z"/>
		</g>
	</g>
</g>
</svg>
