<?xml version="1.0" encoding="utf-8"?>
<!-- Generator: Adobe Illustrator 26.3.1, SVG Export Plug-In . SVG Version: 6.00 Build 0)  -->
<svg version="1.1" id="Capa_1" xmlns="http://www.w3.org/2000/svg" xmlns:xlink="http://www.w3.org/1999/xlink" x="0px" y="0px"
	 viewBox="0 0 309.4 132.6" style="enable-background:new 0 0 309.4 132.6;" xml:space="preserve">
<style type="text/css">
	.st0{opacity:0.36;fill:#CCCCCC;enable-background:new    ;}
	.st1{fill:#AADBFF;}
	.st2{fill:none;stroke:#0072C8;stroke-width:4;stroke-miterlimit:10;}
	.st3{opacity:0.3;fill:#005589;enable-background:new    ;}
	.st4{fill:#0072C8;}
	.st5{font-family:'PatrickHand-Regular';}
	.st6{font-size:61.3465px;}
</style>
<g>
	<g id="Capa_2_00000024681355898757245730000000816285184619814846_">
		<g id="Capa_1-2">
			<path class="st0" d="M60.7,11.2h181.6c33.5,0,60.7,27.2,60.7,60.7l0,0c0,33.5-27.2,60.7-60.7,60.7H60.7
				C27.2,132.6,0,105.4,0,71.9l0,0C0,38.4,27.2,11.2,60.7,11.2z"/>
			<path class="st1" d="M65,2h181.6c33.5,0,60.7,27.2,60.7,60.7l0,0c0,33.5-27.2,60.7-60.7,60.7H65c-33.5,0-60.7-27.2-60.7-60.7l0,0
				C4.2,29.2,31.4,2,65,2z"/>
			<path class="st2" d="M65,2h181.6c33.5,0,60.7,27.2,60.7,60.7l0,0c0,33.5-27.2,60.7-60.7,60.7H65c-33.5,0-60.7-27.2-60.7-60.7l0,0
				C4.2,29.2,31.4,2,65,2z"/>
			<path class="st3" d="M297.9,30.1c0,0,7.8,56.8-38.8,77.2c0,0-26.2,13.7-70.7,14.9l66.3,1.2l17.1-5.5l14.6-9.4l11.1-12.7l6.6-13.4
				l3.2-16.4l-1-14.9l-2.8-9.9L297.9,30.1z"/>
		</g>
	</g>
</g>
<text transform="matrix(1 0 0 1 52.9985 81.0482)" class="st4 st5 st6">Siguiente</text>
</svg>
