<?xml version="1.0" encoding="utf-8"?>
<!-- Generator: Adobe Illustrator 26.3.1, SVG Export Plug-In . SVG Version: 6.00 Build 0)  -->
<svg version="1.1" id="Capa_1" xmlns="http://www.w3.org/2000/svg" xmlns:xlink="http://www.w3.org/1999/xlink" x="0px" y="0px"
	 viewBox="0 0 309.4 132.6" style="enable-background:new 0 0 309.4 132.6;" xml:space="preserve">
<style type="text/css">
	.st0{opacity:0.36;fill:#CCCCCC;enable-background:new    ;}
	.st1{fill:#E6E6E6;}
	.st2{fill:none;stroke:#0072C8;stroke-width:4;stroke-miterlimit:10;}
	.st3{opacity:0.3;fill:#CCCCCC;enable-background:new    ;}
	.st4{fill:#0072C8;}
</style>
<g>
	<g id="Capa_2_00000024681355898757245730000000816285184619814846_">
		<g id="Capa_1-2">
			<path class="st0" d="M60.7,11.2h181.6c33.5,0,60.7,27.2,60.7,60.7l0,0c0,33.5-27.2,60.7-60.7,60.7H60.7
				C27.2,132.6,0,105.4,0,71.9l0,0C0,38.4,27.2,11.2,60.7,11.2z"/>
			<path class="st1" d="M65,2h181.6c33.5,0,60.7,27.2,60.7,60.7l0,0c0,33.5-27.2,60.7-60.7,60.7H65c-33.5,0-60.7-27.2-60.7-60.7l0,0
				C4.2,29.2,31.4,2,65,2z"/>
			<path class="st2" d="M65,2h181.6c33.5,0,60.7,27.2,60.7,60.7l0,0c0,33.5-27.2,60.7-60.7,60.7H65c-33.5,0-60.7-27.2-60.7-60.7l0,0
				C4.2,29.2,31.4,2,65,2z"/>
			<path class="st3" d="M297.9,30.1c0,0,7.8,56.8-38.8,77.2c0,0-26.2,13.7-70.7,14.9l66.3,1.2l17.1-5.5l14.6-9.4l11.1-12.7l6.6-13.4
				l3.2-16.4l-1-14.9l-2.8-9.9L297.9,30.1z"/>
		</g>
	</g>
</g>
<g>
	<path class="st4" d="M74.9,40.6c1,0,1.9,0.5,2.6,1.3c0.7,0.9,1.6,2.8,2.7,5.6c2.6,6.7,5.1,17.1,7.5,31.3c0,0.2,0.1,0.4,0.1,0.7
		s-0.2,0.6-0.6,1c-0.4,0.3-0.9,0.5-1.7,0.5c-0.7,0-1.3-0.2-1.8-0.5c-0.5-0.3-0.8-0.9-1-1.7c-0.2-0.8-0.5-2.4-0.9-4.7
		c-1-5.2-1.6-7.9-2-8.1c-0.5-0.3-2.1-0.6-4.9-0.9c-2.8-0.3-4.6-0.5-5.5-0.5c-0.9,0-1.4,0.1-1.6,0.2c-0.7,0.7-1.7,5.6-3,14.9
		c-0.2,0.8-0.9,1.2-2.3,1.2c-1.4,0-2.1-0.6-2.1-1.8c0-2.9,1.1-8.6,3.3-16.9c2.2-8.3,4-13.8,5.4-16.5C70.9,42.4,72.8,40.6,74.9,40.6z
		 M74.6,47.4c-0.6,0-1.7,1.8-3.2,5.4c-1.5,3.6-2.3,5.9-2.3,6.7c0,0.2,0,0.3,0.1,0.4c0.3,0.3,1.6,0.6,3.9,0.9
		c2.2,0.2,3.7,0.4,4.5,0.4s1.1-0.1,1.2-0.2c0.1-0.1,0.1-0.4,0.1-1c0-0.6-0.6-2.8-1.7-6.7C76.2,49.4,75.3,47.4,74.6,47.4z"/>
	<path class="st4" d="M93.6,79.1l-0.7-24.9c0-0.8,0.3-1.4,0.8-1.9c0.5-0.5,1.1-0.7,1.6-0.7c1.3,0,2.1,0.6,2.3,1.7
		c0.2,1.1,0.2,2.2,0.2,3.4c2.2-2.9,5-4.4,8.3-4.4c5.1,0,7.6,5.8,7.6,17.4c0,1.1,0,2.7,0,4.8c0,2.1-0.1,3.7-0.4,4.7
		c-0.3,1.2-1.2,1.8-2.6,1.8c-1,0-1.5-0.7-1.5-2l0.1-3.4c0-4.7-0.2-8-0.5-9.7c-0.3-1.7-0.6-3.1-0.9-4.1c-0.7-2.2-1.8-3.3-3.4-3.3
		c-2,0-3.5,0.7-4.3,2.2c-0.9,1.6-1.4,3.5-1.6,5.6c-0.3,3.8-0.4,7.8-0.4,12.1c0,0.8-0.3,1.5-0.9,2c-0.6,0.5-1.3,0.7-2.2,0.7
		C94.1,81.1,93.6,80.5,93.6,79.1z"/>
	<path class="st4" d="M120.5,52.4l3.1,0.1c0.7,0,1.1,0,1.2-0.1V39.8c0-0.7,0.4-1.3,1-1.8c0.7-0.5,1.3-0.7,1.8-0.7
		c0.6,0,1,0.2,1.4,0.6c0.3,0.4,0.5,0.9,0.5,1.7c0,0.8-0.1,5-0.1,12.8l7.2-0.2c1.2,0,1.8,0.7,1.8,2.1c0,1.1-0.3,1.9-1,2.4
		c-0.6,0.5-1.3,0.8-2,0.9c-0.7,0-1.4,0.1-2.1,0.1l-3.7-0.1c0,1.7,0.2,5,0.5,9.9c0.3,4.9,0.6,8.1,0.8,9.6c0.2,1.5,0.2,2.4,0.1,2.8
		s-0.3,0.7-0.7,0.9c-0.5,0.2-1.2,0.4-2.1,0.4c-0.9,0-1.4-0.5-1.6-1.5c-0.8-5.4-1.4-12.7-1.7-22.1c-0.4,0-1.8,0.1-4.2,0.1
		c-2.5,0-3.7-0.7-3.7-2.1C117.1,53.4,118.2,52.4,120.5,52.4z"/>
	<path class="st4" d="M148.9,52.6c2.2,0,4.2,0.6,6.2,1.9c2,1.3,2.9,2.8,2.9,4.7c0,1.9-0.8,3.7-2.4,5.4c-1.6,1.7-3.7,2.8-6.4,3.2
		c-1.1,0.2-2.9,0.2-5.2,0.2c0.4,3.5,1.3,5.8,2.6,6.9c0.4,0.5,1,0.7,1.7,0.7c2.5,0,4.7-0.8,6.4-2.4c1.7-1.6,2.9-2.4,3.7-2.4
		c0.3,0,0.8,0.3,1.5,0.9s1,1.2,1,1.7c0,1.1-1.3,2.6-3.9,4.6c-1.1,0.9-2.5,1.7-4.1,2.4c-1.6,0.6-3.1,1-4.5,1c-3.6,0-6.2-2.3-7.9-6.9
		c-1.1-2.8-1.6-5.9-1.6-9.3c0-3.4,0.8-6.3,2.4-8.8C143,53.9,145.5,52.6,148.9,52.6z M149.2,56.9c-1.6,0-2.9,0.9-4,2.6
		c-0.4,0.6-0.8,2-1.2,4.2c5.7,0,8.6-1.4,8.6-4.2C152.7,57.7,151.5,56.9,149.2,56.9z"/>
	<path class="st4" d="M172.4,72.1l0.1,6.3c0,0.7-0.3,1.4-1,2s-1.3,0.9-2,0.9c-0.9,0-1.5-0.7-1.8-2.2c0-0.3-0.2-3.3-0.5-9
		c-0.3-5.7-0.8-10.1-1.7-13.3c-0.4-1.6-0.6-2.5-0.6-2.8c0-1.3,0.8-2,2.5-2c0.7,0,1.2,0.3,1.7,0.8c0.4,0.5,0.7,1.1,0.8,1.6
		c0.1,0.6,0.2,1.3,0.3,2.2c0.1,0.9,0.1,1.5,0.2,1.8c0.9-2,2.1-3.6,3.9-4.6c1.7-1,3.6-1.5,5.6-1.5c3.4,0,5,0.9,5,2.6
		c0,0.9-0.3,1.5-0.9,2.1c-0.6,0.5-1.3,0.8-2.1,0.8c-3.5,0-5.9,1.1-7.4,3.3S172.4,66.9,172.4,72.1z"/>
	<path class="st4" d="M192.2,42.3c0.7,0,1.4,0.3,2.1,1c0.7,0.7,1,1.4,1,2.2c0,0.8-0.4,1.5-1.1,2.3c-0.7,0.8-1.5,1.2-2.2,1.2
		c-0.8,0-1.5-0.3-2.1-1c-0.6-0.7-1-1.5-1-2.5c0-2,1.1-3,3.2-3.2C192.1,42.3,192.1,42.3,192.2,42.3z M194.8,74.4l0.1,4.3
		c0,0.8-0.3,1.4-0.9,1.9s-1.3,0.8-2,0.8c-1,0-1.6-0.5-1.6-1.5c-0.5-13-0.8-20.3-0.8-21.7c0-1.4,0.1-3.1,0.2-5.1
		c0.1-0.7,0.6-1.1,1.4-1.1c2.2,0,3.4,0.9,3.7,2.6c0.1,0.9,0.2,1.6,0.2,2.1l-0.2,3.9V74.4z"/>
	<path class="st4" d="M212.7,52.5c2.9,0,5.4,1.4,7.3,4.2c1.9,2.8,2.9,6.2,2.9,10.2c0,3.9-1,7.3-2.9,10.1c-1.9,2.8-4.5,4.2-7.7,4.2
		c-3.2,0-5.8-1.4-7.8-4.3c-2-2.8-2.9-6-2.9-9.5c0-4.5,0.9-8,2.7-10.7C206.1,53.9,209,52.5,212.7,52.5z M212,57.5
		c-1.7,0-3.1,0.9-4.2,2.7c-1.1,1.8-1.7,3.7-1.7,5.7c0,3.1,0.6,5.5,1.8,7.1c1.2,1.6,2.6,2.5,4.2,2.5c2.8,0,4.6-1.2,5.3-3.6
		c0.3-1.1,0.5-2.6,0.5-4.3C217.9,60.8,216,57.5,212,57.5z"/>
	<path class="st4" d="M234.5,72.1l0.1,6.3c0,0.7-0.3,1.4-1,2s-1.3,0.9-2,0.9c-0.9,0-1.5-0.7-1.8-2.2c0-0.3-0.2-3.3-0.5-9
		c-0.3-5.7-0.8-10.1-1.7-13.3c-0.4-1.6-0.6-2.5-0.6-2.8c0-1.3,0.8-2,2.5-2c0.7,0,1.2,0.3,1.7,0.8c0.4,0.5,0.7,1.1,0.8,1.6
		c0.1,0.6,0.2,1.3,0.3,2.2c0.1,0.9,0.1,1.5,0.2,1.8c0.9-2,2.1-3.6,3.9-4.6c1.7-1,3.6-1.5,5.6-1.5c3.4,0,5,0.9,5,2.6
		c0,0.9-0.3,1.5-0.9,2.1c-0.6,0.5-1.3,0.8-2.1,0.8c-3.5,0-5.9,1.1-7.4,3.3S234.5,66.9,234.5,72.1z"/>
</g>
</svg>
