<?xml version="1.0" encoding="utf-8"?>
<!-- Generator: Adobe Illustrator 26.3.1, SVG Export Plug-In . SVG Version: 6.00 Build 0)  -->
<svg version="1.1" id="Capa_1" xmlns="http://www.w3.org/2000/svg" xmlns:xlink="http://www.w3.org/1999/xlink" x="0px" y="0px"
	 viewBox="0 0 124.3 128.8" style="enable-background:new 0 0 124.3 128.8;" xml:space="preserve">
<style type="text/css">
	.st0{opacity:0.36;fill:#CCCCCC;enable-background:new    ;}
	.st1{fill:#E6E6E6;}
	.st2{opacity:0.3;fill:#CCCCCC;enable-background:new    ;}
	.st3{fill:#0072C8;}
</style>
<g>
	<g id="Capa_2_00000103949588960481626540000002617516435876636336_">
		<g id="Capa_1-2">
			<ellipse class="st0" cx="61.8" cy="67.2" rx="61.8" ry="61.6"/>
			<circle class="st1" cx="62.3" cy="62.1" r="58.9"/>
			<path class="st2" d="M54.8,110c12.6-0.7,24.7-4.8,35.2-11.8c11.8-8,19.8-19.8,23.9-33.5c2.1-7.3,3.4-14.7,4-22.2
				c10.8,30.7-5.3,64.3-36,75.1c-21.1,7.4-44.5,2.3-60.6-13.3C31.9,108.7,43.3,110.7,54.8,110z"/>
			<path class="st3" d="M62.3,3.2c32.5,0,58.9,26.4,58.9,58.9s-26.4,58.9-58.9,58.9S3.4,94.6,3.4,62.1C3.4,29.5,29.7,3.2,62.3,3.2
				C62.3,3.2,62.3,3.2,62.3,3.2 M62.3,0C28,0,0.2,27.8,0.2,62.1s27.8,62.1,62.1,62.1s62.1-27.8,62.1-62.1c0,0,0,0,0,0
				C124.3,27.8,96.5,0,62.3,0z"/>
			<path class="st2" d="M16.1,38.9c5.5-10,13.5-18.4,23.2-24.3c3.2-1.9,6.1,3.1,2.9,5C33.4,25,26.1,32.7,21.1,41.8
				C19.4,45.1,14.4,42.2,16.1,38.9z"/>
			<path class="st2" d="M13.7,45.9c3.7,0,3.7,5.8,0,5.8S10,45.9,13.7,45.9z"/>
			<path class="st3" d="M28.8,53.8l27.5-27.5c0.2-0.2,0.5-0.7,0.8-0.6s0.2,0.7,0.2,1c0,4.7,0,9.3,0,14c0,0.7,0.2,0.9,0.9,1
				c5.7,0.9,11.3,2.7,16.5,5.3c7.8,4,14.4,10.1,18.9,17.6c3.9,6.5,6.7,13.6,8.1,21.1c0,0.1,0,0.2,0.1,0.4c-0.5-0.1-0.6-0.5-0.8-0.7
				c-2.5-3.4-5.5-6.5-8.9-9.2c-4.8-3.8-10.3-6.5-16.2-8.1c-4.4-1.2-9-1.9-13.6-2.2c-1.3-0.1-2.7-0.1-4-0.1c-1,0-1,0-1,1v14.3
				c0,0.2,0,0.4,0,0.6s0,0.4-0.2,0.4s-0.3-0.1-0.4-0.2s-0.3-0.3-0.5-0.4L29.6,54.9c-0.3-0.3-0.5-0.5-0.8-0.8V53.8z"/>
		</g>
	</g>
</g>
</svg>
