<?xml version="1.0" encoding="utf-8"?>
<!-- Generator: Adobe Illustrator 26.3.1, SVG Export Plug-In . SVG Version: 6.00 Build 0)  -->
<svg version="1.1" id="Capa_1" xmlns="http://www.w3.org/2000/svg" xmlns:xlink="http://www.w3.org/1999/xlink" x="0px" y="0px"
	 viewBox="0 0 184.1 190.6" style="enable-background:new 0 0 184.1 190.6;" xml:space="preserve">
<style type="text/css">
	.st0{fill:#D3D3D3;}
	.st1{fill:#CE1126;}
	.st2{opacity:0.3;fill:#FFFFFF;enable-background:new    ;}
	.st3{fill:#F26070;}
	.st4{fill:#FFFFFF;}
</style>
<g>
	<g id="Capa_2_00000075852529769033323160000016764027811285489588_">
		<g id="Capa_1-2">
			<ellipse class="st0" cx="92.5" cy="99.4" rx="91.6" ry="91.2"/>
			<circle class="st1" cx="91.9" cy="91.9" r="87.2"/>
			<path class="st2" d="M103,163c-18.6-1-36.6-7.1-52.1-17.5C33.4,133.6,21.6,116.1,15.5,96c-3.1-10.8-5.1-21.8-5.9-33
				c-16,45.4,7.9,95.2,53.3,111.2c31.2,11,66,3.3,89.7-19.7C137,161,120,163.9,103,163z"/>
			<path class="st3" d="M91.9,4.7c48.1,0,87.2,39,87.2,87.2s-39,87.2-87.2,87.2S4.7,140,4.7,91.9C4.7,43.8,43.8,4.7,91.9,4.7
				C91.9,4.7,91.9,4.7,91.9,4.7 M91.9,0C41.1,0,0,41.1,0,91.9s41.1,91.9,91.9,91.9s91.9-41.1,91.9-91.9c0,0,0,0,0,0
				C183.7,41.2,142.6,0.1,91.9,0z"/>
			<path class="st2" d="M160.2,57.6c-8.1-14.8-19.9-27.2-34.4-35.9c-4.7-2.9-9.1,4.6-4.3,7.4c13.2,8,24,19.3,31.3,32.8
				C155.4,66.7,162.8,62.4,160.2,57.6z"/>
			<path class="st2" d="M163.8,68c-5.5,0-5.5,8.6,0,8.6S169.3,68,163.8,68z"/>
			<path class="st4" d="M33.5,79.7C47.1,66.1,60.7,52.6,74.2,39c0.4-0.4,0.7-1.1,1.2-0.9s0.3,1,0.3,1.5c0,6.9,0,13.8,0,20.8
				c0,1,0.3,1.4,1.3,1.6c8.5,1.3,16.7,3.9,24.4,7.7c11.6,5.9,21.3,14.9,28,26.1c5.8,9.6,9.9,20.2,12,31.2c0,0.2,0,0.3,0.1,0.6
				c-0.7-0.2-0.9-0.7-1.1-1.1c-3.8-5.1-8.2-9.7-13.1-13.6c-7.1-5.6-15.3-9.7-24-12.1c-6.6-1.8-13.3-2.9-20.1-3.2
				c-2-0.1-3.9-0.1-5.9-0.2c-1.5,0-1.5,0-1.5,1.5V120c0,0.3,0,0.6,0,1s0,0.5-0.2,0.7s-0.4-0.2-0.6-0.3s-0.4-0.4-0.7-0.7L34.8,81.3
				c-0.4-0.4-0.8-0.8-1.2-1.2V79.7z"/>
		</g>
	</g>
</g>
</svg>
