<?xml version="1.0" encoding="utf-8"?>
<!-- Generator: Adobe Illustrator 26.3.1, SVG Export Plug-In . SVG Version: 6.00 Build 0)  -->
<svg version="1.1" id="Capa_1" xmlns="http://www.w3.org/2000/svg" xmlns:xlink="http://www.w3.org/1999/xlink" x="0px" y="0px"
	 viewBox="0 0 309.4 132.6" style="enable-background:new 0 0 309.4 132.6;" xml:space="preserve">
<style type="text/css">
	.st0{opacity:0.36;fill:#CCCCCC;enable-background:new    ;}
	.st1{fill:#E6E6E6;}
	.st2{fill:none;stroke:#0072C8;stroke-width:4;stroke-miterlimit:10;}
	.st3{opacity:0.3;fill:#CCCCCC;enable-background:new    ;}
	.st4{fill:#0072C8;}
</style>
<g>
	<g id="Capa_2_00000024681355898757245730000000816285184619814846_">
		<g id="Capa_1-2">
			<path class="st0" d="M60.7,11.2h181.6c33.5,0,60.7,27.2,60.7,60.7l0,0c0,33.5-27.2,60.7-60.7,60.7H60.7
				C27.2,132.6,0,105.4,0,71.9l0,0C0,38.4,27.2,11.2,60.7,11.2z"/>
			<path class="st1" d="M65,2h181.6c33.5,0,60.7,27.2,60.7,60.7l0,0c0,33.5-27.2,60.7-60.7,60.7H65c-33.5,0-60.7-27.2-60.7-60.7l0,0
				C4.2,29.2,31.4,2,65,2z"/>
			<path class="st2" d="M65,2h181.6c33.5,0,60.7,27.2,60.7,60.7l0,0c0,33.5-27.2,60.7-60.7,60.7H65c-33.5,0-60.7-27.2-60.7-60.7l0,0
				C4.2,29.2,31.4,2,65,2z"/>
			<path class="st3" d="M297.9,30.1c0,0,7.8,56.8-38.8,77.2c0,0-26.2,13.7-70.7,14.9l66.3,1.2l17.1-5.5l14.6-9.4l11.1-12.7l6.6-13.4
				l3.2-16.4l-1-14.9l-2.8-9.9L297.9,30.1z"/>
			<path class="st4" d="M93.5,82.1c-1.7-4.9-3.4-9.5-5.2-13.6c-1.8-4.1-4.1-9.3-6.9-15.5c-1-2.2-1.6-3.5-1.8-4
				c-0.3-0.5-0.4-1.1-0.4-1.7c0-0.7,0.4-1.4,0.9-1.9c0.6-0.6,1.3-0.9,2.1-0.9c0.8,0,1.6,0.5,2,1.2l3,6.7c4.1,9.5,7,16.4,8.8,20.8
				l1.1-4.3c0.9-3.8,1.8-7.5,2.8-11.2c2.8-10,5.5-15.1,8.2-15.1c0.5,0,0.9,0.1,1.3,0.4c0.3,0.3,0.5,0.7,0.5,1.2
				c-0.1,0.8-0.4,1.5-0.8,2.1c-0.8,1.6-1.4,3.3-1.9,5.1c-0.8,2.5-1.3,3.9-1.4,4.3c-0.2,0.4-1.2,3.9-2.9,10.3s-3.3,11.5-4.6,15.2
				c-0.4,1.3-1.7,2.3-3.1,2.3C94.4,83.6,93.9,83.1,93.5,82.1z"/>
			<path class="st4" d="M123.1,54.7c3,0,5.4,1.4,7.3,4.2c1.9,3,2.9,6.5,2.8,10.1c0.1,3.6-0.9,7.1-2.9,10.1
				c-2.8,4.3-8.5,5.5-12.7,2.7c-1.1-0.7-2-1.7-2.7-2.8c-1.9-2.8-3-6.1-2.9-9.5c0-4.5,0.9-8,2.7-10.7
				C116.4,56.1,119.7,54.5,123.1,54.7z M122.3,59.7c-1.8,0-3.4,1.1-4.2,2.7c-1.1,1.7-1.7,3.7-1.7,5.7c0,3.1,0.6,5.5,1.8,7.1
				c0.9,1.4,2.5,2.4,4.2,2.4c2.8,0,4.6-1.2,5.3-3.6c0.4-1.4,0.5-2.8,0.5-4.3C128.3,63,126.3,59.7,122.3,59.7L122.3,59.7z"/>
			<path class="st4" d="M136.8,43.5c0-1,0.2-2.1,0.7-3c0.5-0.5,1.2-0.8,1.9-0.7c1.8,0,2.6,0.7,2.6,2.2c0,1.1-0.1,4-0.3,8.6
				c-0.2,4.7-0.3,8.8-0.3,12.5c0,3,0.1,5.9,0.4,8.9c0.5,3.9,1.2,5.9,2.1,5.9s1.6-0.6,2-1.9c0.2-0.5,0.6-1,1-1.3
				c0.5-0.4,1.1-0.6,1.7-0.6c1.4,0,2.1,1.2,2.1,3.6c-0.1,1.5-0.9,3-2.1,3.9c-1.1,1.2-2.6,1.8-4.2,1.9c-1.2,0.1-2.3-0.2-3.3-0.7
				c-0.9-0.5-1.5-1.2-2-2.1c-0.5-0.9-0.9-1.8-1.2-2.7c-0.3-1-0.6-2.1-0.6-3.2c-0.2-2-0.4-5.3-0.5-9.8s-0.1-8.8-0.1-12.9
				S136.7,45.1,136.8,43.5z"/>
			<path class="st4" d="M173,54.3c0.5,0,1,0.2,1.3,0.6c0.3,0.4,0.4,0.8,0.4,1.3l-0.1,0.6c-1.7,4.4-3,7.9-3.8,10.7
				c-0.5,1.9-0.9,3.4-1.2,4.3s-0.7,2.6-1.3,5s-1,3.9-1.2,4.6c-0.4,1.3-1.6,2.1-3,2.1c-0.7,0-1.2-0.4-1.5-1.3
				c-1.6-4.7-3.5-9.4-5.8-13.8c-2.5-5.2-4-8.1-4.3-8.9c-0.3-0.6-0.5-1.3-0.5-2c0-0.7,0.3-1.3,0.8-1.8c0.5-0.5,1.2-0.8,1.9-0.9
				c0.7,0,1.4,0.5,1.8,1.1c0.4,0.9,1.7,3.4,3.8,7.5c1.7,3.1,3.2,6.4,4.5,9.7c0-0.2,0.2-0.8,0.4-1.5c1.4-5.2,3.1-10.4,5.1-15.5
				C170.8,55,171.9,54.3,173,54.3z"/>
			<path class="st4" d="M186.6,54.8c2.2,0,4.4,0.7,6.2,1.9c2,1.3,3,2.8,2.9,4.7c-0.1,2-0.9,4-2.4,5.4c-1.7,1.8-3.9,2.9-6.4,3.2
				c-1.7,0.2-3.4,0.3-5.1,0.2c0.4,3.5,1.3,5.8,2.6,6.9c0.4,0.5,1,0.7,1.6,0.7c2.4,0.1,4.7-0.8,6.4-2.4c1.7-1.6,2.9-2.4,3.7-2.4
				c0.3,0,0.8,0.3,1.5,0.9c0.6,0.4,0.9,1,1,1.7c0,1.1-1.3,2.6-3.9,4.6c-1.2,1-2.6,1.8-4.1,2.4c-1.4,0.6-3,1-4.5,1
				c-3.5,0-6.2-2.3-7.8-6.9c-1.1-3-1.6-6.1-1.6-9.3c-0.1-3.1,0.7-6.2,2.4-8.8C180.6,56.1,183.1,54.9,186.6,54.8z M186.9,59.1
				c-1.6,0-2.9,0.9-4,2.6c-0.6,1.3-1,2.7-1.2,4.2c5.7,0,8.6-1.4,8.6-4.2C190.3,59.9,189.2,59.1,186.9,59.1z"/>
			<path class="st4" d="M210,74.3l0.1,6.3c0,0.8-0.4,1.5-1,2c-0.5,0.5-1.2,0.9-2,0.9c-0.9,0-1.5-0.7-1.8-2.2c0-0.3-0.2-3.3-0.5-9
				c-0.1-4.5-0.7-8.9-1.6-13.3c-0.2-0.9-0.4-1.8-0.6-2.8c0-1.3,0.8-2,2.4-2c0.6,0,1.3,0.3,1.7,0.8c0.4,0.5,0.6,1,0.8,1.6
				c0.1,0.7,0.2,1.5,0.3,2.2c0.1,0.9,0.1,1.5,0.2,1.8c0.8-1.9,2.1-3.5,3.9-4.6c1.7-1,3.6-1.6,5.6-1.5c3.3,0,5,0.9,5,2.6
				c0,0.8-0.3,1.5-0.9,2c-0.6,0.5-1.3,0.8-2.1,0.8c-3.5,0-5.9,1.1-7.4,3.3S210,69.1,210,74.3z"/>
		</g>
	</g>
</g>
</svg>
