<?xml version="1.0" encoding="utf-8"?>
<!-- Generator: Adobe Illustrator 26.3.1, SVG Export Plug-In . SVG Version: 6.00 Build 0)  -->
<svg version="1.1" id="Capa_1" xmlns="http://www.w3.org/2000/svg" xmlns:xlink="http://www.w3.org/1999/xlink" x="0px" y="0px"
	 viewBox="0 0 192.6 245.4" style="enable-background:new 0 0 192.6 245.4;" xml:space="preserve">
<style type="text/css">
	.st0{fill:#FFFFFF;}
	.st1{fill:#00B5FF;}
	.st2{fill:#030202;}
	.st3{fill:#030302;}
	.st4{fill:#FCD89A;}
	.st5{fill:#030303;}
	.st6{fill:#050505;}
	.st7{fill:#FD5C5C;}
	.st8{fill:#060503;}
</style>
<g id="Capa_2_00000114767818042421774810000001015760035455532211_">
	<g id="Capa_1-2">
		<path class="st0" d="M7.6,164.5h177.3c4.2,0,7.6,3.4,7.6,7.6v65.7c0,4.2-3.4,7.6-7.6,7.6H7.6c-4.2,0-7.6-3.4-7.6-7.6v-65.7
			C0,167.9,3.4,164.5,7.6,164.5z"/>
		<path class="st1" d="M18.5,3.5h156c8,0,14.5,6.5,14.5,14.5v156c0,8-6.5,14.5-14.5,14.5h-156c-8,0-14.5-6.5-14.5-14.5V18
			C4,10,10.5,3.5,18.5,3.5z"/>
		<path class="st0" d="M174.5,7c6.1,0,11,4.9,11,11v156c0,6.1-4.9,11-11,11h-156c-6.1,0-11-4.9-11-11V18c0-6.1,4.9-11,11-11H174.5
			 M174.5,0h-156c-9.9,0-18,8.1-18,18v156c0,9.9,8.1,18,18,18h156c9.9,0,18-8.1,18-18V18C192.5,8.1,184.4,0,174.5,0z"/>
		<path class="st0" d="M37,32.2c-0.1,2.8-0.4,5.6-1,8.3c-0.9,5.1-1.4,7.8-1.5,8.2c0,0.1-0.9,7.1-2.6,21c-1.1,2.2-2.3,3.2-3.4,3.2
			c-1-0.1-1.9-0.8-2.3-1.7c-0.5-0.9-0.7-2-0.7-3c0-2.2,0.6-6.9,1.9-14c0.1-0.4,0.8-3,2-7.8c0.7-2.5,1.1-5.1,1.1-7.7l-0.1-0.5
			c-1-1.4-2-2.8-3-4.3c0.4-1.7,1.1-3.3,2.1-4.8c1.2-1.8,2.6-2.7,4.1-2.7c1.2,0,2,0.7,2.7,2.1C36.7,29.8,37,31,37,32.2z"/>
		<path class="st2" d="M111.7,51.8c1.2,0.3,2.4,0.7,3.6,1.2c6.2,3,9.2,10.2,6.8,16.7c-1.6,4-3.9,7.7-7,10.7
			c-3.4,3.6-7.2,6.7-11.3,9.5c-0.9,0.7-2.1,0.8-3,0.1c-5.7-4-11-8.4-15.1-14c-2.5-3.4-4.3-7.2-4.1-11.6c0.3-6.1,4.6-11.2,10.6-12.4
			c0.2,0,0.4,0,0.4-0.2h3.6c1,0.3,2,0.6,3,1s2,1.5,3,1.5s2-1.1,3.1-1.6c0.8-0.4,1.8-0.3,2.5-0.9L111.7,51.8z M118.4,65
			c0-3.4-2-6.6-5.2-7.9c-3.3-1.5-6.3-0.8-9,1.7c-1.6,1.5-2.4,1.4-4.2-0.2c-3.3-3.1-8.6-2.9-11.7,0.5c-0.9,1-1.5,2.1-1.9,3.4
			c-1,3.3-0.1,6.2,1.6,9c3.5,5.7,8.4,9.9,13.7,13.8c0.3,0.3,0.7,0.3,1,0c0,0,0,0,0,0c5-3.5,9.4-7.7,12.9-12.6
			C117.4,70.5,118.3,67.8,118.4,65z"/>
		<path class="st3" d="M64.8,164.5c-0.3,1.5-1.3,2.4-2.5,2.2s-2-1.1-2-2.6s0-2.9,0-4.3c0.1-3.2-1.2-6.3-3.5-8.4
			c-3.5-3.2-6.2-7.1-7.9-11.5c-1.3-3.5-1.7-7.2-2.5-10.8c-0.5-2.5-1-5-1.4-7.5c-0.7-4.1,2-8,6.1-8.8c2.5-0.4,5,0.4,6.7,2.2l0.3,0.3
			c0.3-0.3,0.1-0.7,0.1-1c0-5.5,0-10.9,0-16.4c-0.1-4,2.9-7.3,6.9-7.6c0.9-0.1,1.8,0,2.7,0.3c0.8,0.3,0.9,0.1,0.9-0.7
			c-0.1-2.6,1.3-5.1,3.6-6.4c3.5-2.1,8.1-1.1,10.2,2.4c0.6,1.1,1,2.3,1.1,3.5c0,0.4,0,0.9,0,1.4c1.6-0.6,3.3-0.7,5-0.3
			c3.4,1,5.4,3.7,5.4,7.6c0,1.3,0,2.5,0,3.8c0,0.7,0.2,0.8,0.8,0.6c2.4-0.8,4.9-0.2,6.8,1.3c0.3,0.2,0.6,0.4,1,0.1
			c2-1.8,4.9-2.3,7.4-1.3c0.1,0,0.1,0,0.4-0.1c0-1.8-0.1-3.7,0-5.6c0.3-4,3.8-7.1,7.9-6.7c0.5,0,1.1,0.1,1.6,0.3
			c0.2,0.1,0.5,0.1,0.8,0.2c-0.2-2.1,0.5-4.2,1.8-5.8c1.9-2.3,5.1-3.2,7.9-2.3c2.9,0.9,4.9,3.4,5.2,6.4c0.1,1.6,0.1,1.6,1.7,1.3
			c4-0.7,7.9,1.9,8.6,5.9c0.1,0.5,0.1,1,0.1,1.6c0.1,5.8,0,11.5,0,17.3c0.4,0,0.6-0.4,0.9-0.6c4.2-3.7,10.9-1.7,12.2,3.6
			c0.4,2,0.3,4.1-0.3,6.1c-1,4.6-1.6,9.3-2.9,13.8c-1.4,4.9-4.2,9.4-8,12.9c-1.8,1.5-3,3.5-3.7,5.8c-0.3,1.6-0.4,3.2-0.3,4.8
			c0,0.9,0,1.7,0,2.6c0,1.5-0.8,2.5-2.1,2.6s-2.1-0.7-2.5-2.2c0-1.7,0-3.4,0-5.2c0-1.7,0.3-3.4,0.8-5.1c1-2.7,2.7-5.1,4.9-7
			c3.7-3.4,6.1-7.9,7.1-12.9c0.9-4.4,1.7-8.8,2.6-13.2c0.4-2.1-0.5-3.6-2.3-4c-1.7-0.3-3.4,0.9-3.7,2.6c-0.4,1.6-0.9,3.2-1.2,4.9
			c-0.2,1.2-1,2.1-2,2.7c-1.4,0.9-2.9,1.8-4.3,2.6c-2.8,1.5-4.6,4.3-4.7,7.5c0.1,1.2-0.9,2.2-2.1,2.3c-0.1,0-0.2,0-0.3,0
			c-1.2-0.1-2.2-1.1-2.1-2.4c0-0.1,0-0.1,0-0.2c0.1-2.8,1.1-5.5,2.9-7.8c1.6-2,3.7-3.2,5.8-4.5c0.5-0.2,0.8-0.7,0.7-1.2
			c0-8.6,0-17.3,0-25.9c0-0.5-0.1-1-0.3-1.5c-0.6-1.2-1.9-1.9-3.2-1.6c-1.5,0.2-2.5,1.6-2.4,3.1c0,3.5,0,7,0,10.4
			c0,2.1-0.8,3.2-2.3,3.2s-2.2-1.1-2.2-3.2V90.7c0-0.4,0-0.9-0.1-1.3c-0.2-1.6-1.7-2.7-3.2-2.5c-0.5,0.1-0.9,0.2-1.3,0.5
			c-0.9,0.7-1.4,1.8-1.3,2.9c0,8.9,0,17.8,0,26.7c0,1.7-0.8,2.7-2.2,2.7s-2.3-1-2.3-2.7c0-6.2,0-12.3,0-18.5c0-0.3,0-0.6,0-0.9
			c-0.1-1.2-0.8-2.2-1.8-2.6c-1.1-0.5-2.3-0.3-3.1,0.6c-0.7,0.8-1.1,1.8-1,2.9c0,6,0,12,0,18.1c0,0.5,0,1-0.1,1.4
			c-0.2,1.1-1.3,1.9-2.4,1.7c0,0,0,0,0,0c-1.2-0.2-1.9-1-1.9-2.5c0-2.4,0-4.9,0-7.3c0.1-1-0.4-2-1.2-2.6c-0.8-0.7-2-0.8-3-0.3
			c-1.1,0.5-1.8,1.7-1.8,2.9c0,7.5,0,15,0,22.6c0.1,6.3,2.7,12.3,7.2,16.7c2.1,2.2,3.5,5.1,3.8,8.2c0.3,2.4,0,4.8,0.2,7.2
			c-0.5,1.6-1.3,2.3-2.4,2.2c-1.3-0.1-2.2-1.2-2.1-2.4c0,0,0,0,0,0c-0.1-2,0.1-4-0.1-6c-0.2-2.2-1.1-4.3-2.6-5.9
			c-2.6-2.7-4.7-5.7-6.2-9.1c-0.5,1-1,1.9-1.4,2.7c-1.2,2.1-2.7,4.1-4.4,5.8c-2.2,2.2-3.3,5.2-3.2,8.3c0,1.2,0,2.5,0,3.7
			c0,1.8-0.6,2.7-1.9,2.9s-2.1-0.5-2.6-2.2c0-1.2,0.1-2.5,0-3.7c-0.3-4.7,1.4-9.3,4.8-12.6c4.3-4.5,6.6-10.5,6.4-16.7
			c0-6.6,0-13.1,0-19.6c0-0.8,0-1.6,0-2.4c0.1-1.7-1.1-3.1-2.7-3.3s-3.1,1.1-3.3,2.7c0,0.3,0,0.6,0.1,0.9c0,2.5,0,4.9,0,7.4
			c0.1,1.2-0.8,2.3-2,2.4c0,0-0.1,0-0.1,0c-1.2,0-2.3-0.9-2.3-2.2c0-0.1,0-0.1,0-0.2c0-0.3,0-0.7,0-1c0-6,0-12,0-18
			c0.1-0.7,0-1.4-0.3-2c-0.6-1.3-2-1.9-3.3-1.6c-1.4,0.3-2.4,1.6-2.3,3.1c0,4.6,0,9.2,0,13.8c0,1.9,0,3.7,0,5.6
			c0.1,1.2-0.8,2.3-2,2.4c-0.2,0-0.4,0-0.6,0c-1.2-0.2-1.8-1.1-1.8-2.8V90.6c0-0.4,0-0.7,0-1.1c-0.2-1.6-1.7-2.8-3.4-2.6
			c-0.5,0.1-0.9,0.2-1.3,0.5c-1,0.7-1.5,1.9-1.3,3.2c0,8.7,0,17.3,0,25.9c0,0.5,0,1-0.1,1.4c-0.2,1.2-1.3,2-2.5,1.8
			c-0.9-0.1-1.6-0.8-1.8-1.7c-0.1-0.5-0.1-1-0.1-1.4c0-6.1,0-12.3,0-18.4c0.1-1.1-0.3-2.1-1.2-2.8c-0.8-0.7-2-0.9-3-0.4
			c-1.2,0.5-1.9,1.7-1.8,3c0,7.7,0,15.3,0,23c0,1.2-0.4,2.7,0.2,3.6s1.9,1.3,2.9,2c3.7,2.2,6.1,6.2,6.3,10.5
			c0.1,1.6-0.7,2.7-2.1,2.8s-2.3-0.8-2.4-2.4c-0.1-3.1-1.8-5.8-4.5-7.3c-1.5-0.9-3-1.8-4.5-2.7c-1-0.6-1.8-1.5-2-2.7
			c-0.3-1.7-0.8-3.3-1.2-5c-0.3-1.7-1.9-2.8-3.7-2.5c-1.7,0.4-2.8,2-2.4,3.7c0,0.1,0,0.2,0.1,0.2c0.5,2.5,1,5.1,1.5,7.6
			c0.5,3.1,1.2,6.1,2,9.1c1.4,4,3.8,7.6,7,10.4c2.7,2.4,4.4,5.6,4.7,9.1C64.9,159.7,64.8,162.1,64.8,164.5z"/>
		<path class="st4" d="M115.7,164.5c-0.2-2.4,0.1-4.8-0.2-7.2c-0.3-3.1-1.7-5.9-3.8-8.2c-4.5-4.4-7.1-10.4-7.2-16.7
			c0-7.5,0-15,0-22.6c-0.1-1.2,0.6-2.4,1.8-2.9c1-0.5,2.2-0.4,3,0.3c0.8,0.6,1.3,1.6,1.2,2.6c0,2.4,0,4.9,0,7.3
			c0,1.5,0.7,2.3,1.9,2.5c1.1,0.2,2.2-0.5,2.4-1.7c0,0,0,0,0,0c0.1-0.5,0.1-1,0.1-1.4c0-6,0-12,0-18.1c-0.1-1.1,0.3-2.1,1-2.9
			c0.8-0.8,2-1,3-0.6c1.1,0.4,1.8,1.5,1.8,2.6c0,0.3,0,0.6,0,0.9c0,6.2,0,12.3,0,18.5c0,1.7,0.9,2.8,2.3,2.7s2.2-1,2.2-2.7
			c0-8.9,0-17.8,0-26.7c-0.1-1.1,0.4-2.2,1.3-2.9c1.3-0.9,3.1-0.6,4.1,0.7c0.3,0.4,0.5,0.9,0.5,1.3c0,0.4,0.1,0.9,0.1,1.3v17.6
			c0,2.1,0.7,3.1,2.2,3.2s2.3-1.1,2.3-3.2c0-3.5,0-7,0-10.4c-0.1-1.5,0.9-2.8,2.4-3.1c1.3-0.3,2.7,0.4,3.2,1.6
			c0.2,0.5,0.3,1,0.3,1.5c0,8.6,0,17.3,0,25.9c0,0.5-0.3,1-0.7,1.2c-2.1,1.3-4.3,2.5-5.8,4.5c-1.8,2.2-2.8,4.9-2.9,7.8
			c-0.2,1.2,0.7,2.4,1.9,2.5c0.1,0,0.1,0,0.2,0c1.2,0.1,2.3-0.8,2.3-2c0-0.1,0-0.2,0-0.3c0.1-3.2,1.9-6,4.7-7.5
			c1.5-0.8,2.9-1.8,4.3-2.6c1-0.6,1.8-1.5,2-2.7c0.3-1.7,0.8-3.3,1.2-4.9c0.3-1.7,2-2.9,3.7-2.6c1.8,0.4,2.7,2,2.3,4
			c-0.9,4.4-1.7,8.8-2.6,13.2c-0.9,4.9-3.4,9.4-7.1,12.9c-2.2,1.9-3.9,4.3-4.9,7c-0.6,1.6-0.8,3.3-0.8,5.1c0,1.7,0,3.4,0,5.2
			L115.7,164.5z M133.5,115.3c-1.2,0-2.2,1-2.2,2.2c0,0,0,0,0,0c-0.1,1.2,0.9,2.3,2.1,2.3s2.3-0.9,2.3-2.1c0-0.1,0-0.2,0-0.3
			C135.7,116.2,134.7,115.3,133.5,115.3C133.5,115.3,133.5,115.3,133.5,115.3z"/>
		<path class="st4" d="M64.8,164.5c0-2.4,0.1-4.8-0.2-7.2c-0.4-3.5-2.1-6.8-4.7-9.1c-3.2-2.8-5.6-6.4-7-10.4c-0.8-3-1.5-6-2-9.1
			c-0.5-2.5-1-5-1.5-7.6c-0.5-1.7,0.5-3.4,2.1-3.9c0.1,0,0.2,0,0.2-0.1c1.7-0.3,3.3,0.8,3.7,2.5c0.4,1.7,0.9,3.3,1.2,5
			c0.2,1.2,1,2.1,2,2.7c1.5,0.9,3,1.8,4.5,2.7c2.7,1.5,4.4,4.2,4.5,7.3c0.1,1.6,1,2.5,2.4,2.4s2.2-1.2,2.1-2.8
			c-0.2-4.3-2.6-8.3-6.3-10.5c-1-0.7-2.4-1-2.9-2s-0.2-2.4-0.2-3.6c0-7.7,0-15.3,0-23c-0.1-1.3,0.6-2.5,1.8-3c1-0.5,2.1-0.3,2.9,0.4
			c0.8,0.7,1.3,1.7,1.2,2.8c0,6.1,0,12.3,0,18.4c0,0.5,0,1,0.1,1.5c0.2,1.2,1.4,1.9,2.6,1.7c0.9-0.2,1.6-0.9,1.7-1.8
			c0.1-0.5,0.1-1,0.1-1.4c0-8.7,0-17.3,0-25.9c-0.2-1.2,0.3-2.4,1.3-3.2c1.4-0.9,3.2-0.5,4.2,0.8c0.3,0.4,0.4,0.8,0.5,1.3
			c0,0.4,0,0.7,0,1.1v26.3c0,1.7,0.6,2.6,1.8,2.8c1.2,0.2,2.3-0.5,2.6-1.7c0-0.2,0.1-0.4,0-0.6c0-1.9,0-3.7,0-5.6
			c0-4.6,0-9.2,0-13.8c-0.1-1.4,0.9-2.7,2.3-3.1c1.4-0.4,2.8,0.3,3.3,1.6c0.3,0.6,0.4,1.3,0.3,2c0,6,0,12,0,18c0,0.3,0,0.7,0,1
			c0,1.2,0.9,2.3,2.2,2.3c0.1,0,0.1,0,0.2,0c1.2,0,2.2-1,2.1-2.3c0,0,0-0.1,0-0.1c0.1-2.5,0-4.9,0-7.4c-0.4-1.6,0.7-3.2,2.3-3.6
			c1.6-0.4,3.2,0.7,3.6,2.3c0.1,0.3,0.1,0.6,0.1,0.9c0,0.8,0,1.6,0,2.4c0,6.5,0,13.1,0,19.6c0.2,6.2-2.1,12.2-6.4,16.7
			c-3.3,3.3-5.1,7.9-4.8,12.6c0.1,1.2,0,2.5,0,3.7L64.8,164.5z"/>
		<path class="st5" d="M138.7,68.4c-0.5,0-1.1,0-1.6,0c-1.2-0.1-2.1-1-2.1-2.2c0-1.2,0.9-2.2,2.1-2.2c1-0.1,2-0.1,3,0
			c1.2,0.1,2.1,1.1,2.1,2.4c-0.1,1.1-1,2-2.1,2.1C139.6,68.5,139.2,68.5,138.7,68.4z"/>
		<path class="st6" d="M61.2,70.8c0,0.5,0,1,0,1.6c-0.1,1.1-0.9,1.9-2,2c-1.1,0.1-2.1-0.6-2.3-1.7c-0.3-1.3-0.3-2.6,0-3.9
			c0.2-1,1.2-1.7,2.2-1.7c1.1,0.1,2,0.9,2.1,2C61.2,69.7,61.2,70.3,61.2,70.8z"/>
		<path class="st6" d="M65.7,79.7c-0.6,0-1.1,0-1.7,0c-1.2-0.1-2.1-1.2-1.9-2.4c0.1-0.9,0.8-1.7,1.7-1.9c1.2-0.2,2.4-0.2,3.6,0
			c1.1,0.1,1.9,1.2,1.8,2.3c-0.1,1.1-0.9,1.9-2,2C66.8,79.7,66.3,79.7,65.7,79.7L65.7,79.7z"/>
		<path class="st6" d="M61.2,84.2c0,0.5,0,1,0,1.6c-0.1,1.1-0.9,1.9-2,2c-1.1,0.1-2.1-0.6-2.3-1.7c-0.3-1.2-0.3-2.5,0-3.8
			c0.2-1.1,1.2-1.8,2.2-1.7c1.1,0.1,2,0.9,2,2C61.2,83.1,61.2,83.7,61.2,84.2z"/>
		<path class="st5" d="M147.6,59.6c0,0.5,0,1,0,1.6c-0.1,1.1-1,2-2.2,2c-1.2,0-2.1-0.8-2.2-2c-0.1-1.1-0.1-2.2,0-3.2
			c0.1-1.1,1-2,2.2-2c1.2,0,2.2,0.9,2.2,2.1C147.6,58.5,147.6,59,147.6,59.6L147.6,59.6z"/>
		<path class="st5" d="M152,68.5c-0.6,0-1.1,0-1.7-0.1c-1.1-0.2-1.9-1.1-1.9-2.2c-0.1-1.1,0.7-2.1,1.8-2.2c1.2-0.1,2.3-0.1,3.5,0
			c1.1,0.1,1.9,1.1,1.9,2.2c0,1.1-0.8,2-1.9,2.2c-0.6,0-1.2,0-1.8,0L152,68.5z"/>
		<path class="st5" d="M147.6,72.9c0,0.5,0,1,0,1.4c-0.1,1.2-1,2.1-2.2,2.2c-1.2,0-2.2-0.9-2.2-2.1c-0.1-1-0.1-2.1,0-3.1
			c0.1-1.1,1-2,2.2-2c1.2,0,2.2,0.9,2.2,2.1C147.6,71.9,147.6,72.4,147.6,72.9L147.6,72.9z"/>
		<path class="st6" d="M52.2,79.8c-0.6,0-1.1,0-1.7-0.1c-1.1-0.2-1.9-1.1-1.9-2.1c0-1,0.7-1.9,1.8-2.2c1.2-0.2,2.5-0.2,3.8,0
			c1,0.2,1.8,1.1,1.8,2.1c0,1.1-0.9,2-2,2.2C53.5,79.7,52.8,79.7,52.2,79.8z"/>
		<path class="st7" d="M118.4,65c-0.1,2.8-1.1,5.5-2.8,7.7c-3.6,4.9-8,9.2-12.9,12.6c-0.3,0.3-0.7,0.3-1,0c0,0,0,0,0,0
			c-5.3-3.9-10.2-8.2-13.7-13.9c-1.7-2.8-2.6-5.7-1.6-9c1.2-4.4,5.8-7,10.2-5.8c1.3,0.4,2.4,1,3.4,1.9c1.8,1.6,2.6,1.6,4.2,0.2
			c2.7-2.4,5.7-3.1,9-1.7C116.4,58.4,118.5,61.5,118.4,65z"/>
		<path class="st8" d="M133.5,115.3c1.2,0,2.2,0.9,2.2,2.1c0,0,0,0,0,0c0.1,1.2-0.8,2.3-2,2.4s-2.3-0.8-2.4-2c0-0.1,0-0.2,0-0.3
			C131.3,116.3,132.3,115.3,133.5,115.3C133.5,115.3,133.5,115.3,133.5,115.3z"/>
		<path d="M45.6,192.1c1,0,2.1,0.4,2.8,1.1c1.5,1.4,2.3,3.5,2.3,6.5c0.2,2.6-0.8,5.1-2.5,7c-0.8,0.8-1.9,1.3-3,1.4
			c-1.4,0.1-2.7-0.5-3.5-1.6c-0.9-1-1.5-2.2-1.8-3.5c-0.3-1.2-0.5-2.5-0.5-3.7c-0.1-1.8,0.4-3.5,1.5-5
			C41.9,192.8,43.7,192,45.6,192.1z M45.4,194.1c-1.9-0.2-3.6,1.1-4,3c-0.2,0.7-0.2,1.4-0.2,2.1c0,1,0.2,2,0.5,2.9
			c0.3,1.2,0.9,2.3,1.9,3.2c0.5,0.4,1.1,0.6,1.8,0.6c0.7,0,1.4-0.4,1.9-0.9c0.6-0.7,1-1.5,1.2-2.4c0.2-1,0.3-2,0.3-2.9
			c0.1-1.4-0.2-2.8-0.8-4.1C47.5,194.6,46.5,194.1,45.4,194.1L45.4,194.1z"/>
		<path d="M55.6,204.5v2.5c0,0.3-0.2,0.6-0.4,0.8c-0.2,0.2-0.5,0.3-0.8,0.4c-0.4,0-0.6-0.3-0.7-0.9c0-0.1-0.1-1.3-0.2-3.5
			c0-1.7-0.3-3.5-0.6-5.2c-0.1-0.4-0.2-0.7-0.2-1.1c0-0.5,0.3-0.8,1-0.8c0.3,0,0.5,0.1,0.6,0.3c0.1,0.2,0.3,0.4,0.3,0.6
			c0,0.2,0.1,0.5,0.1,0.9s0.1,0.6,0.1,0.7c0.3-0.7,0.8-1.4,1.5-1.8c0.7-0.4,1.4-0.6,2.2-0.6c1.3,0,2,0.3,2,1c0,0.3-0.1,0.6-0.3,0.8
			c-0.2,0.2-0.5,0.3-0.8,0.3c-1.1-0.1-2.2,0.4-2.9,1.3C55.8,201.6,55.5,203.1,55.6,204.5z"/>
		<path d="M68.3,196.9c0.7,0,1,0.6,1,1.8v0.4v1.7c0,0.5,0,1,0,1.6l0.3,5.4c0,0.4-0.4,0.6-1.2,0.6h-0.3c-0.2,0-0.3-0.1-0.4-0.2
			c-0.1-0.2-0.1-0.4,0-0.5c0.1-0.2,0-0.5-0.1-0.7c-0.8,0.8-1.9,1.2-3,1.2c-2.2,0-3.4-1.7-3.4-5.2c-0.1-1.5,0.3-3.1,1.1-4.4
			c0.7-1,1.9-1.5,3.1-1.4c0.7,0,1.3,0.1,1.9,0.3C67.7,197,68,196.9,68.3,196.9z M65.8,199c-0.7,0-1.5,0.2-2,0.8
			c-0.5,0.9-0.8,1.9-0.7,2.9c0,2.4,0.6,3.5,1.9,3.5c0.4,0,0.8-0.2,1.1-0.5c0.4-0.3,0.7-0.6,0.8-1c0.3-0.9,0.5-1.9,0.5-2.8
			c0-0.8-0.1-1.5-0.4-2.2C66.9,199.3,66.4,199,65.8,199L65.8,199z"/>
		<path d="M71.6,199.5c0.5-0.9,1.3-1.5,2.2-2c0.8-0.4,1.7-0.6,2.6-0.6c0.7,0,1.4,0.1,2,0.3c0.5,0.2,0.8,0.5,0.8,0.8
			c0,0.4-0.1,0.7-0.3,1c-0.1,0.3-0.4,0.5-0.7,0.5c-0.3-0.1-0.6-0.1-0.9-0.3c-0.3-0.1-0.7-0.2-1-0.3c-0.9,0-1.8,0.3-2.4,1
			c-0.7,0.7-1,1.7-1,2.7c-0.1,0.9,0.1,1.7,0.5,2.5c0.4,0.6,1.1,0.9,1.8,0.8c0.6-0.1,1.3-0.3,1.8-0.6c0.5-0.3,1-0.5,1.6-0.6
			c0.2,0,0.4,0.1,0.5,0.2c0.1,0.1,0.2,0.3,0.2,0.5c-0.1,0.5-0.3,0.9-0.7,1.2c-0.5,0.4-1.1,0.8-1.8,1c-0.6,0.3-1.3,0.4-1.9,0.4
			c-1.2,0-2.3-0.5-3-1.5c-0.8-1.2-1.2-2.7-1.1-4.1C70.7,201.3,71,200.4,71.6,199.5z"/>
		<path d="M81.9,192.9c0.3,0,0.6,0.2,0.8,0.4c0.2,0.2,0.4,0.5,0.4,0.9c0,0.3-0.2,0.7-0.4,0.9c-0.2,0.3-0.5,0.4-0.9,0.5
			c-0.3,0-0.6-0.1-0.8-0.4c-0.3-0.3-0.4-0.6-0.4-1C80.6,193.4,81,193,81.9,192.9L81.9,192.9z M82.9,205.4v1.7c0,0.3-0.1,0.6-0.4,0.8
			c-0.2,0.2-0.5,0.3-0.8,0.3c-0.3,0-0.6-0.2-0.6-0.5c0,0,0-0.1,0-0.1c-0.2-5.1-0.3-7.9-0.3-8.4c0-0.5,0-1.2,0.1-2
			c0-0.3,0.2-0.4,0.6-0.4c0.8,0,1.3,0.3,1.4,1c0,0.3,0.1,0.6,0.1,0.8l-0.1,1.5L82.9,205.4z"/>
		<path d="M89.9,196.9c1.2,0,2.2,0.6,2.8,1.6c0.8,1.2,1.2,2.6,1.1,3.9c0,1.4-0.4,2.8-1.1,3.9c-0.6,1-1.8,1.6-3,1.6
			c-1.2,0-2.4-0.6-3-1.7c-0.8-1.1-1.2-2.4-1.2-3.7c-0.1-1.5,0.3-2.9,1-4.1C87.3,197.4,88.5,196.8,89.9,196.9z M89.6,198.9
			c-0.7,0-1.3,0.4-1.6,1c-0.4,0.7-0.6,1.4-0.7,2.2c-0.1,1,0.2,2,0.7,2.8c0.3,0.6,1,0.9,1.6,0.9c0.9,0.1,1.8-0.5,2.1-1.4
			c0.1-0.5,0.2-1.1,0.2-1.7C91.9,200.2,91.1,198.9,89.6,198.9L89.6,198.9z M89.7,192.2c0.1-0.3,0.3-0.4,0.6-0.4
			c0.3,0,0.5,0.1,0.7,0.3c0.1,0.1,0.2,0.3,0.3,0.5c0,0.1,0,0.2,0,0.3c-0.3,0.7-0.7,1.4-1.3,2c-0.6,0.6-1,0.9-1.4,0.9
			c-0.3,0-0.5-0.1-0.7-0.2c-0.2-0.1-0.2-0.4-0.2-0.6c0-0.3,0.2-0.5,0.4-0.6C88.9,193.9,89.4,193.1,89.7,192.2L89.7,192.2z"/>
		<path d="M96.2,207.3l-0.3-9.7c0-0.3,0.1-0.5,0.3-0.7c0.2-0.2,0.4-0.3,0.6-0.3c0.4-0.1,0.8,0.2,0.9,0.6c0,0,0,0,0,0
			c0.1,0.4,0.1,0.9,0.1,1.3c0.7-1.1,1.9-1.7,3.2-1.7c2,0,3,2.2,3,6.8v1.9c0,0.6,0,1.2-0.1,1.8c-0.1,0.5-0.5,0.8-1,0.7
			c-0.4,0-0.6-0.2-0.6-0.8v-1.3c0-1.3,0-2.5-0.2-3.8c-0.1-0.5-0.2-1.1-0.3-1.6c-0.3-0.9-0.7-1.3-1.3-1.3c-0.7-0.1-1.3,0.3-1.7,0.9
			c-0.4,0.7-0.6,1.4-0.6,2.2c-0.2,1.5-0.2,3-0.2,4.7c0,0.3-0.1,0.6-0.4,0.8c-0.2,0.2-0.5,0.3-0.9,0.3
			C96.4,208,96.2,207.8,96.2,207.3z"/>
		<path d="M115.3,208c-0.6,0-1.1-0.2-1.5-0.6l-0.3-0.3v7.2c-0.1,0.3-0.3,0.6-0.5,0.8c-0.2,0.2-0.5,0.3-0.8,0.3
			c-0.4,0-0.6-0.3-0.6-0.8V198c0.1-0.3,0.2-0.6,0.3-0.9c0.2-0.2,0.4-0.3,0.7-0.3c0.2,0,0.4,0,0.6,0.2c0.2,0.4,0.3,0.7,0.3,1.1
			c0.1-0.4,0.4-0.7,0.8-0.9c0.5-0.3,1.2-0.4,1.8-0.4c1.4-0.1,2.7,0.6,3.5,1.8c0.7,1.3,1,2.7,1,4.2c0.1,1.4-0.4,2.8-1.4,3.8
			C118.1,207.6,116.7,208.1,115.3,208z M113.5,200.8v4.4c0.1,0.1,0.2,0.1,0.3,0.2c0.4,0.4,0.9,0.6,1.5,0.6c2.2,0,3.3-1.1,3.3-3.4
			c0-1.9-0.5-3.1-1.5-3.7c-0.5-0.2-1-0.3-1.5-0.3c-0.6,0.1-1.1,0.4-1.5,0.8C113.8,199.9,113.5,200.3,113.5,200.8z"/>
		<path d="M128.4,196.9c0.7,0,1.1,0.6,1.1,1.8v0.4v1.7c0,0.5,0,1,0,1.6l0.4,5.4c0,0.4-0.4,0.6-1.2,0.6h-0.3c-0.2,0-0.3-0.1-0.4-0.2
			c-0.1-0.2-0.1-0.4,0-0.5c0.1-0.2,0-0.5-0.1-0.7c-0.8,0.8-1.8,1.2-2.9,1.2c-2.2,0-3.4-1.7-3.4-5.2c-0.1-1.5,0.3-3.1,1.1-4.4
			c0.7-1,1.9-1.5,3.1-1.5c0.6,0,1.3,0.1,1.9,0.3C127.8,197,128.1,196.9,128.4,196.9z M125.9,199c-0.7,0-1.5,0.2-2,0.8
			c-0.5,0.9-0.8,1.9-0.7,2.9c0,2.4,0.6,3.5,1.9,3.5c0.4,0,0.8-0.2,1.1-0.5c0.4-0.2,0.7-0.6,0.8-1c0.3-0.9,0.5-1.9,0.4-2.8
			c0.1-0.8-0.1-1.5-0.4-2.2C127,199.3,126.5,199,125.9,199L125.9,199z"/>
		<path d="M134.2,204.5v2.5c0,0.3-0.2,0.6-0.4,0.8c-0.2,0.2-0.5,0.3-0.8,0.4c-0.4,0-0.6-0.3-0.7-0.9c0-0.1-0.1-1.3-0.2-3.5
			c0-1.7-0.3-3.5-0.6-5.2c-0.1-0.4-0.2-0.7-0.2-1.1c0-0.5,0.3-0.8,1-0.8c0.3,0,0.5,0.1,0.6,0.3c0.1,0.2,0.3,0.4,0.3,0.6
			c0,0.2,0.1,0.5,0.1,0.9s0.1,0.6,0.1,0.7c0.3-0.7,0.8-1.4,1.5-1.8c0.7-0.4,1.4-0.6,2.2-0.6c1.3,0,2,0.3,2,1c0,0.3-0.1,0.6-0.4,0.8
			c-0.2,0.2-0.5,0.3-0.8,0.3c-1.1-0.1-2.2,0.4-2.9,1.3C134.4,201.6,134.1,203.1,134.2,204.5z"/>
		<path d="M147,196.9c0.7,0,1.1,0.6,1.1,1.8v0.4v1.7c0,0.5,0,1,0,1.6l0.4,5.4c0,0.4-0.4,0.6-1.2,0.6h-0.3c-0.2,0-0.3-0.1-0.4-0.2
			c-0.1-0.2-0.1-0.4,0-0.5c0.1-0.2,0-0.5-0.1-0.7c-0.8,0.8-1.8,1.2-2.9,1.2c-2.2,0-3.4-1.7-3.4-5.2c-0.1-1.5,0.3-3.1,1.1-4.4
			c0.7-0.9,1.8-1.5,3-1.4c0.7,0,1.3,0.1,1.9,0.3C146.3,197,146.6,196.9,147,196.9z M144.5,199c-0.7,0-1.5,0.2-2,0.8
			c-0.5,0.9-0.8,1.9-0.7,2.9c0,2.4,0.6,3.5,1.9,3.5c0.4,0,0.8-0.2,1.1-0.5c0.4-0.2,0.7-0.6,0.9-1c0.3-0.9,0.5-1.9,0.4-2.8
			c0.1-0.8-0.1-1.5-0.4-2.2C145.6,199.3,145,199,144.5,199L144.5,199z"/>
		<path d="M40.1,222.4h1.2c0.2,0,0.3,0,0.5,0v-4.9c0-0.3,0.2-0.5,0.4-0.7c0.2-0.2,0.5-0.3,0.7-0.3c0.2,0,0.4,0.1,0.5,0.2
			c0.1,0.2,0.2,0.4,0.2,0.7c0,0.3,0,2,0,5l2.8-0.1c0.5,0,0.7,0.3,0.7,0.8c0,0.4-0.1,0.7-0.4,0.9c-0.2,0.2-0.5,0.3-0.8,0.3
			c-0.3,0-0.5,0-0.8,0h-1.5c0,0.7,0.1,2,0.2,3.9c0.1,1.9,0.2,3.2,0.3,3.7c0.1,0.4,0.1,0.7,0,1.1c0,0.1-0.1,0.3-0.3,0.4
			c-0.3,0.1-0.5,0.2-0.8,0.1c-0.3,0-0.6-0.2-0.6-0.6c0,0,0,0,0,0c-0.4-2.9-0.6-5.7-0.7-8.6c-0.1,0-0.7,0-1.6,0s-1.4-0.3-1.4-0.8
			C38.8,222.8,39.2,222.4,40.1,222.4z"/>
		<path d="M52,222.5c1.2,0,2.2,0.6,2.8,1.6c0.8,1.2,1.1,2.6,1.1,3.9c0,1.4-0.4,2.8-1.2,3.9c-1.1,1.7-3.3,2.1-5,1
			c-0.4-0.3-0.8-0.6-1-1c-0.8-1.1-1.2-2.4-1.2-3.7c-0.1-1.5,0.3-2.9,1-4.1C49.4,223,50.7,222.4,52,222.5z M51.7,224.5
			c-0.7,0-1.3,0.4-1.6,1c-0.4,0.7-0.6,1.4-0.7,2.2c-0.1,1,0.2,1.9,0.7,2.8c0.3,0.6,1,0.9,1.6,0.9c0.9,0.1,1.8-0.5,2.1-1.4
			c0.1-0.5,0.2-1.1,0.2-1.7C54,225.7,53.2,224.4,51.7,224.5L51.7,224.5z"/>
		<path d="M63.1,222.4v-4.6c0-0.9,0.3-1.3,0.8-1.3c0.6,0,0.9,0.2,0.9,0.7c0,0.2,0,1.5,0.1,3.8c0,2.3,0.1,4.4,0.2,6.4
			s0.2,3.9,0.2,5.6c0,0.5-0.4,0.7-1.1,0.7c-0.5,0-0.7-0.3-0.7-1c-0.7,0.5-1.6,0.8-2.4,0.8c-1.1,0-2.2-0.5-2.9-1.3
			c-0.8-0.9-1.1-2.1-1.1-3.3c0-1.3,0.3-2.5,0.8-3.7c0.5-1.1,1.4-2,2.5-2.4C61.2,222.4,62.2,222.3,63.1,222.4L63.1,222.4z
			 M63.2,225.7c-0.1-0.3-0.2-0.5-0.4-0.8c-0.1-0.2-0.3-0.3-0.5-0.3c-0.2,0-0.4-0.1-0.7-0.1c-0.3,0-0.6,0.1-0.9,0.3
			c-0.4,0.2-0.7,0.5-0.9,0.9c-0.5,0.8-0.8,1.8-0.8,2.7c0,0.8,0.2,1.6,0.6,2.3c0.3,0.6,0.9,0.9,1.6,0.9c0.7,0,1.3-0.4,1.6-1
			c0.4-0.8,0.6-1.7,0.6-2.6C63.4,227.2,63.4,226.4,63.2,225.7z"/>
		<path d="M70.9,222.5c1.2,0,2.2,0.6,2.8,1.6c0.8,1.2,1.1,2.6,1.1,3.9c0,1.4-0.4,2.8-1.1,3.9c-1.1,1.7-3.3,2.1-5,1
			c-0.4-0.3-0.8-0.6-1-1c-0.8-1.1-1.2-2.4-1.2-3.7c-0.1-1.5,0.3-2.9,1-4.1C68.3,223,69.6,222.4,70.9,222.5z M70.6,224.5
			c-0.7,0-1.3,0.4-1.7,1c-0.4,0.7-0.6,1.4-0.7,2.2c-0.1,1,0.2,1.9,0.7,2.8c0.3,0.6,1,0.9,1.6,0.9c0.9,0.1,1.8-0.5,2.1-1.4
			c0.1-0.5,0.2-1.1,0.2-1.7C72.9,225.7,72.2,224.4,70.6,224.5L70.6,224.5z"/>
		<path d="M77.7,223.2c0.6-0.5,1.5-0.8,2.3-0.8c0.9,0,1.7,0.2,2.6,0.5c0.8,0.3,1.2,0.7,1.2,1.3c0,0.3-0.1,0.5-0.3,0.6
			c-0.1,0.1-0.3,0.2-0.5,0.2h-0.4c-0.3-0.1-0.7-0.3-1-0.4c-0.5-0.3-1-0.4-1.5-0.4c-0.4,0-0.8,0.1-1.2,0.4c-0.3,0.2-0.5,0.6-0.5,1
			c0,0.4,0.2,0.8,0.6,1.1c0.6,0.3,1.3,0.6,2,0.7c0.8,0.1,1.5,0.4,2.2,0.8c0.6,0.4,0.8,1.2,0.8,1.9c0.1,1-0.3,2.1-1,2.8
			c-0.7,0.6-1.6,0.9-2.5,0.8c-0.9,0-1.7-0.1-2.5-0.4c-0.7-0.3-1-0.7-1-1.2c-0.1-0.4,0.2-0.9,0.7-0.9c0.1,0,0.2,0,0.2,0
			c0.4,0.1,0.7,0.2,1.1,0.3c0.5,0.2,1.1,0.3,1.6,0.3c0.5,0,0.9-0.2,1.2-0.5c0.2-0.3,0.3-0.7,0.3-1.2c0-0.4-0.2-0.8-0.6-1
			c-0.5-0.2-1.1-0.4-1.7-0.5c-0.6-0.1-1.1-0.2-1.6-0.4c-1-0.4-1.6-1.5-1.4-2.6C76.7,224.6,77,223.8,77.7,223.2z"/>
		<path d="M90.9,218.1c0-0.4,0.1-0.8,0.3-1.2c0.2-0.2,0.5-0.3,0.7-0.3c0.7,0,1,0.3,1,0.8s0,1.6-0.1,3.4s-0.1,3.4-0.1,4.9
			c0,1.2,0,2.3,0.2,3.5c0.2,1.5,0.5,2.3,0.8,2.3s0.6-0.2,0.8-0.7c0.1-0.2,0.2-0.4,0.4-0.5c0.2-0.2,0.4-0.2,0.7-0.2
			c0.6,0,0.8,0.5,0.8,1.4c0,0.6-0.4,1.1-0.8,1.5c-0.4,0.5-1,0.7-1.6,0.8c-0.5,0-0.9-0.1-1.3-0.3c-0.3-0.2-0.6-0.5-0.8-0.8
			c-0.2-0.3-0.3-0.7-0.5-1.1c-0.1-0.4-0.2-0.8-0.2-1.3c-0.1-0.8-0.2-2.1-0.2-3.8s-0.1-3.4-0.1-5S90.9,218.7,90.9,218.1z"/>
		<path d="M101.6,222.5c1.2,0,2.2,0.6,2.8,1.6c0.8,1.2,1.1,2.6,1.1,3.9c0,1.4-0.4,2.8-1.1,3.9c-1.1,1.7-3.3,2.1-5,1
			c-0.4-0.3-0.8-0.6-1-1c-0.8-1.1-1.2-2.4-1.1-3.7c-0.1-1.5,0.3-2.9,1-4.1C98.9,223,100.2,222.4,101.6,222.5z M101.3,224.5
			c-0.7,0-1.3,0.4-1.7,1c-0.4,0.7-0.6,1.4-0.6,2.2c-0.1,1,0.2,1.9,0.7,2.8c0.4,0.6,1,0.9,1.6,0.9c0.9,0.1,1.8-0.5,2.1-1.4
			c0.1-0.5,0.2-1.1,0.2-1.7C103.6,225.7,102.8,224.4,101.3,224.5L101.3,224.5z"/>
		<path d="M108.4,223.2c0.6-0.6,1.5-0.9,2.3-0.8c0.9,0,1.7,0.2,2.5,0.5c0.8,0.3,1.2,0.7,1.2,1.3c0,0.3-0.1,0.5-0.3,0.6
			c-0.2,0.1-0.3,0.2-0.5,0.2h-0.4c-0.3-0.1-0.6-0.3-0.9-0.4c-0.5-0.3-1-0.4-1.5-0.4c-0.4,0-0.8,0.1-1.2,0.4c-0.3,0.2-0.5,0.6-0.5,1
			c0,0.4,0.2,0.8,0.6,1.1c0.6,0.3,1.3,0.6,2,0.7c0.8,0.1,1.5,0.4,2.2,0.8c0.6,0.4,0.8,1.2,0.8,1.9c0.1,1-0.2,2.1-1,2.8
			c-0.7,0.6-1.6,0.9-2.5,0.8c-0.9,0-1.7-0.1-2.5-0.4c-0.7-0.3-1-0.7-1-1.2c-0.1-0.4,0.2-0.9,0.7-0.9c0.1,0,0.2,0,0.2,0
			c0.3,0.1,0.7,0.2,1,0.3c0.5,0.2,1.1,0.3,1.6,0.3c0.5,0,0.9-0.2,1.2-0.5c0.3-0.3,0.4-0.7,0.4-1.2c0-0.4-0.2-0.8-0.6-1
			c-0.5-0.2-1.1-0.4-1.7-0.5c-0.6-0.1-1.1-0.2-1.7-0.4c-1-0.4-1.6-1.5-1.4-2.6C107.4,224.6,107.7,223.8,108.4,223.2z"/>
		<path d="M127.3,222.4v-4.6c0-0.9,0.3-1.3,0.8-1.3s0.9,0.2,0.9,0.7c0,0.2,0,1.5,0.1,3.8c0,2.3,0.1,4.4,0.2,6.4s0.2,3.9,0.2,5.6
			c0,0.5-0.4,0.7-1.1,0.7c-0.5,0-0.7-0.3-0.7-1c-0.7,0.5-1.6,0.8-2.4,0.8c-1.1,0-2.2-0.5-2.9-1.3c-0.8-0.9-1.1-2.1-1.1-3.3
			c0-1.3,0.3-2.5,0.8-3.7c0.5-1.1,1.4-2,2.5-2.4c0.6-0.3,1.3-0.4,2-0.4C126.9,222.4,127.1,222.4,127.3,222.4z M127.5,225.7
			c-0.1-0.3-0.2-0.5-0.4-0.8c-0.1-0.2-0.3-0.3-0.5-0.3c-0.2,0-0.4-0.1-0.7-0.1c-0.3,0-0.6,0.1-0.9,0.3c-0.4,0.2-0.7,0.5-0.9,0.9
			c-0.5,0.8-0.8,1.8-0.8,2.7c0,0.8,0.2,1.6,0.6,2.3c0.3,0.6,0.9,0.9,1.6,0.9c0.7,0,1.3-0.4,1.6-1c0.4-0.8,0.6-1.7,0.6-2.6
			C127.7,227.2,127.6,226.4,127.5,225.7z"/>
		<path d="M132.6,217.7c0.1-0.3,0.3-0.4,0.6-0.4c0.3,0,0.5,0.1,0.7,0.3c0.1,0.1,0.2,0.3,0.3,0.5c0,0.1,0,0.2,0,0.3
			c-0.3,0.7-0.7,1.4-1.3,2c-0.6,0.6-1.1,1-1.4,1c-0.3,0-0.5-0.1-0.7-0.2c-0.2-0.1-0.2-0.4-0.2-0.6c0-0.3,0.2-0.5,0.4-0.6
			C131.8,219.4,132.3,218.6,132.6,217.7z M133.5,231v1.7c0,0.3-0.1,0.6-0.4,0.8c-0.2,0.2-0.5,0.3-0.8,0.3c-0.3,0-0.6-0.2-0.6-0.5
			c0,0,0-0.1,0-0.1c-0.2-5.1-0.3-7.9-0.3-8.4c0-0.5,0-1.2,0.1-2c0-0.3,0.2-0.4,0.6-0.4c0.8,0,1.3,0.3,1.4,1c0,0.3,0.1,0.6,0.1,0.8
			l-0.1,1.5L133.5,231z"/>
		<path d="M143,222.4c0.7,0,1.1,0.6,1.1,1.8v0.4l-0.1,1.7c0,0.5,0,1,0,1.6l0.4,5.4c0,0.4-0.4,0.6-1.2,0.6h-0.4
			c-0.2,0-0.3-0.1-0.4-0.2c-0.1-0.2-0.1-0.4,0-0.5c0-0.2,0-0.5-0.1-0.7c-0.8,0.8-1.8,1.2-2.9,1.2c-2.2,0-3.4-1.7-3.4-5.2
			c-0.1-1.5,0.3-3.1,1.1-4.4c0.7-1,1.9-1.5,3.1-1.5c0.7,0,1.3,0.1,1.9,0.3C142.4,222.6,142.7,222.5,143,222.4z M140.5,224.6
			c-0.8-0.1-1.5,0.2-2,0.8c-0.5,0.9-0.8,1.9-0.7,2.9c0,2.4,0.6,3.5,1.9,3.5c0.4,0,0.8-0.2,1.1-0.4c0.4-0.3,0.7-0.6,0.9-1
			c0.3-0.9,0.5-1.9,0.4-2.8c0-0.8-0.1-1.5-0.4-2.2C141.6,224.8,141,224.6,140.5,224.6L140.5,224.6z"/>
		<path d="M147.1,223.2c0.6-0.6,1.5-0.8,2.3-0.8c0.9,0,1.7,0.2,2.6,0.5c0.8,0.3,1.2,0.7,1.2,1.3c0,0.3-0.1,0.5-0.3,0.6
			c-0.1,0.1-0.3,0.2-0.5,0.2h-0.4c-0.3-0.1-0.7-0.3-1-0.4c-0.5-0.3-1-0.4-1.5-0.4c-0.4,0-0.8,0.1-1.2,0.4c-0.3,0.2-0.5,0.6-0.5,1
			c0,0.4,0.2,0.8,0.6,1.1c0.6,0.3,1.3,0.6,2,0.7c0.8,0.1,1.5,0.4,2.2,0.8c0.6,0.4,0.8,1.2,0.8,1.9c0.1,1-0.3,2.1-1,2.8
			c-0.7,0.6-1.6,0.9-2.5,0.8c-0.9,0-1.7-0.1-2.5-0.4c-0.7-0.3-1-0.7-1-1.2c-0.1-0.4,0.2-0.9,0.7-0.9c0.1,0,0.2,0,0.2,0
			c0.4,0.1,0.7,0.2,1.1,0.3c0.5,0.2,1.1,0.3,1.6,0.3c0.5,0,0.9-0.2,1.2-0.5c0.3-0.3,0.4-0.8,0.4-1.2c0-0.4-0.2-0.8-0.6-1
			c-0.5-0.2-1.1-0.4-1.7-0.5c-0.6-0.1-1.1-0.2-1.6-0.4c-1-0.4-1.6-1.5-1.4-2.6C146.1,224.6,146.4,223.8,147.1,223.2z"/>
	</g>
</g>
</svg>
