<?xml version="1.0" encoding="utf-8"?>
<!-- Generator: Adobe Illustrator 26.3.1, SVG Export Plug-In . SVG Version: 6.00 Build 0)  -->
<svg version="1.1" id="Capa_1" xmlns="http://www.w3.org/2000/svg" xmlns:xlink="http://www.w3.org/1999/xlink" x="0px" y="0px"
	 viewBox="0 0 192.1 192.1" style="enable-background:new 0 0 192.1 192.1;" xml:space="preserve">
<style type="text/css">
	.st0{fill:#00B5FF;}
	.st1{fill:#FFFFFF;}
	.st2{fill:#030202;}
	.st3{fill:#030302;}
	.st4{fill:#FCD89A;}
	.st5{fill:#030303;}
	.st6{fill:#050505;}
	.st7{fill:#FD5C5C;}
	.st8{fill:#060503;}
</style>
<g id="Capa_2_00000114767818042421774810000001015760035455532211_">
	<g id="Capa_1-2_00000168085068072877476620000015557055522583094439_">
		<path class="st0" d="M18.1,3.6h156c8,0,14.5,6.5,14.5,14.5v156c0,8-6.5,14.5-14.5,14.5h-156c-8,0-14.5-6.5-14.5-14.5v-156
			C3.6,10.1,10.1,3.6,18.1,3.6z"/>
		<path class="st1" d="M174.1,7.1c6.1,0,11,4.9,11,11v156c0,6.1-4.9,11-11,11h-156c-6.1,0-11-4.9-11-11v-156c0-6.1,4.9-11,11-11
			H174.1 M174.1,0.1h-156c-9.9,0-18,8.1-18,18v156c0,9.9,8.1,18,18,18h156c9.9,0,18-8.1,18-18v-156C192.1,8.2,183.9,0.1,174.1,0.1z"
			/>
		<path class="st1" d="M36.6,32.3c-0.1,2.8-0.4,5.6-1,8.3c-0.9,5.1-1.4,7.8-1.5,8.2c0,0.1-0.9,7.1-2.6,21c-1.1,2.2-2.3,3.2-3.4,3.2
			c-1-0.1-1.9-0.8-2.3-1.7c-0.5-0.9-0.7-2-0.7-3c0-2.2,0.6-6.9,1.9-14c0.1-0.4,0.8-3,2-7.8c0.7-2.5,1.1-5.1,1.1-7.7L30,38.2
			c-1-1.4-2-2.8-3-4.3c0.4-1.7,1.1-3.3,2.1-4.8c1.2-1.8,2.6-2.7,4.1-2.7c1.2,0,2,0.7,2.7,2.1C36.3,29.9,36.6,31.1,36.6,32.3z"/>
		<path class="st2" d="M111.2,51.9c1.2,0.3,2.4,0.7,3.6,1.2c6.2,3,9.2,10.2,6.8,16.7c-1.6,4-3.9,7.7-7,10.7
			c-3.4,3.6-7.2,6.7-11.3,9.5c-0.9,0.7-2.1,0.8-3,0.1c-5.7-4-11-8.4-15.1-14c-2.5-3.4-4.3-7.2-4.1-11.6c0.3-6.1,4.6-11.2,10.6-12.4
			c0.2,0,0.4,0,0.4-0.2h3.6c1,0.3,2,0.6,3,1s2,1.5,3,1.5s2-1.1,3.1-1.6c0.8-0.4,1.8-0.3,2.5-0.9L111.2,51.9z M118,65.1
			c0-3.4-2-6.6-5.2-7.9c-3.3-1.5-6.3-0.8-9,1.7c-1.6,1.5-2.4,1.4-4.2-0.2c-3.3-3.1-8.6-2.9-11.7,0.5c-0.9,1-1.5,2.1-1.9,3.4
			c-1,3.3-0.1,6.2,1.6,9c3.5,5.7,8.4,9.9,13.7,13.8c0.3,0.3,0.7,0.3,1,0l0,0c5-3.5,9.4-7.7,12.9-12.6C117,70.6,117.9,67.9,118,65.1z
			"/>
		<path class="st3" d="M64.4,164.6c-0.3,1.5-1.3,2.4-2.5,2.2s-2-1.1-2-2.6s0-2.9,0-4.3c0.1-3.2-1.2-6.3-3.5-8.4
			c-3.5-3.2-6.2-7.1-7.9-11.5c-1.3-3.5-1.7-7.2-2.5-10.8c-0.5-2.5-1-5-1.4-7.5c-0.7-4.1,2-8,6.1-8.8c2.5-0.4,5,0.4,6.7,2.2l0.3,0.3
			c0.3-0.3,0.1-0.7,0.1-1c0-5.5,0-10.9,0-16.4c-0.1-4,2.9-7.3,6.9-7.6c0.9-0.1,1.8,0,2.7,0.3c0.8,0.3,0.9,0.1,0.9-0.7
			c-0.1-2.6,1.3-5.1,3.6-6.4c3.5-2.1,8.1-1.1,10.2,2.4c0.6,1.1,1,2.3,1.1,3.5c0,0.4,0,0.9,0,1.4c1.6-0.6,3.3-0.7,5-0.3
			c3.4,1,5.4,3.7,5.4,7.6c0,1.3,0,2.5,0,3.8c0,0.7,0.2,0.8,0.8,0.6c2.4-0.8,4.9-0.2,6.8,1.3c0.3,0.2,0.6,0.4,1,0.1
			c2-1.8,4.9-2.3,7.4-1.3c0.1,0,0.1,0,0.4-0.1c0-1.8-0.1-3.7,0-5.6c0.3-4,3.8-7.1,7.9-6.7c0.5,0,1.1,0.1,1.6,0.3
			c0.2,0.1,0.5,0.1,0.8,0.2c-0.2-2.1,0.5-4.2,1.8-5.8c1.9-2.3,5.1-3.2,7.9-2.3c2.9,0.9,4.9,3.4,5.2,6.4c0.1,1.6,0.1,1.6,1.7,1.3
			c4-0.7,7.9,1.9,8.6,5.9c0.1,0.5,0.1,1,0.1,1.6c0.1,5.8,0,11.5,0,17.3c0.4,0,0.6-0.4,0.9-0.6c4.2-3.7,10.9-1.7,12.2,3.6
			c0.4,2,0.3,4.1-0.3,6.1c-1,4.6-1.6,9.3-2.9,13.8c-1.4,4.9-4.2,9.4-8,12.9c-1.8,1.5-3,3.5-3.7,5.8c-0.3,1.6-0.4,3.2-0.3,4.8
			c0,0.9,0,1.7,0,2.6c0,1.5-0.8,2.5-2.1,2.6s-2.1-0.7-2.5-2.2c0-1.7,0-3.4,0-5.2c0-1.7,0.3-3.4,0.8-5.1c1-2.7,2.7-5.1,4.9-7
			c3.7-3.4,6.1-7.9,7.1-12.9c0.9-4.4,1.7-8.8,2.6-13.2c0.4-2.1-0.5-3.6-2.3-4c-1.7-0.3-3.4,0.9-3.7,2.6c-0.4,1.6-0.9,3.2-1.2,4.9
			c-0.2,1.2-1,2.1-2,2.7c-1.4,0.9-2.9,1.8-4.3,2.6c-2.8,1.5-4.6,4.3-4.7,7.5c0.1,1.2-0.9,2.2-2.1,2.3c-0.1,0-0.2,0-0.3,0
			c-1.2-0.1-2.2-1.1-2.1-2.4c0-0.1,0-0.1,0-0.2c0.1-2.8,1.1-5.5,2.9-7.8c1.6-2,3.7-3.2,5.8-4.5c0.5-0.2,0.8-0.7,0.7-1.2
			c0-8.6,0-17.3,0-25.9c0-0.5-0.1-1-0.3-1.5c-0.6-1.2-1.9-1.9-3.2-1.6c-1.5,0.2-2.5,1.6-2.4,3.1c0,3.5,0,7,0,10.4
			c0,2.1-0.8,3.2-2.3,3.2s-2.2-1.1-2.2-3.2V90.8c0-0.4,0-0.9-0.1-1.3c-0.2-1.6-1.7-2.7-3.2-2.5c-0.5,0.1-0.9,0.2-1.3,0.5
			c-0.9,0.7-1.4,1.8-1.3,2.9c0,8.9,0,17.8,0,26.7c0,1.7-0.8,2.7-2.2,2.7s-2.3-1-2.3-2.7c0-6.2,0-12.3,0-18.5c0-0.3,0-0.6,0-0.9
			c-0.1-1.2-0.8-2.2-1.8-2.6c-1.1-0.5-2.3-0.3-3.1,0.6c-0.7,0.8-1.1,1.8-1,2.9c0,6,0,12,0,18.1c0,0.5,0,1-0.1,1.4
			c-0.2,1.1-1.3,1.9-2.4,1.7l0,0c-1.2-0.2-1.9-1-1.9-2.5c0-2.4,0-4.9,0-7.3c0.1-1-0.4-2-1.2-2.6c-0.8-0.7-2-0.8-3-0.3
			c-1.1,0.5-1.8,1.7-1.8,2.9c0,7.5,0,15,0,22.6c0.1,6.3,2.7,12.3,7.2,16.7c2.1,2.2,3.5,5.1,3.8,8.2c0.3,2.4,0,4.8,0.2,7.2
			c-0.5,1.6-1.3,2.3-2.4,2.2c-1.3-0.1-2.2-1.2-2.1-2.4l0,0c-0.1-2,0.1-4-0.1-6c-0.2-2.2-1.1-4.3-2.6-5.9c-2.6-2.7-4.7-5.7-6.2-9.1
			c-0.5,1-1,1.9-1.4,2.7c-1.2,2.1-2.7,4.1-4.4,5.8c-2.2,2.2-3.3,5.2-3.2,8.3c0,1.2,0,2.5,0,3.7c0,1.8-0.6,2.7-1.9,2.9
			s-2.1-0.5-2.6-2.2c0-1.2,0.1-2.5,0-3.7c-0.3-4.7,1.4-9.3,4.8-12.6c4.3-4.5,6.6-10.5,6.4-16.7c0-6.6,0-13.1,0-19.6
			c0-0.8,0-1.6,0-2.4c0.1-1.7-1.1-3.1-2.7-3.3s-3.1,1.1-3.3,2.7c0,0.3,0,0.6,0.1,0.9c0,2.5,0,4.9,0,7.4c0.1,1.2-0.8,2.3-2,2.4h-0.1
			c-1.2,0-2.3-0.9-2.3-2.2c0-0.1,0-0.1,0-0.2c0-0.3,0-0.7,0-1c0-6,0-12,0-18c0.1-0.7,0-1.4-0.3-2c-0.6-1.3-2-1.9-3.3-1.6
			c-1.4,0.3-2.4,1.6-2.3,3.1c0,4.6,0,9.2,0,13.8c0,1.9,0,3.7,0,5.6c0.1,1.2-0.8,2.3-2,2.4c-0.2,0-0.4,0-0.6,0
			c-1.2-0.2-1.8-1.1-1.8-2.8V90.7c0-0.4,0-0.7,0-1.1C78.5,88,77,86.8,75.3,87c-0.5,0.1-0.9,0.2-1.3,0.5c-1,0.7-1.5,1.9-1.3,3.2
			c0,8.7,0,17.3,0,25.9c0,0.5,0,1-0.1,1.4c-0.2,1.2-1.3,2-2.5,1.8c-0.9-0.1-1.6-0.8-1.8-1.7c-0.1-0.5-0.1-1-0.1-1.4
			c0-6.1,0-12.3,0-18.4c0.1-1.1-0.3-2.1-1.2-2.8c-0.8-0.7-2-0.9-3-0.4c-1.2,0.5-1.9,1.7-1.8,3c0,7.7,0,15.3,0,23
			c0,1.2-0.4,2.7,0.2,3.6s1.9,1.3,2.9,2c3.7,2.2,6.1,6.2,6.3,10.5c0.1,1.6-0.7,2.7-2.1,2.8s-2.3-0.8-2.4-2.4
			c-0.1-3.1-1.8-5.8-4.5-7.3c-1.5-0.9-3-1.8-4.5-2.7c-1-0.6-1.8-1.5-2-2.7c-0.3-1.7-0.8-3.3-1.2-5c-0.3-1.7-1.9-2.8-3.7-2.5
			c-1.7,0.4-2.8,2-2.4,3.7c0,0.1,0,0.2,0.1,0.2c0.5,2.5,1,5.1,1.5,7.6c0.5,3.1,1.2,6.1,2,9.1c1.4,4,3.8,7.6,7,10.4
			c2.7,2.4,4.4,5.6,4.7,9.1C64.5,159.8,64.4,162.2,64.4,164.6z"/>
		<path class="st4" d="M115.2,164.6c-0.2-2.4,0.1-4.8-0.2-7.2c-0.3-3.1-1.7-5.9-3.8-8.2c-4.5-4.4-7.1-10.4-7.2-16.7
			c0-7.5,0-15,0-22.6c-0.1-1.2,0.6-2.4,1.8-2.9c1-0.5,2.2-0.4,3,0.3c0.8,0.6,1.3,1.6,1.2,2.6c0,2.4,0,4.9,0,7.3
			c0,1.5,0.7,2.3,1.9,2.5c1.1,0.2,2.2-0.5,2.4-1.7l0,0c0.1-0.5,0.1-1,0.1-1.4c0-6,0-12,0-18.1c-0.1-1.1,0.3-2.1,1-2.9
			c0.8-0.8,2-1,3-0.6c1.1,0.4,1.8,1.5,1.8,2.6c0,0.3,0,0.6,0,0.9c0,6.2,0,12.3,0,18.5c0,1.7,0.9,2.8,2.3,2.7s2.2-1,2.2-2.7
			c0-8.9,0-17.8,0-26.7c-0.1-1.1,0.4-2.2,1.3-2.9c1.3-0.9,3.1-0.6,4.1,0.7c0.3,0.4,0.5,0.9,0.5,1.3s0.1,0.9,0.1,1.3v17.6
			c0,2.1,0.7,3.1,2.2,3.2s2.3-1.1,2.3-3.2c0-3.5,0-7,0-10.4c-0.1-1.5,0.9-2.8,2.4-3.1c1.3-0.3,2.7,0.4,3.2,1.6
			c0.2,0.5,0.3,1,0.3,1.5c0,8.6,0,17.3,0,25.9c0,0.5-0.3,1-0.7,1.2c-2.1,1.3-4.3,2.5-5.8,4.5c-1.8,2.2-2.8,4.9-2.9,7.8
			c-0.2,1.2,0.7,2.4,1.9,2.5c0.1,0,0.1,0,0.2,0c1.2,0.1,2.3-0.8,2.3-2c0-0.1,0-0.2,0-0.3c0.1-3.2,1.9-6,4.7-7.5
			c1.5-0.8,2.9-1.8,4.3-2.6c1-0.6,1.8-1.5,2-2.7c0.3-1.7,0.8-3.3,1.2-4.9c0.3-1.7,2-2.9,3.7-2.6c1.8,0.4,2.7,2,2.3,4
			c-0.9,4.4-1.7,8.8-2.6,13.2c-0.9,4.9-3.4,9.4-7.1,12.9c-2.2,1.9-3.9,4.3-4.9,7c-0.6,1.6-0.8,3.3-0.8,5.1c0,1.7,0,3.4,0,5.2
			L115.2,164.6z M133.1,115.4c-1.2,0-2.2,1-2.2,2.2l0,0c-0.1,1.2,0.9,2.3,2.1,2.3s2.3-0.9,2.3-2.1c0-0.1,0-0.2,0-0.3
			C135.2,116.2,134.2,115.4,133.1,115.4L133.1,115.4z"/>
		<path class="st4" d="M64.4,164.6c0-2.4,0.1-4.8-0.2-7.2c-0.4-3.5-2.1-6.8-4.7-9.1c-3.2-2.8-5.6-6.4-7-10.4c-0.8-3-1.5-6-2-9.1
			c-0.5-2.5-1-5-1.5-7.6c-0.5-1.7,0.5-3.4,2.1-3.9c0.1,0,0.2,0,0.2-0.1c1.7-0.3,3.3,0.8,3.7,2.5s0.9,3.3,1.2,5c0.2,1.2,1,2.1,2,2.7
			c1.5,0.9,3,1.8,4.5,2.7c2.7,1.5,4.4,4.2,4.5,7.3c0.1,1.6,1,2.5,2.4,2.4s2.2-1.2,2.1-2.8c-0.2-4.3-2.6-8.3-6.3-10.5
			c-1-0.7-2.4-1-2.9-2s-0.2-2.4-0.2-3.6c0-7.7,0-15.3,0-23c-0.1-1.3,0.6-2.5,1.8-3c1-0.5,2.1-0.3,2.9,0.4c0.8,0.7,1.3,1.7,1.2,2.8
			c0,6.1,0,12.3,0,18.4c0,0.5,0,1,0.1,1.5c0.2,1.2,1.4,1.9,2.6,1.7c0.9-0.2,1.6-0.9,1.7-1.8c0.1-0.5,0.1-1,0.1-1.4
			c0-8.7,0-17.3,0-25.9c-0.2-1.2,0.3-2.4,1.3-3.2c1.4-0.9,3.2-0.5,4.2,0.8c0.3,0.4,0.4,0.8,0.5,1.3c0,0.4,0,0.7,0,1.1v26.3
			c0,1.7,0.6,2.6,1.8,2.8c1.2,0.2,2.3-0.5,2.6-1.7c0-0.2,0.1-0.4,0-0.6c0-1.9,0-3.7,0-5.6c0-4.6,0-9.2,0-13.8
			c-0.1-1.4,0.9-2.7,2.3-3.1s2.8,0.3,3.3,1.6c0.3,0.6,0.4,1.3,0.3,2c0,6,0,12,0,18c0,0.3,0,0.7,0,1c0,1.2,0.9,2.3,2.2,2.3
			c0.1,0,0.1,0,0.2,0c1.2,0,2.2-1,2.1-2.3v-0.1c0.1-2.5,0-4.9,0-7.4c-0.4-1.6,0.7-3.2,2.3-3.6c1.6-0.4,3.2,0.7,3.6,2.3
			c0.1,0.3,0.1,0.6,0.1,0.9c0,0.8,0,1.6,0,2.4c0,6.5,0,13.1,0,19.6c0.2,6.2-2.1,12.2-6.4,16.7c-3.3,3.3-5.1,7.9-4.8,12.6
			c0.1,1.2,0,2.5,0,3.7L64.4,164.6z"/>
		<path class="st5" d="M138.2,68.5c-0.5,0-1.1,0-1.6,0c-1.2-0.1-2.1-1-2.1-2.2s0.9-2.2,2.1-2.2c1-0.1,2-0.1,3,0
			c1.2,0.1,2.1,1.1,2.1,2.4c-0.1,1.1-1,2-2.1,2.1C139.2,68.6,138.8,68.6,138.2,68.5z"/>
		<path class="st6" d="M60.8,70.9c0,0.5,0,1,0,1.6c-0.1,1.1-0.9,1.9-2,2s-2.1-0.6-2.3-1.7c-0.3-1.3-0.3-2.6,0-3.9
			c0.2-1,1.2-1.7,2.2-1.7c1.1,0.1,2,0.9,2.1,2C60.8,69.8,60.8,70.4,60.8,70.9z"/>
		<path class="st6" d="M65.2,79.8c-0.6,0-1.1,0-1.7,0c-1.2-0.1-2.1-1.2-1.9-2.4c0.1-0.9,0.8-1.7,1.7-1.9c1.2-0.2,2.4-0.2,3.6,0
			c1.1,0.1,1.9,1.2,1.8,2.3c-0.1,1.1-0.9,1.9-2,2C66.4,79.8,65.9,79.8,65.2,79.8L65.2,79.8z"/>
		<path class="st6" d="M60.8,84.2c0,0.5,0,1,0,1.6c-0.1,1.1-0.9,1.9-2,2s-2.1-0.6-2.3-1.7c-0.3-1.2-0.3-2.5,0-3.8
			c0.2-1.1,1.2-1.8,2.2-1.7c1.1,0.1,2,0.9,2,2C60.8,83.2,60.8,83.8,60.8,84.2z"/>
		<path class="st5" d="M147.2,59.7c0,0.5,0,1,0,1.6c-0.1,1.1-1,2-2.2,2s-2.1-0.8-2.2-2c-0.1-1.1-0.1-2.2,0-3.2c0.1-1.1,1-2,2.2-2
			s2.2,0.9,2.2,2.1C147.2,58.6,147.2,59.1,147.2,59.7L147.2,59.7z"/>
		<path class="st5" d="M151.6,68.6c-0.6,0-1.1,0-1.7-0.1c-1.1-0.2-1.9-1.1-1.9-2.2c-0.1-1.1,0.7-2.1,1.8-2.2c1.2-0.1,2.3-0.1,3.5,0
			c1.1,0.1,1.9,1.1,1.9,2.2s-0.8,2-1.9,2.2C152.7,68.5,152.1,68.5,151.6,68.6L151.6,68.6z"/>
		<path class="st5" d="M147.2,73c0,0.5,0,1,0,1.4c-0.1,1.2-1,2.1-2.2,2.2c-1.2,0-2.2-0.9-2.2-2.1c-0.1-1-0.1-2.1,0-3.1
			c0.1-1.1,1-2,2.2-2s2.2,0.9,2.2,2.1C147.2,72,147.2,72.5,147.2,73L147.2,73z"/>
		<path class="st6" d="M51.8,79.9c-0.6,0-1.1,0-1.7-0.1c-1.1-0.2-1.9-1.1-1.9-2.1s0.7-1.9,1.8-2.2c1.2-0.2,2.5-0.2,3.8,0
			c1,0.2,1.8,1.1,1.8,2.1c0,1.1-0.9,2-2,2.2C53.1,79.8,52.4,79.8,51.8,79.9z"/>
		<path class="st7" d="M118,65.1c-0.1,2.8-1.1,5.5-2.8,7.7c-3.6,4.9-8,9.2-12.9,12.6c-0.3,0.3-0.7,0.3-1,0l0,0
			c-5.3-3.9-10.2-8.2-13.7-13.9c-1.7-2.8-2.6-5.7-1.6-9c1.2-4.4,5.8-7,10.2-5.8c1.3,0.4,2.4,1,3.4,1.9c1.8,1.6,2.6,1.6,4.2,0.2
			c2.7-2.4,5.7-3.1,9-1.7C116,58.5,118.1,61.6,118,65.1z"/>
		<path class="st8" d="M133.1,115.4c1.2,0,2.2,0.9,2.2,2.1l0,0c0.1,1.2-0.8,2.3-2,2.4s-2.3-0.8-2.4-2c0-0.1,0-0.2,0-0.3
			C130.9,116.4,131.9,115.4,133.1,115.4L133.1,115.4z"/>
	</g>
</g>
</svg>
