<?xml version="1.0" encoding="utf-8"?>
<!-- Generator: Adobe Illustrator 26.3.1, SVG Export Plug-In . SVG Version: 6.00 Build 0)  -->
<svg version="1.1" id="Capa_1" xmlns="http://www.w3.org/2000/svg" xmlns:xlink="http://www.w3.org/1999/xlink" x="0px" y="0px"
	 viewBox="0 0 192.6 245.4" style="enable-background:new 0 0 192.6 245.4;" xml:space="preserve">
<style type="text/css">
	.st0{fill:#FFFFFF;}
	.st1{fill:#0072C8;}
	.st2{fill:#B4B691;}
	.st3{fill:#030303;}
	.st4{fill:#090909;}
	.st5{fill:#020202;}
	.st6{fill:#FD5159;}
	.st7{fill:#8DD5E8;}
	.st8{fill:#AADCE9;}
	.st9{fill:#84657C;}
	.st10{fill:#FCF1C5;}
	.st11{fill:#F64F57;}
	.st12{fill:#F1B17E;}
	.st13{fill:#76576E;}
	.st14{fill:#795A72;}
	.st15{fill:#F0E5BB;}
	.st16{fill:#F9EEC2;}
</style>
<g id="Capa_2_00000125593967952706427830000009793929562525187995_">
	<g id="Capa_1-2">
		<path class="st0" d="M7.6,164.5h177.3c4.2,0,7.6,3.4,7.6,7.6v65.7c0,4.2-3.4,7.6-7.6,7.6H7.6c-4.2,0-7.6-3.4-7.6-7.6v-65.7
			C0,167.9,3.4,164.5,7.6,164.5z"/>
		<path d="M49.4,192.1c1,0,2.1,0.4,2.8,1.1c1.5,1.4,2.3,3.5,2.3,6.5c0.2,2.6-0.8,5.1-2.5,7c-0.8,0.8-1.9,1.3-3,1.4
			c-1.4,0.1-2.7-0.5-3.5-1.6c-0.8-1-1.4-2.2-1.8-3.5c-0.3-1.2-0.5-2.5-0.5-3.7c-0.1-1.8,0.4-3.5,1.5-5
			C45.7,192.9,47.5,192,49.4,192.1z M49.2,194.1c-1.9-0.2-3.6,1.1-4,3c-0.2,0.7-0.3,1.4-0.2,2.1c0,1,0.2,2,0.5,2.9
			c0.3,1.2,0.9,2.4,1.9,3.2c0.5,0.4,1.1,0.6,1.8,0.6s1.4-0.4,1.9-0.9c0.6-0.7,1-1.5,1.2-2.4c0.2-1,0.3-2,0.3-2.9
			c0.1-1.4-0.2-2.8-0.8-4.1C51.3,194.6,50.3,194.1,49.2,194.1L49.2,194.1z"/>
		<path d="M59.3,204.5v2.5c0,0.3-0.1,0.6-0.4,0.8c-0.2,0.2-0.5,0.3-0.8,0.4c-0.4,0-0.6-0.3-0.7-0.9c0-0.1-0.1-1.3-0.2-3.5
			c-0.1-1.8-0.3-3.5-0.7-5.2c-0.1-0.4-0.2-0.7-0.2-1.1c0-0.5,0.3-0.8,1-0.8c0.3,0,0.5,0.1,0.7,0.3c0.1,0.2,0.3,0.4,0.3,0.6
			c0,0.2,0.1,0.5,0.1,0.9s0.1,0.6,0.1,0.7c0.3-0.7,0.8-1.4,1.5-1.8c0.7-0.4,1.4-0.6,2.2-0.6c1.3,0,2,0.3,2,1c0,0.3-0.1,0.6-0.3,0.8
			s-0.5,0.3-0.8,0.3c-1.1-0.1-2.2,0.4-2.9,1.3C59.5,201.6,59.2,203.1,59.3,204.5z"/>
		<path d="M72.1,196.9c0.7,0,1,0.6,1,1.8v0.4v1.7c0,0.5,0,1,0,1.6l0.4,5.4c0,0.4-0.4,0.6-1.2,0.6H72c-0.2,0-0.3-0.1-0.4-0.2
			c-0.1-0.2-0.1-0.4,0-0.5c0-0.2,0-0.5-0.1-0.7c-0.8,0.8-1.8,1.2-3,1.2c-2.2,0-3.4-1.7-3.4-5.2c-0.1-1.5,0.3-3.1,1.1-4.4
			c0.7-1,1.9-1.5,3.1-1.4c0.7,0,1.3,0.1,1.9,0.3C71.4,197,71.8,196.9,72.1,196.9z M69.6,199c-0.7-0.1-1.5,0.2-2,0.8
			c-0.5,0.9-0.8,1.9-0.7,2.9c0,2.4,0.6,3.5,1.9,3.5c0.4,0,0.8-0.2,1.1-0.5c0.4-0.2,0.7-0.6,0.8-1c0.3-0.9,0.5-1.9,0.4-2.8
			c0.1-0.8-0.1-1.5-0.4-2.2C70.7,199.3,70.2,199,69.6,199L69.6,199z"/>
		<path d="M75.3,199.5c0.5-0.8,1.3-1.5,2.2-2c0.8-0.4,1.7-0.6,2.6-0.6c0.7,0,1.4,0.1,2,0.3c0.5,0.2,0.8,0.5,0.8,0.8
			c0,0.4-0.1,0.7-0.3,1c-0.1,0.3-0.4,0.5-0.7,0.5c-0.3-0.1-0.6-0.1-0.9-0.3c-0.3-0.1-0.7-0.2-1-0.3c-0.9,0-1.8,0.3-2.4,1
			c-0.7,0.7-1,1.7-1,2.7c-0.1,0.9,0.1,1.7,0.5,2.5c0.4,0.6,1.1,0.9,1.8,0.8c0.6-0.1,1.2-0.3,1.8-0.6c0.5-0.3,1-0.5,1.6-0.6
			c0.2,0,0.4,0.1,0.5,0.2c0.1,0.1,0.2,0.3,0.2,0.5c-0.1,0.5-0.3,0.9-0.7,1.2c-0.5,0.4-1.1,0.8-1.8,1c-0.6,0.3-1.3,0.4-1.9,0.4
			c-1.2,0-2.3-0.5-3-1.5c-0.8-1.2-1.2-2.7-1.1-4.1C74.5,201.3,74.8,200.4,75.3,199.5z"/>
		<path d="M85.7,192.9c0.3,0,0.6,0.2,0.8,0.4c0.2,0.2,0.4,0.5,0.4,0.9c0,0.3-0.2,0.7-0.4,0.9c-0.2,0.3-0.5,0.4-0.9,0.5
			c-0.3,0-0.6-0.1-0.8-0.4c-0.3-0.3-0.4-0.6-0.4-1C84.4,193.4,84.8,193,85.7,192.9L85.7,192.9z M86.7,205.4v1.7
			c0,0.3-0.1,0.6-0.4,0.8c-0.2,0.2-0.5,0.3-0.8,0.3s-0.6-0.2-0.6-0.5v-0.1c-0.2-5.1-0.3-7.9-0.3-8.4s0-1.2,0.1-2
			c0-0.3,0.2-0.4,0.6-0.4c0.8,0,1.3,0.3,1.4,1c0,0.3,0.1,0.6,0.1,0.8l-0.1,1.5L86.7,205.4z"/>
		<path d="M93.7,196.9c1.2,0,2.2,0.6,2.8,1.6c0.8,1.2,1.2,2.6,1.1,3.9c0,1.4-0.4,2.8-1.1,3.9c-1.1,1.7-3.3,2.1-5,1
			c-0.4-0.3-0.8-0.6-1-1c-0.8-1.1-1.2-2.4-1.2-3.7c-0.1-1.5,0.3-2.9,1-4.1C91,197.5,92.3,196.8,93.7,196.9z M93.4,198.9
			c-0.7,0-1.3,0.4-1.7,1c-0.4,0.7-0.6,1.4-0.7,2.2c-0.1,1,0.2,1.9,0.7,2.8c0.3,0.6,1,0.9,1.6,0.9c0.9,0.1,1.8-0.5,2.1-1.4
			c0.1-0.5,0.2-1.1,0.2-1.7C95.7,200.2,94.9,198.9,93.4,198.9L93.4,198.9z M93.5,192.2c0.1-0.3,0.3-0.4,0.6-0.4
			c0.3,0,0.5,0.1,0.7,0.3c0.1,0.1,0.2,0.3,0.3,0.5c0,0.1,0,0.2,0,0.3c-0.3,0.7-0.7,1.4-1.3,2c-0.6,0.6-1.1,0.9-1.4,0.9
			s-0.5-0.1-0.7-0.2c-0.2-0.1-0.2-0.4-0.2-0.6c0-0.2,0.2-0.5,0.4-0.6C92.6,193.9,93.2,193.1,93.5,192.2L93.5,192.2z"/>
		<path d="M100,207.3l-0.3-9.7c0-0.3,0.1-0.5,0.3-0.7c0.2-0.2,0.4-0.3,0.6-0.3c0.4-0.1,0.8,0.2,0.9,0.6c0.1,0.4,0.1,0.9,0.1,1.3
			c0.7-1.1,1.9-1.7,3.2-1.7c2,0,3,2.3,3,6.8v1.9c0,0.6,0,1.2-0.2,1.8c-0.1,0.5-0.5,0.8-1,0.7c-0.4,0-0.6-0.2-0.6-0.8v-1.3
			c0-1.3,0-2.5-0.2-3.8c-0.1-0.7-0.2-1.2-0.3-1.6c-0.3-0.9-0.7-1.3-1.3-1.3c-0.7-0.1-1.3,0.3-1.7,0.9c-0.4,0.7-0.6,1.4-0.6,2.2
			c-0.1,1.5-0.2,3.1-0.2,4.7c0,0.3-0.1,0.6-0.4,0.8c-0.2,0.2-0.5,0.3-0.9,0.3C100.2,208,100,207.8,100,207.3z"/>
		<path d="M122,196.9c0.7,0,1.1,0.6,1.1,1.8v0.4l-0.1,1.7c0,0.5,0,1,0,1.6l0.4,5.4c0,0.4-0.4,0.6-1.2,0.6h-0.3
			c-0.2,0-0.3-0.1-0.4-0.2c-0.1-0.2-0.1-0.4,0-0.5c0-0.2,0-0.5-0.1-0.7c-0.8,0.8-1.8,1.2-2.9,1.2c-2.2,0-3.4-1.7-3.4-5.2
			c-0.1-1.5,0.3-3.1,1.1-4.4c0.7-1,1.9-1.5,3.1-1.5c0.7,0,1.3,0.1,1.9,0.3C121.4,197,121.7,196.9,122,196.9z M119.5,199
			c-0.7-0.1-1.5,0.2-2,0.8c-0.5,0.9-0.8,1.9-0.7,2.9c0,2.4,0.6,3.5,1.9,3.5c0.4,0,0.8-0.2,1.1-0.5c0.4-0.2,0.7-0.6,0.8-1
			c0.3-0.9,0.5-1.9,0.4-2.8c0.1-0.8-0.1-1.5-0.4-2.2C120.6,199.3,120,199,119.5,199L119.5,199z"/>
		<path d="M130.1,192.6c0-0.4,0.1-0.8,0.3-1.2c0.2-0.2,0.4-0.3,0.7-0.3c0.7,0,1,0.3,1,0.8s0,1.6-0.1,3.4s-0.1,3.4-0.1,4.9
			c0,1.2,0,2.3,0.2,3.5c0.2,1.5,0.5,2.3,0.8,2.3s0.6-0.2,0.8-0.7c0.1-0.2,0.2-0.4,0.4-0.5c0.2-0.2,0.4-0.2,0.7-0.2
			c0.6,0,0.8,0.5,0.8,1.4c0,0.6-0.3,1.2-0.8,1.5c-0.4,0.4-1,0.7-1.6,0.8c-0.4,0-0.9-0.1-1.3-0.3c-0.3-0.2-0.6-0.5-0.8-0.8
			s-0.3-0.7-0.5-1.1c-0.1-0.4-0.2-0.8-0.2-1.2c-0.1-0.8-0.2-2.1-0.2-3.8s-0.1-3.4-0.1-5S130.1,193.2,130.1,192.6z"/>
		<path d="M143.2,196.9c0.7,0,1.1,0.6,1.1,1.8v0.4l-0.1,1.7c0,0.5,0,1,0,1.6l0.4,5.4c0,0.4-0.4,0.6-1.2,0.6H143
			c-0.2,0-0.3-0.1-0.4-0.2c-0.1-0.2-0.1-0.4,0-0.5c0-0.2,0-0.5-0.1-0.7c-0.8,0.8-1.8,1.2-2.9,1.2c-2.2,0-3.4-1.7-3.4-5.2
			c-0.1-1.5,0.3-3.1,1.1-4.4c0.7-1,1.9-1.5,3.1-1.5c0.7,0,1.3,0.1,1.9,0.3C142.6,197,142.9,196.9,143.2,196.9z M140.7,199
			c-0.7-0.1-1.5,0.2-2,0.8c-0.5,0.9-0.8,1.9-0.7,2.9c0,2.4,0.6,3.5,1.9,3.5c0.4,0,0.8-0.2,1.1-0.5c0.4-0.2,0.7-0.6,0.9-1
			c0.3-0.9,0.5-1.9,0.4-2.8c0.1-0.8-0.1-1.5-0.4-2.2C141.7,199.3,141.2,199,140.7,199L140.7,199z"/>
		<path d="M28,217.8c0.9,0,1.8,0.2,2.6,0.5c0.7,0.4,1.1,0.8,1.1,1.3c0,0.2-0.1,0.4-0.2,0.6c-0.1,0.2-0.3,0.3-0.5,0.3
			c-0.5-0.1-1-0.3-1.5-0.5c-0.6-0.3-1.4-0.5-2.1-0.5s-1.4,0.2-2,0.6c-0.6,0.3-1,0.8-1,1.5c0,0.8,0.5,1.5,1.2,1.7
			c0.8,0.3,1.7,0.6,2.6,0.7c1,0.2,2,0.6,2.8,1.3c0.8,0.8,1.2,1.9,1.1,3c0.1,1.7-0.5,3.4-1.8,4.5c-0.8,0.6-1.9,0.9-2.9,0.8
			c-1.3,0-2.6-0.4-3.7-1c-0.8-0.4-1.2-0.9-1.2-1.3c0-0.2,0.1-0.4,0.2-0.5c0.2-0.2,0.3-0.4,0.6-0.5c0.2-0.1,0.4-0.1,0.6-0.1
			c0.2,0.1,0.5,0.2,1,0.5s0.8,0.4,1,0.4c0.6,0.2,1.2,0.4,1.9,0.4c0.7,0,1.3-0.4,1.7-0.9c0.5-0.6,0.8-1.3,0.8-2.1
			c0-1.1-0.6-2-1.7-2.3c-0.6-0.2-1.2-0.4-1.8-0.5c-1.2-0.1-2.3-0.6-3.2-1.3c-0.8-0.7-1.2-1.7-1.1-2.7c0-1.2,0.6-2.2,1.5-2.9
			C25.3,218.1,26.7,217.8,28,217.8z"/>
		<path d="M40.2,222.4c0.7,0,1,0.6,1,1.8v0.4v1.7c0,0.5,0,1,0,1.6l0.4,5.4c0,0.4-0.4,0.6-1.2,0.6H40c-0.2,0-0.3-0.1-0.4-0.2
			c-0.1-0.2-0.1-0.4,0-0.5c0.1-0.2,0-0.5-0.1-0.7c-0.8,0.8-1.8,1.2-2.9,1.2c-2.2,0-3.4-1.7-3.4-5.2c-0.1-1.5,0.3-3.1,1.1-4.4
			c0.7-1,1.9-1.5,3.1-1.5c0.7,0,1.3,0.1,1.9,0.3C39.6,222.6,39.9,222.4,40.2,222.4z M37.7,224.6c-0.8,0-1.5,0.2-2,0.8
			c-0.5,0.9-0.8,1.9-0.7,2.9c0,2.4,0.6,3.5,1.9,3.5c0.4,0,0.8-0.2,1.1-0.4c0.4-0.3,0.7-0.6,0.8-1c0.3-0.9,0.5-1.9,0.5-2.8
			c0-0.8-0.1-1.5-0.4-2.2C38.8,224.9,38.3,224.6,37.7,224.6z"/>
		<path d="M43.8,232.9l-0.3-9.7c0-0.3,0.1-0.5,0.3-0.7s0.4-0.3,0.6-0.3c0.5,0,0.8,0.2,0.9,0.6c0.1,0.4,0.1,0.9,0.1,1.3
			c0.7-1.1,1.9-1.7,3.2-1.7c2,0,3,2.3,3,6.8v1.9c0,0.6,0,1.2-0.1,1.8c-0.1,0.5-0.5,0.8-1,0.7c-0.4,0-0.6-0.3-0.6-0.8v-1.3
			c0-1.3,0-2.5-0.2-3.8c-0.1-0.7-0.2-1.2-0.3-1.6c-0.3-0.9-0.7-1.3-1.3-1.3c-0.7-0.1-1.3,0.3-1.7,0.9c-0.4,0.7-0.6,1.4-0.6,2.2
			c-0.1,1.5-0.2,3-0.2,4.7c0,0.3-0.1,0.6-0.4,0.8c-0.2,0.2-0.5,0.3-0.9,0.3C44,233.6,43.8,233.4,43.8,232.9z"/>
		<path d="M54.3,222.4h1.2c0.2,0,0.3,0,0.5,0v-4.9c0-0.3,0.2-0.5,0.4-0.7s0.5-0.3,0.7-0.3s0.4,0.1,0.5,0.2c0.1,0.2,0.2,0.4,0.2,0.7
			s0,2,0,5l2.8-0.1c0.5,0,0.7,0.3,0.7,0.8c0,0.4-0.1,0.7-0.4,0.9c-0.2,0.2-0.5,0.3-0.8,0.3s-0.5,0-0.8,0h-1.5c0,0.7,0.1,2,0.2,3.9
			c0.1,1.9,0.2,3.2,0.3,3.7c0.1,0.4,0.1,0.7,0,1.1c0,0.1-0.1,0.3-0.3,0.4c-0.3,0.1-0.5,0.2-0.8,0.1c-0.3,0-0.6-0.2-0.6-0.6l0,0
			c-0.4-2.9-0.6-5.7-0.7-8.6c-0.1,0-0.7,0-1.6,0s-1.4-0.3-1.4-0.9C53,222.8,53.4,222.4,54.3,222.4z"/>
		<path d="M63.6,217.7c0.1-0.3,0.3-0.4,0.6-0.4c0.3,0,0.5,0.1,0.7,0.3c0.1,0.1,0.2,0.3,0.3,0.5c0,0.1,0,0.2,0,0.3
			c-0.3,0.7-0.7,1.4-1.3,2c-0.6,0.6-1.1,1-1.4,1c-0.3,0-0.5-0.1-0.7-0.2c-0.2-0.1-0.2-0.4-0.2-0.6c0-0.3,0.2-0.5,0.4-0.6
			C62.8,219.4,63.3,218.6,63.6,217.7z M64.5,231v1.7c0,0.3-0.1,0.6-0.4,0.8c-0.2,0.2-0.5,0.3-0.8,0.3s-0.6-0.2-0.6-0.5v-0.1
			c-0.2-5.1-0.3-7.9-0.3-8.4s0-1.2,0.1-2c0-0.3,0.2-0.4,0.5-0.4c0.8,0,1.3,0.3,1.4,1c0,0.3,0.1,0.6,0.1,0.8l-0.1,1.5L64.5,231z"/>
		<path d="M68.7,223.2c0.6-0.5,1.5-0.8,2.3-0.8c0.9,0,1.7,0.2,2.5,0.5s1.2,0.7,1.2,1.3c0,0.3-0.1,0.5-0.3,0.6
			c-0.2,0.1-0.3,0.2-0.5,0.2h-0.4c-0.3-0.1-0.7-0.3-1-0.4c-0.5-0.3-1-0.4-1.5-0.4c-0.4,0-0.8,0.1-1.2,0.4c-0.3,0.2-0.5,0.6-0.5,1
			s0.2,0.8,0.6,1.1c0.6,0.3,1.3,0.6,2,0.7c0.8,0.1,1.5,0.4,2.2,0.8c0.6,0.4,0.8,1.2,0.8,1.9c0.1,1-0.3,2.1-1,2.8
			c-0.7,0.6-1.6,0.8-2.5,0.8s-1.7-0.1-2.5-0.4c-0.7-0.3-1-0.7-1-1.2c-0.1-0.4,0.2-0.9,0.7-0.9c0.1,0,0.2,0,0.2,0
			c0.3,0.1,0.7,0.2,1,0.3c0.5,0.2,1.1,0.3,1.6,0.3s0.9-0.2,1.2-0.5c0.3-0.3,0.4-0.7,0.4-1.2c0-0.4-0.2-0.8-0.6-1
			c-0.5-0.2-1.1-0.4-1.7-0.5s-1.1-0.2-1.7-0.4c-1-0.4-1.6-1.5-1.4-2.6C67.7,224.6,68,223.8,68.7,223.2z"/>
		<path d="M78,218.5c0.3,0,0.6,0.2,0.8,0.4c0.2,0.2,0.4,0.5,0.4,0.8s-0.2,0.7-0.4,0.9c-0.2,0.3-0.5,0.4-0.9,0.4
			c-0.3,0-0.6-0.1-0.8-0.4c-0.3-0.3-0.4-0.6-0.4-1C76.7,219,77.1,218.5,78,218.5L78,218.5z M79,231v1.7c0,0.3-0.1,0.6-0.4,0.8
			c-0.2,0.2-0.5,0.3-0.8,0.3s-0.6-0.2-0.6-0.5v-0.1c-0.2-5.1-0.3-7.9-0.3-8.4s0-1.2,0.1-2c0-0.3,0.2-0.4,0.5-0.4
			c0.8,0,1.3,0.3,1.4,1c0,0.3,0.1,0.6,0.1,0.8l-0.1,1.5L79,231z"/>
		<path d="M83.2,233.6c-0.4,0-0.7-0.3-0.7-0.7l0,0c0-2.9-0.2-5.8-0.6-8.6c0-0.3,0.1-0.6,0.3-0.9c0.2-0.2,0.5-0.4,0.8-0.4
			s0.6,0.2,0.7,0.5c0.5-0.8,1.4-1.2,2.3-1.2c1.2,0,2.4,0.7,2.9,1.8c0.7-1.1,1.9-1.7,3.2-1.7c1.2-0.1,2.4,0.5,3,1.6
			c0.5,0.8,0.8,1.7,0.9,2.6c0.2,1.5,0.3,3,0.3,4.5c0,0.6-0.1,1.2-0.3,1.8c-0.2,0.4-0.6,0.7-1,0.6c-0.4,0-0.6-0.3-0.6-0.8l0.1-3
			c0-3.6-0.9-5.4-2.8-5.4c-0.5,0-1,0.2-1.2,0.6c-0.3,0.5-0.4,1-0.5,1.6c-0.1,1-0.1,1.8-0.1,2.6v3.5c0,0.3-0.2,0.5-0.4,0.6
			c-0.2,0.2-0.5,0.3-0.8,0.3s-0.6-0.2-0.7-0.7V228c0-1.8-0.3-2.8-0.9-3.3c-0.4-0.2-0.8-0.3-1.3-0.3s-1,0.2-1.3,0.6
			c-0.3,0.6-0.5,1.4-0.4,2.1l0.1,4.4C84.3,232.9,83.9,233.6,83.2,233.6z"/>
		<path d="M104.7,222.4c0.7,0,1.1,0.6,1.1,1.8v0.4l-0.1,1.7c0,0.5,0,1,0,1.6l0.3,5.4c0,0.4-0.4,0.6-1.2,0.6h-0.3
			c-0.2,0-0.3-0.1-0.4-0.2c-0.1-0.2-0.1-0.4,0-0.5c0.1-0.2,0-0.5-0.1-0.7c-0.8,0.8-1.8,1.2-2.9,1.2c-2.2,0-3.4-1.7-3.4-5.2
			c-0.1-1.5,0.2-3.1,1-4.4c0.7-1,1.9-1.5,3.1-1.5c0.7,0,1.3,0.1,1.9,0.3C104,222.6,104.4,222.4,104.7,222.4z M102.2,224.6
			c-0.8,0-1.5,0.2-2,0.8c-0.5,0.9-0.8,1.9-0.7,2.9c0,2.4,0.6,3.5,1.9,3.5c0.4,0,0.8-0.2,1.1-0.4c0.4-0.3,0.7-0.6,0.8-1
			c0.3-0.9,0.5-1.9,0.5-2.8c0-0.8-0.1-1.5-0.4-2.2C103.3,224.9,102.8,224.6,102.2,224.6z"/>
		<path d="M119,233.1c-0.7-1.9-1.3-3.7-2-5.3s-1.6-3.6-2.7-6l-0.7-1.6c-0.1-0.2-0.2-0.4-0.2-0.7s0.2-0.5,0.4-0.7
			c0.2-0.2,0.5-0.4,0.8-0.4s0.6,0.2,0.8,0.4l1.2,2.6c1.6,3.7,2.8,6.4,3.4,8.1l0.4-1.7c0.3-1.5,0.7-2.9,1.1-4.3
			c1.1-3.9,2.1-5.9,3.2-5.9c0.2,0,0.4,0.1,0.5,0.2c0.1,0.1,0.2,0.3,0.2,0.4c0,0.3-0.1,0.6-0.3,0.8c-0.3,0.6-0.6,1.3-0.8,2
			c-0.3,1-0.5,1.5-0.6,1.7s-0.4,1.5-1.1,4s-1.3,4.5-1.8,5.9c-0.1,0.3-0.2,0.5-0.5,0.6c-0.2,0.2-0.5,0.3-0.8,0.2
			C119.4,233.7,119.2,233.5,119,233.1z"/>
		<path d="M127.9,218.5c0.3,0,0.6,0.2,0.8,0.4s0.4,0.5,0.4,0.8s-0.2,0.7-0.4,0.9c-0.2,0.3-0.5,0.4-0.9,0.4c-0.3,0-0.6-0.1-0.8-0.4
			c-0.3-0.3-0.4-0.6-0.4-1C126.6,219,127,218.5,127.9,218.5L127.9,218.5z M128.9,231v1.7c0,0.3-0.1,0.6-0.4,0.8
			c-0.2,0.2-0.5,0.3-0.8,0.3s-0.6-0.2-0.6-0.5v-0.1c-0.2-5.1-0.3-7.9-0.3-8.4s0-1.2,0.1-2c0-0.3,0.2-0.4,0.6-0.4
			c0.8,0,1.3,0.3,1.4,1c0,0.3,0.1,0.6,0.1,0.8l-0.1,1.5V231z"/>
		<path d="M134.7,230.1v2.5c0,0.3-0.2,0.6-0.4,0.8s-0.5,0.3-0.8,0.4c-0.4,0-0.6-0.3-0.7-0.9c0-0.1-0.1-1.3-0.2-3.5
			c-0.1-1.7-0.3-3.5-0.6-5.2c-0.1-0.4-0.2-0.7-0.2-1.1c0-0.5,0.3-0.8,1-0.8c0.3,0,0.5,0.1,0.6,0.3c0.2,0.2,0.3,0.4,0.3,0.6
			c0,0.2,0.1,0.5,0.1,0.9s0,0.6,0.1,0.7c0.3-0.7,0.8-1.4,1.5-1.8c0.7-0.4,1.4-0.6,2.2-0.6c1.3,0,2,0.3,2,1c0,0.3-0.1,0.6-0.3,0.8
			s-0.5,0.3-0.8,0.3c-1.1-0.1-2.2,0.4-2.9,1.3C135,227.1,134.7,228.6,134.7,230.1z"/>
		<path d="M147.7,232.6c-0.5,0.6-1.3,1-2.2,1c-0.8,0-1.6-0.3-2.3-0.8c-1.4-1.2-2.1-2.9-2-4.8c-0.1-1.5,0.4-2.9,1.4-4
			c0.9-1,2.1-1.5,3.4-1.5c1.1-0.1,2.2,0.4,2.8,1.4c0.5,1.2,0.7,2.4,0.6,3.7l-0.1,2c0,0.9,0,2.2,0.1,3.8s0.1,2.9,0.1,3.7
			c0.1,1.1-0.3,2.2-1,3c-0.9,0.7-2,1.1-3.1,1c-0.9,0-1.7-0.2-2.5-0.5c-0.9-0.4-1.3-0.8-1.3-1.2c0-0.3,0.1-0.6,0.3-0.8
			s0.4-0.3,0.6-0.3c0.6,0.1,1.1,0.3,1.6,0.5c0.6,0.3,1.2,0.5,1.8,0.5c1.1,0,1.7-0.9,1.7-2.8S147.8,233.3,147.7,232.6z M147.7,227.6
			c0.1-0.8-0.1-1.7-0.5-2.4c-0.4-0.5-1-0.8-1.6-0.7c-0.7,0-1.4,0.4-1.8,1c-0.5,0.8-0.7,1.7-0.7,2.6c0,0.9,0.2,1.7,0.6,2.4
			c0.4,0.6,1.2,1,1.9,0.9c0.8,0.1,1.5-0.4,1.7-1.1C147.6,229.3,147.7,228.5,147.7,227.6L147.7,227.6z"/>
		<path d="M154.9,222.5c0.9,0,1.7,0.3,2.4,0.7s1.1,1.1,1.1,1.8c0,0.8-0.4,1.5-0.9,2.1c-0.7,0.7-1.5,1.1-2.5,1.2
			c-0.7,0.1-1.3,0.1-2,0.1c0,1,0.4,1.9,1,2.7c0.2,0.2,0.4,0.3,0.6,0.3c0.9,0,1.8-0.3,2.5-0.9c0.7-0.6,1.1-0.9,1.4-0.9
			c0.1,0,0.3,0.1,0.6,0.4c0.2,0.2,0.3,0.4,0.4,0.7c0,0.4-0.5,1-1.5,1.8c-0.5,0.4-1,0.7-1.6,0.9s-1.1,0.4-1.8,0.4
			c-1.4,0-2.4-0.9-3.1-2.7c-0.4-1.2-0.6-2.4-0.6-3.6c0-1.2,0.3-2.4,1-3.4C152.6,223,153.7,222.5,154.9,222.5z M155,224.2
			c-0.7,0-1.2,0.4-1.6,1c-0.2,0.5-0.4,1.1-0.4,1.6c2.2,0,3.3-0.6,3.3-1.6C156.4,224.5,155.9,224.2,155,224.2L155,224.2z"/>
		<path d="M161.9,232.9l-0.3-9.7c0-0.3,0.1-0.5,0.3-0.7s0.4-0.3,0.6-0.3c0.5,0,0.8,0.2,0.9,0.6c0.1,0.4,0.1,0.9,0.1,1.3
			c0.7-1.1,1.9-1.7,3.2-1.7c2,0,3,2.3,3,6.8v1.9c0,0.6,0,1.2-0.1,1.8c-0.1,0.5-0.5,0.8-1,0.7c-0.4,0-0.6-0.3-0.6-0.8v-1.3
			c0-1.3,0-2.5-0.2-3.8c-0.1-0.5-0.2-1.1-0.3-1.6c-0.3-0.9-0.7-1.3-1.3-1.3c-0.7-0.1-1.3,0.3-1.7,0.9c-0.4,0.7-0.6,1.4-0.6,2.2
			c-0.1,1.5-0.2,3-0.2,4.7c0,0.3-0.1,0.6-0.4,0.8c-0.2,0.2-0.5,0.3-0.9,0.3C162.1,233.6,161.9,233.4,161.9,232.9z"/>
		<path class="st1" d="M18.3,3.5h156c8,0,14.5,6.5,14.5,14.5v156c0,8-6.5,14.5-14.5,14.5h-156c-8,0-14.5-6.5-14.5-14.5V18
			C3.8,10,10.3,3.5,18.3,3.5z"/>
		<path class="st0" d="M174.3,7c6.1,0,11,4.9,11,11v156c0,6.1-4.9,11-11,11h-156c-6.1,0-11-4.9-11-11V18c0-6.1,4.9-11,11-11H174.3
			 M174.3,0h-156c-9.9,0-18,8.1-18,18v156c0,9.9,8.1,18,18,18h156c9.9,0,18-8.1,18-18V18C192.3,8.1,184.2,0,174.3,0z"/>
		<path class="st0" d="M54.3,24.5c0,1.6-1.4,3.7-4.3,6.4c-3.2,3.1-5,5.1-5.5,6.2l1.2,0.5c3.6-0.1,7.1,0.6,10.3,2.1
			c3.6,1.8,5.4,4.5,5.4,8.2c0,3.3-1.4,6.5-4.1,9.6c-2.3,2.7-5.2,4.9-8.3,6.6c-4.8,2.6-10.2,4-15.7,4c-4.5,0-7.8-0.4-9.6-1.2
			c-3.3-1.4-5-3-5-4.9c0-0.9,0.4-1.8,1.1-2.3s1.5-0.8,2.4-0.7c0.5,0,1,0.1,1.5,0.2c4.3,2.9,8.2,4.3,11.5,4.3
			c2.7-0.1,5.3-0.9,7.7-2.2c2.4-1.2,4.7-2.7,6.8-4.5c1.1-1.1,2.1-2.3,2.8-3.7c0.8-1.3,1.3-2.8,1.4-4.4c-0.1-1.4-0.7-2.7-1.8-3.6
			c-1-1-2.4-1.6-3.8-1.7c-2.4,0.1-4.8,0.5-7.1,1.2s-4.7,1.1-7.1,1.2c-0.8,0-1.7-0.1-2.4-0.4l-0.5-1.8c0.8-1.9,2-3.5,3.6-4.9
			c2.8-2.5,4.2-3.9,4.4-4.1c0.8-0.9,1.7-2,2.7-3.3v-0.8l-1.3-0.3c-0.9,0.3-3.5,0.9-7.7,1.7c-2.5,0.6-5.1,1-7.6,1.2
			c-1.3,0-2.6-0.3-3.7-1s-1.8-1.9-1.8-3.2c0-1.3,0.9-2.7,2.6-4c2.3-0.5,4.6-0.8,7-1c4.2-0.3,6.6-0.5,7.1-0.6s2.6-0.4,6.3-1
			c2.1-0.4,4.2-0.7,6.3-0.7C52.6,21.8,54.3,22.7,54.3,24.5z"/>
		<path class="st2" d="M92.2,72L92.2,72L92.2,72z"/>
		<path class="st2" d="M92.2,72L92.2,72L92.2,72z"/>
		<path class="st2" d="M92.4,71.9"/>
		<path class="st2" d="M92.3,71.7L92.3,71.7z"/>
		<path class="st2" d="M92.3,71.6L92.3,71.6z"/>
		<path class="st2" d="M92.4,71.9L92.4,71.9z"/>
		<path class="st2" d="M92.2,72"/>
		<path class="st2" d="M92.4,72L92.4,72L92.4,72z"/>
		<path class="st2" d="M92.4,72L92.4,72L92.4,72z"/>
		<path class="st2" d="M92.3,72L92.3,72z"/>
		<path class="st2" d="M92.4,71.9L92.4,71.9z"/>
		<path class="st2" d="M91.8,72.2"/>
		<path class="st2" d="M91.8,72.1L91.8,72.1L91.8,72.1z"/>
		<path class="st2" d="M92.2,71.5"/>
		<path class="st2" d="M91.7,71.9l0.2,0.1L91.7,71.9z"/>
		<path class="st2" d="M92.2,72L92.2,72z"/>
		<path class="st2" d="M91.9,72L91.9,72L91.9,72z"/>
		<path class="st2" d="M91.8,71.8L91.8,71.8z"/>
		<path class="st2" d="M92.2,71.6L92.2,71.6z"/>
		<path class="st2" d="M91.9,71.8L91.9,71.8C91.9,71.8,91.8,71.8,91.9,71.8z"/>
		<polygon class="st2" points="91.8,71.8 91.9,71.8 91.9,71.8 		"/>
		<path class="st2" d="M91.8,72.3L91.8,72.3z"/>
		<path class="st2" d="M92.2,72"/>
		<path class="st2" d="M92.6,72L92.6,72z"/>
		<path class="st2" d="M92.4,72.3L92.4,72.3z"/>
		<path class="st2" d="M92.6,72L92.6,72z"/>
		<path class="st2" d="M91.8,72.3"/>
		<path class="st2" d="M91.8,72.3L91.8,72.3L91.8,72.3L91.8,72.3L91.8,72.3L91.8,72.3L91.8,72.3L91.8,72.3L91.8,72.3L91.8,72.3
			L91.8,72.3L91.8,72.3L91.8,72.3C91.8,72.2,91.8,72.3,91.8,72.3L91.8,72.3L91.8,72.3L91.8,72.3L91.8,72.3
			C91.8,72.3,91.8,72.4,91.8,72.3C91.9,72.3,91.8,72.3,91.8,72.3L91.8,72.3L91.8,72.3L91.8,72.3L91.8,72.3L91.8,72.3L91.8,72.3v0.2
			c0,0,0,0,0,0.1l0,0l0,0c0,0,0,0,0-0.1v0.1c0,0,0.1-0.1,0,0l0,0c0,0,0.1-0.1,0-0.1l0,0c0,0,0,0-0.1,0.1l0.1-0.1l-0.1,0.1l0,0
			l0.6-0.2h-0.1h0.1h-0.1h0.1l0,0h-0.1h0.1h-0.1h0.1c-0.1,0,0.1,0,0,0h-0.1c0.1,0,0.1,0,0,0h0.1l0,0h-0.2h0.1h-0.1h0.2l0,0h0.1
			c-0.1,0,0.1,0,0,0l0,0l0,0h-0.1h0.1h-0.1h0.1h-0.1h-0.1h0.1c-0.1-0.1,0.3,0,0.1,0l0,0h-0.1h0.1c-0.1-0.1,0,0-0.1,0
			c0.3,0.1,0,0,0.2,0h-0.1l0,0h-0.1c-0.1,0,0.1,0,0.2,0s-0.3-0.1-0.2-0.1h0.1c-0.1,0,0,0-0.1-0.1h0.1c0.1,0,0,0-0.1,0h0.1
			c0,0-0.1,0,0,0l0,0h-0.1c0,0-0.1,0,0,0c-0.1,0,0,0-0.1,0c0.2,0,0.1,0,0,0h0.1h-0.1c0.2,0-0.1,0,0.1,0h-0.1L92,72.6v-0.1
			c0,0.1,0,0.1,0,0.2v-0.1c0-0.1,0-0.2,0-0.2v0.2v-0.1l0,0c0,0,0-0.2,0-0.1s0,0,0,0l0,0l0,0l0,0l0,0l0,0v-0.1V72l0,0c0,0,0-0.1,0,0
			v0.1l0,0l0,0l0,0l0,0l0,0l0,0l0,0l0,0l0,0l0,0l0,0c0,0,0.1,0,0,0h-0.1c0.1,0,0,0,0.1,0l0,0l0,0l0,0l0,0c0,0,0,0,0,0.1l0,0l0,0l0,0
			l0,0l0,0l0,0l0,0l0,0l0,0l0,0l0,0l0,0l0,0l0,0l0,0l0,0l0,0l0,0l0,0l0,0l0,0h0.1l0,0h0.1l0,0l0,0l0,0l0,0l0,0l0,0l0,0h0.1l0,0
			c0,0,0,0,0.1,0s0,0-0.1,0l0,0c0,0,0,0-0.1,0l0,0l0,0l0,0l0,0c0,0,0,0,0-0.1l0,0l0,0c0,0,0-0.1,0,0s0-0.1,0-0.1l0,0l0,0v-0.1
			c0-0.1-0.1,0.1,0,0c0,0,0,0,0,0.1v-0.1V72v0.1c0,0,0-0.1,0-0.2l0,0c0,0,0,0,0-0.1l0,0c0,0,0,0,0-0.1c0,0,0,0,0,0.1l0,0
			c0,0,0,0,0,0.1V72v-0.1v-0.1c0,0.1,0,0,0-0.1l0,0l0,0l0,0v0.2c0,0,0,0,0-0.1s0-0.1,0-0.1l0,0l0,0c0-0.1,0,0.1,0,0.1v-0.1v0.1l0,0
			l0,0c0,0,0,0,0,0.1l0,0c0,0.1,0-0.1,0,0v-0.1c0,0.1,0-0.1,0,0V72l0,0v0.1c0-0.1,0,0.1,0,0v-0.2c0-0.1,0,0.1,0,0V72l0,0L92,72.2
			l0,0h-0.1H92h-0.1H92h-0.2l0,0c0,0,0.1,0,0,0h0.1l0,0H92c-0.2,0,0,0-0.2,0l0,0l0,0c0,0,0.2,0.1,0.1,0h-0.1c-0.2-0.1,0,0-0.1,0l0,0
			h0.1l0,0l0.2,0.1L91.8,72.3l0.2-0.1L91.8,72.3L91.8,72.3C91.7,72.2,91.9,72.2,91.8,72.3L91.8,72.3L91.8,72.3L91.8,72.3
			C92,72.3,91.8,72.3,91.8,72.3L91.8,72.3L92,72l-0.2-0.1h0.1l0,0L92,72c-0.3-0.1-0.1,0-0.3-0.1c0.1,0,0,0,0,0l0.2,0.1l0,0h-0.1
			h-0.1h-0.1c0.1,0,0.1,0,0.1,0h0.1c0.1,0-0.2,0-0.1,0h-0.1c0,0,0,0,0.2,0.1h-0.1c0,0,0.2,0.1,0.1,0h-0.1c0,0,0.1,0,0,0l0,0
			c-0.1,0,0.1,0.1,0.2,0.1h-0.2l0,0L91.8,72.3C91.7,72.3,91.8,72.3,91.8,72.3L91.8,72.3C91.9,72.3,92,72.3,91.8,72.3L91.8,72.3
			L91.8,72.3l0.2,0C91.8,72.3,92.1,72.3,91.8,72.3L91.8,72.3l0.7-0.2l0,0l0,0l0.1-0.1l0,0l0,0l-0.2,0.2l0.1-0.1c0,0,0-0.1,0,0l0,0
			c0,0,0-0.1-0.1,0c0.1-0.1,0,0,0,0V72l-0.1,0.1l0,0l0,0l0,0l0,0c0,0,0,0,0-0.1H92l0,0c0,0,0,0.1,0,0l0,0l0,0l0.1-0.1
			c0,0,0,0.1-0.1,0.1l0,0l0,0l0,0l0,0l0,0l0,0v0.1l0.1-0.2c0,0,0,0-0.1,0.1l0,0l0,0v0.1c0,0,0-0.1,0,0l0,0c0-0.1-0.1,0.2,0,0l0,0
			l0,0l0,0l0,0l0,0l0,0l0,0l0,0l0,0l0,0l0,0l0,0l0,0l0,0V72v0.1V72v0.1c0-0.1,0,0,0,0s0,0.1,0,0L91.8,72.3z M91.8,72.3L91.8,72.3
			L91.8,72.3z M92,71.9L92,71.9L92,71.9z"/>
		<polygon class="st2" points="92,72 92,72 92,72 		"/>
		<path class="st2" d="M92.4,71.9L92.4,71.9L92.4,71.9z"/>
		<path class="st2" d="M92.4,72.3L92.4,72.3L92.4,72.3z"/>
		<path class="st2" d="M92.2,71.9"/>
		<path class="st2" d="M92.2,71.9L92.2,71.9z"/>
		<path class="st2" d="M92.2,71.9L92.2,71.9L92.2,71.9z"/>
		<path class="st2" d="M92.2,72.2L92.2,72.2z"/>
		<path class="st2" d="M92.2,72L92.2,72z"/>
		<path class="st2" d="M92.6,72L92.6,72L92.6,72z"/>
		<path class="st2" d="M92.2,72"/>
		<path class="st2" d="M92.2,72L92.2,72L92.2,72z"/>
		<path class="st2" d="M92.2,72"/>
		<path class="st2" d="M92.2,72"/>
		<path class="st2" d="M92.2,72"/>
		<path class="st2" d="M92.2,72L92.2,72L92.2,72z"/>
		<path class="st2" d="M92.3,72L92.3,72L92.3,72L92.3,72z"/>
		<path class="st2" d="M92.3,72L92.3,72z"/>
		<path class="st2" d="M92.4,71.8L92.4,71.8z"/>
		<path class="st2" d="M92.2,72L92.2,72L92.2,72z"/>
		<polygon class="st2" points="92.4,71.6 92.4,71.6 92.3,71.6 		"/>
		<path class="st2" d="M91.8,71.8L91.8,71.8L91.8,71.8z"/>
		<path class="st2" d="M91.8,71.9L91.8,71.9C91.8,71.9,91.9,71.9,91.8,71.9z"/>
		<path class="st2" d="M91.7,72.1L91.7,72.1L91.7,72.1z"/>
		<path class="st3" d="M120,35.5c0.8,0.3,1.7,0.5,2.5,0.6c15.3,3.2,25.2,18.3,21.9,33.7c-1,4.7-3.2,9.1-6.3,12.7
			c-1.2,1.4-0.5,3-0.2,4.5c0.3,1,0.7,2,1.3,2.9c2.5,4.8,4.6,9.7,5,15.2c0.1,1.8,0.2,3.5,0.2,5.2c0,9.1,0,18.2,0,27.3
			c0.1,3.6-1.3,7.1-4,9.6c-0.2,0.2-0.7,0.3-0.3,0.8c1.3,1.5,1.1,3.3,1,5c0,0.7,0.1,1.1,1,1.1c3.3,0.3,4.8,2,4.8,5.3v4.9
			c0,1.9-0.6,2.5-2.5,2.5H89.2c-2.2,0-2.8-0.6-2.8-2.8v-4.6c0-3.3,1.5-5,4.8-5.3c0.8-0.1,1-0.3,1-1.1c0-1.8-0.3-3.7,1.2-5.2
			c0.3-0.4-0.1-0.5-0.3-0.7c-2.8-2.6-4.4-6.2-4.2-10.1c0.1-8.7,0.2-17.4,0-26.2c-0.2-7.2,1.6-14.4,5.2-20.7c1.1-1.7,1.7-3.6,1.8-5.7
			c0-0.7-0.2-1.5-0.7-2C84.8,70.9,85.8,53,97.5,42.7c4.3-3.8,9.6-6.2,15.3-6.9c0.2,0,0.5,0.1,0.6-0.3H120z M132.3,158.1
			c-0.5,0-1-0.1-1.5-0.1c-5.1,0-10.3,0-15.4,0c-1.5,0-2.1-0.6-2.1-2s0.8-1.9,2.4-1.9c3.6,0,7.2,0,10.8-0.1h8.5c2.7,0,2.7,0,2.5-2.7
			v-0.1c0-0.7-0.4-1.1-1.1-1.1h-9.9c-0.5,0-1,0-1.5,0H98.7c-2.9,0-2.6-0.4-2.7,2.7c0,0.9,0.2,1.3,1.2,1.2c2.2-0.1,4.4,0,6.5,0
			c0.9-0.1,1.7,0.4,2,1.2c0.3,0.7,0.2,1.5-0.3,2.1s-1.3,0.8-2.1,0.7c-3.9,0-7.9,0-11.8,0c-1,0-1.4,0.3-1.3,1.3
			c0.1,0.8,0.1,1.5,0,2.3c-0.1,1,0.2,1.4,1.3,1.4c8.5-0.1,16.9,0,25.4,0h15.4c2.4,0,4.8,0.1,7.2,0c1.2,0,2.8,0.6,3.4-0.3
			s0.2-2.3,0.2-3.5c0-0.1,0-0.2,0-0.3c0.1-0.5-0.2-0.9-0.6-1c-0.1,0-0.2,0-0.4,0C138.9,158,135.6,157.8,132.3,158.1L132.3,158.1z
			 M117.2,56h2.8c6.2,0,9.7,3.5,9.7,9.7c0,10.1,0,20.2,0,30.3c0,1.5-0.4,3.1,0.2,4.3s2.2,1.8,3.4,2.6s1.6,1.9,0.9,2.9
			s-1.8,1.1-3,0.3c-1.6-1.1-3.2-2.2-4.9-3.4c0,1.3-0.4,2.6-1.2,3.7c-0.6,0.7-0.3,1,0.3,1.3c2.7,1.8,5.3,3.7,8,5.6
			c0.9,0.5,1.2,1.6,0.6,2.5c0,0.1-0.1,0.1-0.1,0.2c-0.6,0.9-1.8,1.1-2.6,0.5c0,0-0.1,0-0.1-0.1c-0.4-0.2-0.7-0.7-1.3-0.7
			c-0.1,0.1-0.1,0.2-0.1,0.4c0,6,0,12,0,17.9c0,0.6,0.3,0.9,0.8,1.1c2.3,1,3.9,3.3,4,5.8c0.1,1.4,0.1,2.7,0,4.1c0,1,0.3,0.9,1,0.7
			c3.2-1.2,5.2-4.4,5.1-7.8c0-9.4,0-18.8,0-28.2c0-1.5-0.1-3.1-0.2-4.6c-0.4-5.1-2.5-9.6-4.9-14c-0.6-1.1-1.1-2.3-1.5-3.5
			c-0.5-2.2-0.6-4.5-0.4-6.7c0.1-4.7,0.1-9.4,0.1-14.1c0.1-2.2-0.3-4.4-1.1-6.4c-0.6-1-0.3-2.3,0.7-2.9l0,0c1.7-0.4,2.2-0.1,2.9,1.5
			c0.7,1.7,1.1,3.5,1.3,5.3c0.3,3.5,0.1,7,0.1,10.5c0,0.4,0.1,0.8,0.1,1.3c6.2-9.9,4.1-23.3-5.5-31.3c-10.1-8.3-24.9-7.3-33.7,2.2
			c-9,9.5-7.6,22.9-2.7,29.6v-1.4c0-3.3,0-6.7,0-10c0.1-3.2,1-6.4,2.7-9.1c5.9-9.7,19.5-12.8,29.7-6.7c1.6,1,1.7,1.4,1.1,3.1
			c-1,1-1.9,0.9-3.1,0.2c-4.4-2.7-9.8-3.3-14.8-1.8c-0.3,0.1-0.6,0.1-0.9,0.2c-6.9,2.3-10.8,7.8-10.9,15.4c0,5.2-0.1,10.5,0,15.8
			c0.2,3.4-0.6,6.8-2.4,9.8c-3.2,5.7-4.8,12.1-4.6,18.6c0.2,8.8,0,17.7,0,26.5c0,0.9,0.1,1.9,0.3,2.8c0.8,3,3.6,5.6,6.1,5.8
			c0-1.6,0-3.2,0-4.7c-0.1-2.6,1.4-4.9,3.7-6c0.6-0.2,1-0.8,0.9-1.4c0-5.7,0-11.4,0-17.2c0-0.3,0.2-0.6-0.3-0.8
			c-0.4,0.2-0.8,0.5-1.2,0.8c-0.8,0.6-2,0.4-2.6-0.5l0,0c-0.6-0.8-0.5-1.9,0.2-2.5c0.1-0.1,0.2-0.1,0.3-0.2c2.9-2.1,5.8-4.1,8.7-6.2
			c-1.1-1.2-1.7-2.8-1.8-4.4c-1.8,1.2-3.4,2.4-5,3.5c-0.8,0.7-2,0.6-2.6-0.2c-0.1-0.1-0.1-0.2-0.2-0.2c-0.6-0.8-0.5-1.9,0.3-2.5
			c0.1-0.1,0.2-0.1,0.3-0.2c1-0.7,1.9-1.4,2.9-2c0.6-0.3,0.9-0.9,0.8-1.6c-0.1-1.9,0-3.8,0-5.8c0-9.4,0.1-18.8,0-28.2
			c-0.1-5.8,4.2-9.8,9.5-9.5C114.5,56.1,115.9,56,117.2,56z M116.9,146.4c4.2,0,8.5,0,12.7,0c0.8,0,1.2-0.1,1.1-1
			c-0.1-1.3,0-2.6,0-3.8c0-1.5-1.1-2.8-2.6-3c-1.9-0.4-2.2-0.7-2.2-2.8c0-6.5-0.2-13,0.1-19.5c0.2-2.2-0.9-4.4-2.8-5.5
			c-1.9-1.3-4.2-1.9-6.1-3.1c-0.1-0.1-0.3-0.1-0.5,0c-1.4,1.1-3.3,1-4.7,2.3c-1,0.9-2.1,1.6-3.2,2.3c-0.7,0.4-1.1,1.1-1,1.9
			c0,7.2,0,14.4,0,21.6c0,1.9-0.4,2.3-2.2,2.7c-1.5,0.1-2.6,1.4-2.4,2.9v0.1c0,1.2,0.1,2.4,0,3.6s0.2,1.4,1.4,1.4
			C108.6,146.3,112.7,146.4,116.9,146.4z M116.7,65.7c-2,2.7-5.1,4.5-8.4,5c-0.5,0.1-0.7,0.3-0.7,0.8c-0.1,2.4,0.5,4.9,1.7,7
			c1.6,2.7,4.5,4.4,7.7,4.2c3.1,0.1,6-1.7,7.3-4.6c1-2,1.5-4.3,1.5-6.5c0-0.8-0.4-0.8-0.9-0.9C121.6,70.2,118.7,68.4,116.7,65.7z
			 M107.7,97.6c0.9-0.1,1.1-0.7,1.2-1.3c0.4-1.5,0.7-3.1,1.2-4.6c0.6-2.3,3-3.6,5.3-3c0.2,0.1,0.4,0.1,0.6,0.2
			c0.4,0.2,0.9,0.2,1.3,0c2.2-1,4.7,0,5.7,2.1c0.1,0.3,0.2,0.6,0.3,0.9c0.4,1.4,0.7,2.8,1.1,4.2c0.1,0.7,0.6,1.2,1.3,1.4V83.1
			c-6,4.7-12,4.7-18,0V97.6z M116.8,59.9c-1.4,0-2.7,0-4.1,0c-4,0.1-5.4,3-5,6.6c0.1,0.7,0.6,0.4,0.9,0.3c1.9-0.4,3.6-1.5,4.8-3
			c2.2-2.7,4.6-2.7,6.9,0c1.2,1.5,2.9,2.6,4.8,3c0.3,0.1,0.7,0.3,0.9-0.4c0.7-2.8-0.9-5.6-3.7-6.4c-0.5-0.1-0.9-0.2-1.4-0.2
			L116.8,59.9z M114.8,98.2v-4.9c0-0.4,0-0.9-0.4-0.9s-0.6,0.4-0.7,0.8c-0.8,3.1-1.6,6.2-2.4,9.4c-0.3,1.4,0.2,2.3,1.5,2.4
			s2-0.6,2-2S114.8,99.7,114.8,98.2L114.8,98.2z M122.2,103c-0.9-3.3-1.8-6.8-2.7-10.2c0-0.3-0.3-0.5-0.6-0.4
			c-0.3,0-0.4,0.3-0.4,0.6c0,3.5,0,7.1,0.1,10.6c0,1,1,1.4,2,1.3S122.2,104.1,122.2,103L122.2,103z"/>
		<path class="st4" d="M70.3,62.6c0.6,0,1.2,0.2,1.7,0.7c4.5,4.5,9,9,13.5,13.5c0.8,0.7,0.9,1.9,0.2,2.7c-0.1,0.1-0.1,0.2-0.2,0.2
			c-0.7,0.7-1.9,0.7-2.6,0l-0.1-0.1c-4.5-4.5-9-9-13.5-13.6c-0.7-0.5-0.9-1.4-0.5-2.2C68.9,63.1,69.6,62.7,70.3,62.6z"/>
		<path class="st5" d="M70.4,90.9c-3.1,0-6.2,0-9.3,0c-1.5,0-2.3-0.8-2.3-2s0.9-1.8,2.3-1.9c6.3,0,12.5,0,18.8,0
			c1.4,0,2.2,0.7,2.2,1.9s-0.8,1.9-2.2,1.9C76.7,91,73.5,90.9,70.4,90.9z"/>
		<path class="st5" d="M163.1,90.9c-3.1,0-6.2,0-9.3,0c-1.5,0-2.4-0.7-2.4-1.9s0.9-1.9,2.4-2c6.2,0,12.4,0,18.7,0
			c1.5,0,2.3,0.7,2.3,2s-0.8,1.8-2.2,1.9C169.3,91,166.2,90.9,163.1,90.9z"/>
		<path class="st3" d="M165,64.8c0,0.4-0.4,0.8-0.8,1.3c-4.5,4.5-8.9,8.9-13.4,13.4c-0.6,0.8-1.8,1-2.6,0.4
			c-0.1-0.1-0.2-0.2-0.3-0.3c-0.8-0.9-0.8-1.8,0.2-2.8c4.5-4.5,9-9,13.5-13.5c0.5-0.7,1.4-0.9,2.2-0.5
			C164.6,63.1,165.1,63.9,165,64.8z"/>
		<path class="st6" d="M116.9,146.4c-4.2,0-8.3-0.1-12.4,0c-1.2,0-1.4-0.3-1.4-1.4s0-2.4,0-3.6c-0.2-1.5,0.9-2.8,2.3-2.9h0.1
			c1.8-0.4,2.2-0.8,2.2-2.7c0-7.2,0-14.4,0-21.7c-0.1-0.8,0.3-1.5,1-1.9c1.1-0.7,2.2-1.4,3.2-2.3c1.3-1.2,3.3-1.2,4.7-2.3
			c0.1-0.1,0.3-0.1,0.5,0c2,1.2,4.2,1.8,6.1,3.1c2,1.1,3.1,3.2,2.8,5.5c-0.2,6.5-0.1,13-0.1,19.5c0,2,0.3,2.4,2.2,2.8
			c1.5,0.2,2.6,1.5,2.6,3c0.1,1.3,0,2.6,0,3.8c0.1,0.9-0.3,1-1.1,1C125.3,146.3,121.1,146.4,116.9,146.4z"/>
		<path class="st7" d="M111.4,51.1c4.9-1.5,10.3-0.9,14.8,1.8c1.2,0.7,2.1,0.8,3.1-0.2c1.7,1.3,3.1,3,4.1,4.9
			c-1,0.6-1.3,1.9-0.8,2.9l0,0c0.8,2,1.2,4.2,1.1,6.4c0,4.7,0.1,9.4-0.1,14.1c-0.2,2.2-0.1,4.5,0.4,6.7c0.4,1.2,0.9,2.4,1.5,3.5
			c2.4,4.4,4.4,9,4.9,14c0.1,1.5,0.2,3.1,0.2,4.6c0,9.4,0,18.8,0,28.2c0.1,3.4-1.9,6.5-5.1,7.8c-0.7,0.3-1.1,0.3-1-0.7
			c0.1-1.4,0.1-2.7,0-4.1c-0.1-2.6-1.7-4.8-4-5.8c-0.5-0.2-0.8-0.4-0.8-1.1c0-6,0-12,0-17.9c0-0.1,0-0.3,0.1-0.4
			c0.6,0,0.9,0.5,1.3,0.7c0.8,0.6,2,0.4,2.7-0.4c0,0,0-0.1,0.1-0.1c0.6-0.8,0.5-1.9-0.3-2.6c-0.1,0-0.1-0.1-0.2-0.1
			c-2.7-1.9-5.3-3.8-8-5.6c-0.6-0.4-0.9-0.7-0.3-1.3c0.7-1.1,1.1-2.4,1.2-3.7c1.7,1.2,3.3,2.3,4.9,3.4c1.2,0.8,2.3,0.7,3-0.3
			s0.4-2-0.9-2.9s-2.8-1.5-3.4-2.6s-0.2-2.8-0.2-4.3c0-10.1,0-20.2,0-30.3c0-6.2-3.5-9.7-9.7-9.7h-2.8
			C115.8,53.8,113.8,52.1,111.4,51.1z"/>
		<path class="st8" d="M111.4,51.1c2.4,1,4.4,2.7,5.8,4.9c-1.3,0-2.7,0.1-4,0c-5.3-0.3-9.6,3.7-9.5,9.5c0.2,9.4,0,18.8,0,28.2
			c0,1.9,0,3.8,0,5.8c0.1,0.6-0.3,1.3-0.8,1.6c-1,0.6-2,1.3-2.9,2c-0.9,0.4-1.2,1.5-0.8,2.4c0.1,0.1,0.1,0.2,0.2,0.3
			c0.5,0.9,1.7,1.2,2.6,0.6c0.1,0,0.2-0.1,0.2-0.2c1.6-1.1,3.2-2.2,5-3.5c0,1.6,0.7,3.2,1.8,4.4c-3,2.1-5.9,4.1-8.7,6.2
			c-0.9,0.5-1.1,1.6-0.7,2.4c0.1,0.1,0.1,0.2,0.2,0.3c0.6,0.9,1.7,1.1,2.6,0.5l0,0c0.4-0.2,0.8-0.5,1.2-0.8c0.4,0.2,0.3,0.5,0.3,0.8
			c0,5.7,0,11.4,0,17.2c0.1,0.6-0.3,1.2-0.9,1.4c-2.3,1.1-3.8,3.4-3.7,6c0,1.6,0,3.2,0,4.7c-2.5-0.2-5.3-2.8-6.1-5.8
			c-0.2-0.9-0.3-1.9-0.3-2.8c0-8.9,0.1-17.7,0-26.5c-0.2-6.5,1.4-13,4.6-18.6c1.7-3,2.5-6.4,2.4-9.8c-0.2-5.3-0.1-10.5,0-15.8
			c0.1-7.5,4-13,10.9-15.4C110.9,51.2,111.2,51.2,111.4,51.1z"/>
		<path class="st9" d="M132.3,163H117c-8.5,0-16.9,0-25.4,0c-1.1,0-1.4-0.3-1.3-1.4c0.1-0.8,0.1-1.5,0-2.3c-0.1-1,0.3-1.4,1.3-1.3
			c3.9,0,7.9,0,11.8,0c0.8,0.1,1.6-0.1,2.1-0.7c0.5-0.6,0.6-1.4,0.3-2.1c-0.3-0.8-1.1-1.3-2-1.2c-2.2,0-4.4-0.1-6.5,0
			c-1,0-1.2-0.3-1.2-1.2c0.1-3.1-0.3-2.7,2.7-2.7H125c0.5,0,1,0,1.5,0v3.8c-3.6,0-7.2,0-10.8,0.1c-1.6,0-2.3,0.6-2.4,1.9
			s0.6,2,2.1,2c5.1,0,10.3,0,15.4,0c0.5,0,1,0.1,1.5,0.1C132.3,159.7,132.3,161.3,132.3,163z"/>
		<path class="st10" d="M116.7,65.7c2,2.7,4.9,4.5,8.2,5c0.5,0.1,1,0.2,0.9,0.9c0,2.3-0.5,4.5-1.5,6.5c-1.3,2.8-4.2,4.6-7.3,4.6
			c-3.1,0.2-6.1-1.4-7.7-4.1c-1.2-2.1-1.8-4.6-1.7-7c0-0.5,0.1-0.8,0.7-0.8C111.7,70.3,114.7,68.5,116.7,65.7z"/>
		<path class="st11" d="M107.7,97.6V83.2c6,4.7,12,4.7,18,0v14.3c-0.7-0.1-1.2-0.7-1.3-1.4c-0.3-1.4-0.7-2.8-1.1-4.2
			c-0.5-2.3-2.7-3.8-5.1-3.4c-0.3,0.1-0.6,0.2-0.9,0.3c-0.4,0.2-0.9,0.2-1.3,0c-2.2-1-4.7,0-5.7,2.2c-0.1,0.2-0.2,0.4-0.2,0.6
			c-0.4,1.5-0.8,3.1-1.2,4.6C108.8,96.8,108.6,97.4,107.7,97.6z"/>
		<path class="st12" d="M116.8,59.9h4c2.9,0,5.2,2.2,5.3,5.1c0,0.5-0.1,1-0.2,1.4c-0.2,0.6-0.5,0.4-0.9,0.4
			c-1.9-0.4-3.6-1.4-4.8-2.9c-2.3-2.8-4.6-2.8-6.9,0c-1.2,1.5-2.9,2.6-4.8,3c-0.3,0.1-0.8,0.4-0.9-0.3c-0.4-3.6,1-6.5,5-6.6
			C114,59.9,115.4,59.9,116.8,59.9z"/>
		<path class="st13" d="M132.3,163c0-1.6,0-3.3,0-4.9c3.3-0.3,6.6-0.1,9.9-0.1c0.5-0.1,0.9,0.2,1,0.7c0,0.1,0,0.2,0,0.4
			c0,0.1,0,0.2,0,0.3c0,1.2,0.4,2.7-0.2,3.5s-2.2,0.2-3.4,0.3C137.1,163,134.7,163,132.3,163z"/>
		<path class="st14" d="M126.4,154.1v-3.8h9.9c0.8,0,1.1,0.3,1.1,1.1v0.1c0.2,2.7,0.2,2.7-2.5,2.7L126.4,154.1z"/>
		<path class="st15" d="M114.8,98.2c0,1.6,0,3.2,0,4.7s-0.8,2.2-2,2s-1.8-1-1.5-2.4c0.8-3.1,1.6-6.2,2.4-9.4
			c0.1-0.3,0.2-0.9,0.7-0.8s0.4,0.6,0.4,0.9V98.2z"/>
		<path class="st16" d="M122.3,103c-0.1,1.1-0.6,1.8-1.5,1.9s-2-0.3-2-1.3c-0.1-3.5-0.1-7.1-0.1-10.6c0-0.3,0.1-0.6,0.4-0.6
			s0.5,0.2,0.6,0.4C120.5,96.2,121.4,99.7,122.3,103z"/>
	</g>
</g>
</svg>
