<?xml version="1.0" encoding="utf-8"?>
<!-- Generator: Adobe Illustrator 26.3.1, SVG Export Plug-In . SVG Version: 6.00 Build 0)  -->
<svg version="1.1" id="Capa_1" xmlns="http://www.w3.org/2000/svg" xmlns:xlink="http://www.w3.org/1999/xlink" x="0px" y="0px"
	 viewBox="0 0 192.1 192.1" style="enable-background:new 0 0 192.1 192.1;" xml:space="preserve">
<style type="text/css">
	.st0{fill:#0072C8;}
	.st1{fill:#FFFFFF;}
	.st2{fill:#B4B691;}
	.st3{fill:#030303;}
	.st4{fill:#090909;}
	.st5{fill:#020202;}
	.st6{fill:#FD5159;}
	.st7{fill:#8DD5E8;}
	.st8{fill:#AADCE9;}
	.st9{fill:#84657C;}
	.st10{fill:#FCF1C5;}
	.st11{fill:#F64F57;}
	.st12{fill:#F1B17E;}
	.st13{fill:#76576E;}
	.st14{fill:#795A72;}
	.st15{fill:#F0E5BB;}
	.st16{fill:#F9EEC2;}
</style>
<g id="Capa_2_00000067233186055671569910000014653206363197041069_">
	<g id="Capa_1-2">
		<path class="st0" d="M18,3.5h156c8,0,14.5,6.5,14.5,14.5v156c0,8-6.5,14.5-14.5,14.5H18c-8,0-14.5-6.5-14.5-14.5V18
			C3.5,10,10,3.5,18,3.5z"/>
		<path class="st1" d="M174,7c6.1,0,11,4.9,11,11v156c0,6.1-4.9,11-11,11H18c-6.1,0-11-4.9-11-11V18c0-6.1,4.9-11,11-11H174 M174,0
			H18C8.1,0,0,8.1,0,18v156c0,9.9,8.1,18,18,18h156c9.9,0,18-8.1,18-18V18C192,8.1,183.9,0,174,0z"/>
		<path class="st1" d="M54.1,24.5c0,1.6-1.4,3.7-4.3,6.4c-3.2,3.1-5,5.2-5.5,6.2l1.2,0.5c3.6-0.1,7.1,0.6,10.3,2.1
			c3.6,1.8,5.4,4.5,5.4,8.2c0,3.3-1.4,6.5-4.1,9.6c-2.3,2.7-5.2,4.9-8.3,6.5c-4.8,2.6-10.2,4-15.7,4c-4.5,0-7.8-0.4-9.6-1.2
			c-3.3-1.4-5-3.1-5-4.9c0-0.9,0.4-1.8,1.1-2.3c0.7-0.5,1.5-0.8,2.4-0.7c0.5,0,1,0.1,1.5,0.2c4.3,2.9,8.2,4.3,11.5,4.3
			c2.7-0.1,5.3-0.9,7.7-2.2c2.4-1.2,4.7-2.7,6.8-4.5c1.1-1.1,2.1-2.3,2.8-3.7c0.8-1.3,1.3-2.8,1.4-4.4c-0.1-1.4-0.7-2.7-1.8-3.6
			c-1-1-2.4-1.6-3.8-1.7c-2.4,0.1-4.8,0.5-7.1,1.2c-2.3,0.7-4.7,1-7.1,1.2c-0.8,0-1.6-0.1-2.4-0.4L31,43.5c0.8-1.9,2-3.5,3.6-4.9
			c2.7-2.5,4.2-3.9,4.4-4.1c0.8-0.9,1.7-2,2.7-3.3v-0.8l-1.3-0.3c-0.9,0.3-3.5,0.9-7.7,1.7c-2.5,0.6-5.1,1-7.6,1.2
			c-1.3,0-2.6-0.3-3.7-1c-1.1-0.7-1.8-1.9-1.8-3.1c0-1.3,0.9-2.7,2.6-4c2.3-0.5,4.6-0.8,7-1c4.2-0.3,6.6-0.5,7.1-0.6
			c0.5-0.1,2.6-0.4,6.3-1c2.1-0.4,4.2-0.7,6.3-0.7C52.3,21.7,54.1,22.7,54.1,24.5z"/>
		<polygon class="st2" points="92,72 92,72 92,72 		"/>
		<path class="st2" d="M92,72L92,72L92,72z"/>
		<path class="st2" d="M92.1,71.9L92.1,71.9z"/>
		<path class="st2" d="M92,71.7L92,71.7z"/>
		<path class="st2" d="M92,71.6L92,71.6z"/>
		<path class="st2" d="M92.1,71.9L92.1,71.9C92.1,71.9,92.1,71.9,92.1,71.9z"/>
		<path class="st2" d="M92,72"/>
		<polygon class="st2" points="92.2,72 92.2,72 92.2,72 		"/>
		<path class="st2" d="M92.1,72L92.1,72L92.1,72z"/>
		<path class="st2" d="M92,72L92,72z"/>
		<path class="st2" d="M92.2,71.9L92.2,71.9z"/>
		<path class="st2" d="M91.6,72.2"/>
		<polygon class="st2" points="91.6,72.1 91.6,72.1 91.6,72.1 		"/>
		<path class="st2" d="M92,71.5"/>
		<path class="st2" d="M91.4,71.9h0.2H91.4z"/>
		<path class="st2" d="M92,72L92,72z"/>
		<polygon class="st2" points="91.6,72 91.7,72 91.7,72 		"/>
		<path class="st2" d="M91.5,71.8L91.5,71.8z"/>
		<path class="st2" d="M91.9,71.6L91.9,71.6z"/>
		<path class="st2" d="M91.6,71.8L91.6,71.8C91.6,71.8,91.6,71.8,91.6,71.8z"/>
		<polygon class="st2" points="91.6,71.8 91.6,71.8 91.6,71.8 		"/>
		<path class="st2" d="M91.6,72.3L91.6,72.3z"/>
		<path class="st2" d="M92,72"/>
		<path class="st2" d="M92.3,72L92.3,72z"/>
		<path class="st2" d="M92.1,72.3L92.1,72.3z"/>
		<path class="st2" d="M92.3,72L92.3,72z"/>
		<path class="st2" d="M91.6,72.3"/>
		<path class="st2" d="M91.6,72.3C91.6,72.3,91.6,72.3,91.6,72.3L91.6,72.3L91.6,72.3L91.6,72.3L91.6,72.3L91.6,72.3L91.6,72.3
			L91.6,72.3L91.6,72.3L91.6,72.3L91.6,72.3L91.6,72.3C91.6,72.2,91.6,72.3,91.6,72.3L91.6,72.3L91.6,72.3L91.6,72.3L91.6,72.3
			L91.6,72.3C91.6,72.4,91.6,72.3,91.6,72.3L91.6,72.3C91.6,72.4,91.6,72.3,91.6,72.3L91.6,72.3L91.6,72.3v0.1l0,0v0.1v0.1l0,0l0,0
			c0,0,0,0,0-0.1v0.1l0,0l0,0v-0.1l0,0c0,0,0,0-0.1,0.1c0.1-0.1,0,0,0.1-0.1l-0.1,0.1l0,0l0.6-0.2H92h0.1H92h0.1l0,0H92h0.1h-0.1
			h0.1c-0.1,0,0.1,0,0,0h-0.1c0.1,0,0.1,0,0,0h0.1l0,0H92h0.1H92h0.2l0,0h0.1c-0.1,0,0.1,0,0,0l0,0l0,0h-0.1h0.1H92h0.1h-0.1H92h0.1
			c-0.1-0.1,0.3,0,0.1,0l0,0h-0.1h0.1c-0.2-0.1,0,0-0.1,0c0.3,0.1,0,0,0.2,0h-0.1l0,0h-0.1c-0.1,0,0.1,0,0.2,0s-0.3-0.1-0.2-0.1h0.1
			c-0.1,0,0,0-0.1-0.1h0.1c0.1,0,0,0-0.1,0h0.1c0,0-0.1,0,0,0l0,0h-0.1l0,0c0,0,0,0-0.1,0c0.2,0,0.1,0,0,0h0.1h-0.1
			c0.2,0-0.1,0,0.1,0h-0.1l-0.3,0.3l0,0c0-0.1,0,0,0-0.1l0,0c0-0.1,0-0.2,0-0.2v0.2c0,0,0-0.1,0-0.1l0,0c0,0,0-0.2,0-0.1s0,0,0,0
			l0,0l0,0l0,0l0,0l0,0c0,0,0-0.1,0-0.1L92,72l0,0c0,0,0-0.1,0,0l0,0l0,0l0,0l0,0l0,0l0,0l0,0l0,0l0,0c-0.1,0,0.1,0,0,0l0,0l0,0l0,0
			l0,0l0,0l0,0l0,0l0,0l0,0l0,0l0,0l0,0l0,0l0,0l0,0l0,0l0,0l0,0l0,0l0,0l0,0l0,0l0,0l0,0l0,0l0,0l0,0l0,0h0.1l0,0h0.1l0,0l0,0l0,0
			l0,0l0,0l0,0h0.1l0,0l0,0c0,0,0,0,0.1,0s0,0,0,0l0,0c0,0,0,0-0.1,0l0,0l0,0l0,0c0,0,0,0-0.1,0v-0.1l0,0l0,0c0,0,0-0.1,0,0
			s0-0.1,0-0.1l0,0l0,0v-0.1c0-0.1-0.1,0.1,0,0c0,0,0,0,0,0.1c0,0,0-0.1,0-0.1c0,0,0,0.1,0,0.1c0,0,0,0.1,0,0.1c0,0,0-0.1,0-0.2l0,0
			c0,0,0,0,0-0.1l0,0c0,0,0,0,0-0.1c0,0,0,0,0,0.1l0,0c0,0,0,0,0,0.1c0,0,0,0.1,0,0.1s0-0.1,0-0.1c0,0,0-0.1,0-0.1c0,0.1,0,0,0-0.1
			l0,0l0,0v0.1l0,0c0,0,0,0.1,0,0.2s0,0,0-0.1s0-0.1,0-0.1s0,0,0,0l0,0c0-0.1,0,0.1,0,0.1c0,0,0-0.1,0-0.1c0,0,0,0.1,0,0.1s0,0,0,0
			l0,0c0,0.1,0,0,0,0.1l0,0c0,0.1,0-0.1,0,0v-0.1c0,0.1,0-0.1,0,0v0.2c0,0,0,0.1,0,0.1c0-0.1,0,0.1,0,0v-0.2c0-0.1,0,0.1,0,0v0.1
			l0,0l-0.2,0.2l0,0h-0.1h0.1h-0.1H92h-0.2l0,0c0,0,0.1,0,0,0h0.1l0,0H92c-0.2,0,0,0-0.2,0l0,0l0,0h0.1h-0.1c-0.2-0.1,0,0-0.1,0l0,0
			h0.1l0,0l0.2,0.1h-0.1H92h-0.2l0,0c-0.1,0,0,0,0,0l0,0l0.1,0.1H92h-0.1H92l-0.2-0.1h0.1l0,0h0.2c-0.3-0.1-0.1,0-0.3-0.1
			c0.1,0,0,0,0,0l0.2,0.1l0,0h-0.1h-0.1h-0.2c0.1,0,0.1,0,0.1,0h0.1c0.1,0-0.2,0-0.1,0h-0.1c0,0,0,0,0.2,0.1h-0.1c0,0,0.2,0.1,0.1,0
			h-0.1c0,0,0.1,0,0.1,0h-0.1c-0.1,0,0.1,0.1,0.2,0.1h-0.2l0,0l0.2,0.1c-0.2,0-0.1,0-0.1,0h0.1c0,0,0.1,0,0,0l0,0h-0.1h0.2
			c-0.2,0,0.1,0-0.1,0l0,0L92,72l0,0l0,0l0.1-0.1l0,0l0,0c0,0-0.2,0.2-0.2,0.2L92,72c0,0,0-0.1,0,0l0,0c0,0,0-0.1-0.1,0
			c0-0.1,0,0,0,0v-0.1L91.9,72l0,0l0,0l0,0l0,0c0,0,0,0,0-0.1V72l0,0c0,0,0,0.1,0,0l0,0l0,0c0,0,0.1-0.1,0.1-0.1L91.9,72l0,0l0,0
			l0,0v0.1l0,0l0,0v0.1l0.1-0.2c0,0-0.1,0.1-0.1,0.1l0,0l0,0c0,0,0,0,0,0.1s0-0.1,0,0l0,0c0-0.1-0.1,0.2,0,0l0,0l0,0l0,0l0,0l0,0
			l0,0l0,0l0,0l0,0l0,0l0,0l0,0l0,0l0,0l0,0l0,0l0,0v-0.1v0.1v-0.1v0.1c0-0.1,0,0,0,0s0,0.1,0,0L91.6,72.3z M91.6,72.3L91.6,72.3
			L91.6,72.3z M91.8,71.9L91.8,71.9L91.8,71.9z"/>
		<polygon class="st2" points="91.8,72 91.8,72 91.8,72 91.8,72 		"/>
		<polygon class="st2" points="92.1,71.9 92.1,71.9 92.1,71.9 		"/>
		<polygon class="st2" points="92.2,72.3 92.1,72.3 92.2,72.3 		"/>
		<path class="st2" d="M92,71.9"/>
		<path class="st2" d="M92,71.9L92,71.9z"/>
		<polygon class="st2" points="92,71.9 92,71.9 92,71.9 		"/>
		<path class="st2" d="M91.9,72.2L91.9,72.2z"/>
		<path class="st2" d="M92,72L92,72z"/>
		<polygon class="st2" points="92.3,72 92.3,72 92.3,72 		"/>
		<path class="st2" d="M91.9,72"/>
		<polygon class="st2" points="92,72 92,72 92,72 		"/>
		<path class="st2" d="M92,72"/>
		<path class="st2" d="M92,72"/>
		<path class="st2" d="M92,72"/>
		<polygon class="st2" points="92,72 92,72 92,72 		"/>
		<path class="st2" d="M92.1,72L92.1,72L92.1,72C92.1,72,92.1,72,92.1,72z"/>
		<path class="st2" d="M92.1,72L92.1,72z"/>
		<path class="st2" d="M92.1,71.8L92.1,71.8z"/>
		<polygon class="st2" points="92,72 92,72 92,72 		"/>
		<polygon class="st2" points="92.1,71.6 92.1,71.6 92.1,71.6 		"/>
		<path class="st2" d="M91.5,71.8L91.5,71.8L91.5,71.8z"/>
		<path class="st2" d="M91.6,71.9C91.6,71.9,91.5,71.9,91.6,71.9S91.6,71.9,91.6,71.9z"/>
		<polygon class="st2" points="91.4,72.1 91.4,72.1 91.4,72.1 		"/>
		<path class="st3" d="M119.8,35.5c0.8,0.3,1.7,0.5,2.5,0.6c15.3,3.2,25.2,18.3,21.9,33.6c-1,4.7-3.2,9.1-6.3,12.7
			c-1.2,1.4-0.5,3-0.2,4.5c0.3,1,0.8,2,1.4,2.9c2.5,4.8,4.6,9.7,5.1,15.2c0.1,1.8,0.2,3.5,0.2,5.2c0,9.1,0,18.2,0,27.3
			c0.2,3.6-1.3,7.1-4,9.6c-0.2,0.2-0.7,0.3-0.3,0.8c1.3,1.5,1.1,3.3,1.1,5c0,0.7,0.1,1.1,1,1.1c3.3,0.3,4.8,2,4.8,5.3
			c0,1.6,0,3.2,0,4.9c0,1.9-0.6,2.5-2.5,2.5H89c-2.2,0-2.8-0.6-2.8-2.8v-4.6c0-3.3,1.5-5,4.8-5.3c0.8-0.1,1.1-0.3,1-1.1
			c0-1.8-0.3-3.7,1.2-5.2c0.3-0.4-0.1-0.5-0.3-0.7c-2.8-2.6-4.4-6.3-4.2-10.1c0.1-8.7,0.2-17.4,0-26.2c-0.2-7.2,1.6-14.4,5.2-20.7
			c1.1-1.7,1.7-3.6,1.8-5.7c0-0.7-0.2-1.5-0.7-2c-10.4-11.6-9.4-29.5,2.3-39.9c4.3-3.8,9.6-6.2,15.3-7c0.2,0,0.5,0.1,0.6-0.3
			L119.8,35.5z M132.1,158.1c-0.5,0-1-0.1-1.5-0.1c-5.1,0-10.3,0-15.4,0c-1.5,0-2.2-0.6-2.1-2s0.8-1.9,2.4-1.9c3.6,0,7.2,0,10.8-0.1
			h8.5c2.7,0,2.7,0,2.5-2.7v-0.1c0-0.7-0.4-1.1-1.1-1.1h-9.9c-0.5,0-1,0-1.5,0H98.5c-3,0-2.6-0.4-2.7,2.7c0,0.9,0.2,1.3,1.2,1.2
			c2.2-0.1,4.4,0,6.5,0c0.9-0.1,1.7,0.4,2,1.2c0.3,0.7,0.2,1.5-0.3,2.1c-0.5,0.6-1.3,0.8-2.1,0.7c-3.9,0-7.9,0-11.8,0
			c-1,0-1.4,0.3-1.3,1.3c0.1,0.8,0.1,1.5,0,2.3c-0.1,1,0.2,1.4,1.3,1.4c8.5-0.1,16.9,0,25.4,0h15.4c2.4,0,4.8,0.1,7.2,0
			c1.2,0,2.8,0.6,3.4-0.3s0.2-2.3,0.2-3.5c0-0.1,0-0.2,0-0.3c0.1-0.5-0.2-0.9-0.7-1c-0.1,0-0.2,0-0.3,0
			C138.6,158,135.3,157.8,132.1,158.1z M117,56h2.8c6.2,0,9.7,3.5,9.7,9.7c0,10.1,0,20.2,0,30.3c0,1.5-0.4,3.1,0.2,4.3
			s2.2,1.8,3.4,2.6s1.6,1.9,0.9,2.9s-1.8,1.1-3,0.3l-4.9-3.3c0,1.3-0.4,2.6-1.2,3.7c-0.6,0.7-0.3,1,0.3,1.3c2.7,1.8,5.3,3.7,8,5.6
			c0.9,0.5,1.2,1.6,0.7,2.5c0,0.1-0.1,0.1-0.1,0.2c-0.6,0.9-1.8,1.1-2.6,0.5c0,0-0.1,0-0.1-0.1c-0.4-0.2-0.7-0.7-1.3-0.7
			c0,0.1-0.1,0.2-0.1,0.4c0,6,0,12,0,17.9c0,0.7,0.3,0.9,0.8,1.1c2.3,1,3.9,3.3,4,5.8c0.1,1.4,0.1,2.7,0,4.1c0,1,0.3,0.9,1,0.7
			c3.1-1.3,5.2-4.4,5.1-7.8c0-9.4,0-18.8,0-28.2c0-1.5-0.1-3.1-0.2-4.6c-0.4-5.1-2.5-9.6-4.9-14c-0.6-1.1-1.1-2.3-1.5-3.5
			c-0.5-2.2-0.6-4.5-0.4-6.7c0.1-4.7,0.1-9.4,0.1-14.1c0.1-2.2-0.3-4.4-1.1-6.4c-0.6-1-0.3-2.3,0.7-2.9c0,0,0,0,0,0
			c1.7-0.4,2.2-0.1,2.9,1.5c0.7,1.7,1.1,3.5,1.3,5.3c0.3,3.5,0.1,7,0.1,10.5c0,0.4,0,0.8,0.1,1.3c6.2-9.9,4.1-23.3-5.5-31.3
			c-10.1-8.3-24.9-7.3-33.7,2.2c-8.9,9.5-7.6,22.9-2.7,29.6v-1.4c0-3.3,0-6.7,0-10c0-3.2,1-6.4,2.7-9.1c5.8-9.7,19.5-12.8,29.7-6.7
			c1.6,1,1.7,1.4,1.1,3.1c-1,1-1.9,0.9-3.1,0.2c-4.4-2.7-9.8-3.3-14.8-1.8c-0.3,0.1-0.6,0.1-0.9,0.2c-6.9,2.3-10.8,7.8-10.9,15.4
			c0,5.2-0.1,10.5,0.1,15.8c0.2,3.4-0.7,6.8-2.4,9.8c-3.2,5.7-4.8,12.1-4.6,18.6c0.2,8.8,0,17.7,0,26.5c0,0.9,0.1,1.9,0.3,2.8
			c0.8,3,3.6,5.6,6.1,5.8c0-1.6,0-3.2,0-4.7c-0.1-2.6,1.4-4.9,3.7-6c0.6-0.2,1-0.8,0.9-1.4c0-5.7,0-11.4,0-17.2
			c0-0.3,0.2-0.6-0.2-0.8c-0.4,0.2-0.8,0.5-1.2,0.8c-0.8,0.6-2,0.4-2.6-0.5c0,0,0,0,0,0c-0.6-0.8-0.5-1.9,0.3-2.5
			c0.1-0.1,0.2-0.1,0.2-0.2c2.9-2.1,5.8-4.1,8.7-6.2c-1.1-1.2-1.7-2.8-1.8-4.4c-1.8,1.2-3.4,2.4-5,3.5c-0.8,0.7-1.9,0.6-2.6-0.2
			c-0.1-0.1-0.1-0.2-0.2-0.3c-0.6-0.8-0.5-1.9,0.3-2.5c0.1-0.1,0.2-0.1,0.3-0.2c1-0.7,1.9-1.4,2.9-2c0.6-0.3,0.9-0.9,0.8-1.6
			c0-1.9,0-3.8,0-5.8c0-9.4,0.1-18.8,0-28.2c-0.1-5.8,4.2-9.8,9.5-9.5C114.3,56.1,115.6,56,117,56z M116.7,146.4c4.2,0,8.5,0,12.7,0
			c0.8,0,1.2-0.1,1.1-1c-0.1-1.3,0-2.6,0-3.8c0-1.5-1.1-2.8-2.6-3c-1.9-0.4-2.2-0.7-2.2-2.8c0-6.5-0.2-13,0.1-19.5
			c0.2-2.2-0.9-4.4-2.8-5.5c-1.9-1.3-4.2-1.9-6.1-3.1c-0.1-0.1-0.3-0.1-0.5,0c-1.4,1.1-3.3,1-4.7,2.3c-1,0.9-2.1,1.6-3.2,2.3
			c-0.7,0.4-1.1,1.1-1,1.9c0,7.2,0,14.4,0,21.6c0,1.9-0.4,2.3-2.2,2.7c-1.5,0.1-2.6,1.4-2.4,2.9c0,0,0,0.1,0,0.1
			c0,1.2,0.1,2.4,0,3.6s0.2,1.4,1.4,1.4C108.3,146.3,112.5,146.4,116.7,146.4L116.7,146.4z M116.5,65.7c-2,2.7-5.1,4.5-8.4,5
			c-0.5,0.1-0.7,0.3-0.7,0.8c-0.1,2.4,0.5,4.9,1.7,7c1.6,2.7,4.6,4.3,7.7,4.1c3.1,0.1,6-1.7,7.3-4.6c1-2,1.5-4.3,1.5-6.5
			c0-0.8-0.4-0.8-0.9-0.9C121.4,70.2,118.5,68.4,116.5,65.7L116.5,65.7z M107.5,97.6c0.9-0.1,1.1-0.7,1.2-1.3
			c0.4-1.5,0.7-3.1,1.2-4.6c0.6-2.3,3-3.7,5.3-3c0.2,0.1,0.4,0.1,0.6,0.2c0.4,0.2,0.9,0.2,1.3,0c2.2-1,4.7,0,5.7,2.2
			c0.1,0.3,0.2,0.6,0.3,0.9c0.4,1.4,0.7,2.8,1.1,4.2c0.1,0.7,0.6,1.2,1.3,1.4V83.1c-6,4.7-12,4.7-18,0L107.5,97.6z M116.5,59.9
			c-1.4,0-2.7,0-4.1,0c-4,0.1-5.4,3-5,6.6c0.1,0.7,0.6,0.4,0.9,0.3c1.9-0.4,3.6-1.5,4.8-3c2.2-2.7,4.6-2.7,6.9,0
			c1.2,1.5,2.9,2.5,4.8,2.9c0.3,0.1,0.7,0.3,0.9-0.4c0.7-2.8-0.9-5.6-3.7-6.4c-0.5-0.1-0.9-0.2-1.4-0.2L116.5,59.9z M114.5,98.2
			c0-1.6,0-3.2,0-4.9c0-0.4,0-0.9-0.5-0.9s-0.6,0.4-0.7,0.8c-0.8,3.1-1.6,6.2-2.4,9.4c-0.3,1.4,0.2,2.3,1.5,2.4s2-0.6,2-2
			S114.6,99.7,114.5,98.2L114.5,98.2z M122,103c-0.9-3.3-1.8-6.8-2.7-10.2c0-0.3-0.3-0.5-0.6-0.4c-0.3,0-0.4,0.3-0.4,0.6
			c0,3.5,0,7.1,0.1,10.6c0,1,1,1.4,2,1.3S121.9,104.1,122,103z"/>
		<path class="st4" d="M70,62.6c0.6,0,1.2,0.2,1.7,0.7c4.5,4.5,9,9,13.5,13.5c0.8,0.7,0.9,1.9,0.2,2.7c-0.1,0.1-0.1,0.2-0.2,0.2
			c-0.7,0.7-1.9,0.7-2.6,0c0,0-0.1-0.1-0.1-0.1c-4.5-4.5-9-9-13.5-13.6c-0.7-0.5-0.9-1.4-0.5-2.2C68.7,63.1,69.3,62.7,70,62.6z"/>
		<path class="st5" d="M70.1,90.9c-3.1,0-6.2,0-9.3,0c-1.5,0-2.3-0.8-2.3-2s0.9-1.9,2.3-1.9c6.3,0,12.5,0,18.8,0
			c1.4,0,2.2,0.7,2.2,1.9s-0.8,1.9-2.2,1.9C76.4,91,73.3,90.9,70.1,90.9z"/>
		<path class="st5" d="M162.8,90.9c-3.1,0-6.2,0-9.3,0c-1.5,0-2.4-0.7-2.4-1.9s0.9-1.9,2.4-2c6.2,0,12.5,0,18.7,0
			c1.5,0,2.3,0.7,2.3,2s-0.8,1.8-2.2,1.9C169.1,91,165.9,90.9,162.8,90.9z"/>
		<path class="st3" d="M164.7,64.8c0,0.4-0.4,0.8-0.8,1.3c-4.5,4.5-8.9,8.9-13.4,13.4c-0.6,0.8-1.8,1-2.6,0.4
			c-0.1-0.1-0.2-0.2-0.3-0.3c-0.8-0.9-0.8-1.8,0.2-2.8c4.5-4.5,9-9,13.5-13.5c0.5-0.7,1.4-0.9,2.2-0.5
			C164.3,63.1,164.8,63.9,164.7,64.8z"/>
		<path class="st6" d="M116.6,146.4c-4.1,0-8.3-0.1-12.4,0c-1.2,0-1.4-0.3-1.4-1.4s0-2.4,0-3.6c-0.2-1.5,0.9-2.8,2.3-2.9
			c0,0,0.1,0,0.1,0c1.8-0.4,2.2-0.8,2.2-2.7c0-7.2,0-14.4,0-21.7c-0.1-0.8,0.3-1.5,1-1.9c1.1-0.7,2.2-1.4,3.2-2.3
			c1.4-1.2,3.3-1.2,4.7-2.3c0.1-0.1,0.3-0.1,0.5,0c2,1.2,4.2,1.8,6.1,3.1c2,1.1,3.1,3.2,2.8,5.5c-0.2,6.5-0.1,13-0.1,19.5
			c0,2,0.2,2.4,2.2,2.8c1.5,0.2,2.6,1.5,2.6,3c0.1,1.3,0,2.6,0,3.8c0.1,0.9-0.3,1-1.1,1C125.1,146.3,120.8,146.4,116.6,146.4z"/>
		<path class="st7" d="M111.2,51.1c5-1.5,10.3-0.9,14.8,1.8c1.2,0.7,2.1,0.8,3.1-0.2c1.7,1.3,3.1,3,4.1,4.9c-1,0.6-1.3,1.9-0.7,2.9
			c0,0,0,0,0,0c0.8,2,1.2,4.2,1.1,6.4c0,4.7,0.1,9.4-0.1,14.1c-0.2,2.2-0.1,4.5,0.4,6.7c0.4,1.2,0.9,2.4,1.5,3.5
			c2.4,4.4,4.4,9,4.9,14c0.1,1.5,0.2,3.1,0.2,4.6c0,9.4,0,18.8,0,28.2c0.1,3.4-1.9,6.5-5.1,7.8c-0.7,0.3-1.1,0.3-1-0.7
			c0.1-1.4,0.1-2.7,0-4.1c-0.1-2.6-1.7-4.8-4-5.8c-0.5-0.2-0.8-0.4-0.8-1.1c0-6,0-12,0-17.9c0-0.1,0-0.3,0.1-0.4
			c0.6,0,0.9,0.5,1.3,0.7c0.8,0.6,2,0.4,2.7-0.4c0,0,0-0.1,0.1-0.1c0.6-0.8,0.5-1.9-0.3-2.5c-0.1,0-0.1-0.1-0.2-0.1
			c-2.7-1.9-5.3-3.8-8-5.6c-0.6-0.4-0.9-0.7-0.3-1.3c0.7-1.1,1.2-2.4,1.2-3.7l4.9,3.4c1.2,0.8,2.3,0.7,3-0.3s0.4-2-0.9-2.9
			s-2.8-1.5-3.4-2.6s-0.2-2.8-0.2-4.3c0-10.1,0-20.2,0-30.3c0-6.2-3.5-9.7-9.7-9.7l-2.8,0C115.6,53.8,113.6,52.1,111.2,51.1z"/>
		<path class="st8" d="M111.2,51.1c2.4,1,4.4,2.7,5.8,4.9c-1.3,0-2.7,0.1-4,0c-5.3-0.3-9.6,3.7-9.5,9.5c0.2,9.4,0,18.8,0,28.2
			c0,1.9,0,3.8,0,5.8c0.1,0.6-0.3,1.3-0.8,1.6c-1,0.6-2,1.3-2.9,2c-0.9,0.4-1.2,1.5-0.7,2.4c0.1,0.1,0.1,0.2,0.2,0.3
			c0.5,0.9,1.7,1.2,2.5,0.7c0.1-0.1,0.2-0.1,0.3-0.2c1.6-1.1,3.2-2.2,5-3.5c0,1.6,0.6,3.2,1.8,4.4c-3,2.1-5.9,4.1-8.7,6.2
			c-0.9,0.5-1.1,1.6-0.7,2.4c0,0.1,0.1,0.2,0.2,0.2c0.6,0.9,1.7,1.1,2.6,0.5c0,0,0,0,0,0c0.4-0.2,0.8-0.5,1.2-0.8
			c0.4,0.2,0.2,0.5,0.2,0.8c0,5.7,0,11.4,0,17.2c0.1,0.6-0.3,1.2-0.9,1.4c-2.3,1.1-3.8,3.4-3.7,6c0,1.6,0,3.2,0,4.7
			c-2.5-0.2-5.3-2.8-6.1-5.8c-0.2-0.9-0.3-1.9-0.3-2.8c0-8.9,0.1-17.7,0-26.5c-0.2-6.5,1.4-13,4.6-18.6c1.7-3,2.5-6.4,2.4-9.8
			c-0.2-5.3-0.1-10.5-0.1-15.8c0.1-7.5,4-13,10.9-15.4C110.6,51.2,110.9,51.2,111.2,51.1z"/>
		<path class="st9" d="M132.1,163h-15.4c-8.5,0-16.9,0-25.4,0c-1.1,0-1.4-0.3-1.3-1.4c0.1-0.8,0.1-1.5,0-2.3c-0.1-1,0.3-1.4,1.3-1.3
			c3.9,0,7.9,0,11.8,0c0.8,0.1,1.6-0.1,2.1-0.7c0.5-0.6,0.6-1.4,0.3-2.1c-0.3-0.8-1.1-1.3-2-1.2c-2.2,0-4.4-0.1-6.5,0
			c-1,0-1.2-0.3-1.2-1.2c0.1-3.1-0.3-2.7,2.7-2.7h26.2c0.5,0,1,0,1.5,0v3.8c-3.6,0-7.2,0-10.8,0.1c-1.6,0-2.3,0.6-2.4,1.9
			s0.6,2,2.1,2c5.1,0,10.2,0,15.4,0c0.5,0,1,0.1,1.5,0.1C132.1,159.7,132.1,161.3,132.1,163z"/>
		<path class="st10" d="M116.5,65.7c2,2.7,4.9,4.5,8.2,5c0.5,0.1,1,0.2,0.9,0.9c0,2.3-0.5,4.5-1.5,6.5c-1.3,2.8-4.2,4.6-7.3,4.6
			c-3.1,0.2-6.1-1.4-7.7-4.1c-1.2-2.1-1.8-4.6-1.7-7c0-0.5,0.1-0.8,0.7-0.8C111.4,70.3,114.5,68.5,116.5,65.7z"/>
		<path class="st11" d="M107.5,97.6V83.2c6,4.7,12,4.7,18,0v14.3c-0.7-0.1-1.2-0.7-1.3-1.4c-0.3-1.4-0.7-2.8-1.1-4.2
			c-0.5-2.3-2.7-3.8-5.1-3.4c-0.3,0.1-0.6,0.2-0.9,0.3c-0.4,0.2-0.9,0.2-1.3,0c-2.2-1-4.7,0-5.7,2.2c-0.1,0.2-0.2,0.4-0.2,0.6
			c-0.4,1.5-0.8,3.1-1.2,4.6C108.5,96.8,108.3,97.4,107.5,97.6z"/>
		<path class="st12" d="M116.5,59.9h4c2.9,0,5.2,2.2,5.3,5.1c0,0.5-0.1,1-0.2,1.4c-0.2,0.6-0.5,0.4-0.9,0.4
			c-1.9-0.4-3.6-1.4-4.8-2.9c-2.3-2.8-4.6-2.8-6.9,0c-1.2,1.5-2.9,2.6-4.8,3c-0.3,0.1-0.8,0.4-0.9-0.3c-0.4-3.6,1.1-6.5,5-6.6
			C113.8,59.9,115.2,59.9,116.5,59.9z"/>
		<path class="st13" d="M132.1,163c0-1.6,0-3.3,0-4.9c3.3-0.3,6.6-0.1,9.9-0.1c0.5-0.1,0.9,0.2,1,0.7c0,0.1,0,0.2,0,0.3
			c0,0.1,0,0.2,0,0.3c0,1.2,0.4,2.7-0.2,3.5s-2.2,0.2-3.4,0.3C136.9,163,134.5,163,132.1,163z"/>
		<path class="st14" d="M126.2,154.1v-3.8h9.9c0.7,0,1.1,0.3,1.1,1.1v0.1c0.2,2.7,0.2,2.7-2.5,2.7L126.2,154.1z"/>
		<path class="st15" d="M114.6,98.2c0,1.6,0,3.2,0,4.7s-0.8,2.2-2,2s-1.8-1-1.5-2.4c0.8-3.1,1.6-6.2,2.4-9.4
			c0.1-0.3,0.2-0.9,0.7-0.8s0.5,0.6,0.5,0.9C114.6,94.9,114.6,96.5,114.6,98.2z"/>
		<path class="st16" d="M122,103c-0.1,1.1-0.6,1.8-1.6,1.9s-1.9-0.3-2-1.3c-0.1-3.5-0.1-7.1-0.1-10.6c0-0.3,0.1-0.6,0.4-0.6
			c0.3,0,0.5,0.2,0.6,0.4C120.3,96.2,121.2,99.7,122,103z"/>
	</g>
</g>
</svg>
