<?xml version="1.0" encoding="utf-8"?>
<!-- Generator: Adobe Illustrator 26.3.1, SVG Export Plug-In . SVG Version: 6.00 Build 0)  -->
<svg version="1.1" id="Capa_1" xmlns="http://www.w3.org/2000/svg" xmlns:xlink="http://www.w3.org/1999/xlink" x="0px" y="0px"
	 viewBox="0 0 192.6 246.6" style="enable-background:new 0 0 192.6 246.6;" xml:space="preserve">
<style type="text/css">
	.st0{fill:#FFFFFF;}
	.st1{fill:#AADBFF;}
	.st2{fill:#040303;}
	.st3{fill:#FCC060;}
	.st4{fill:#FADDD4;}
	.st5{fill:#EAE8EA;}
	.st6{fill:#FDC160;}
	.st7{fill:#A6C1D8;}
	.st8{fill:#FAA555;}
	.st9{fill:#F9BFAB;}
	.st10{fill:#D0D0D0;}
	.st11{fill:#F7BDA9;}
	.st12{fill:#F0AF99;}
	.st13{fill:#91AABE;}
	.st14{fill:#F8A454;}
	.st15{fill:#FDFDFD;}
	.st16{fill:#050405;}
	.st17{fill:#F68083;}
</style>
<g id="Capa_2_00000081606487580308948830000002181357112766925480_">
	<g id="Capa_1-2">
		<path class="st0" d="M7.6,165.7h177.3c4.2,0,7.6,3.4,7.6,7.6V239c0,4.2-3.4,7.6-7.6,7.6H7.6c-4.2,0-7.6-3.4-7.6-7.6v-65.7
			C0,169.1,3.4,165.7,7.6,165.7z"/>
		<path d="M55.3,217.2v-1.9l0.2-10c0-0.2,0.1-0.4,0.3-0.4c0.2-0.1,0.5-0.2,0.8-0.2c0.8,0,1.2,0.3,1.2,0.8c0,0.2-0.1,1.5-0.3,4
			s-0.3,4-0.3,4.5v2.5c0,1.2,0.1,1.9,0.2,2c0.3,0.1,0.5,0.1,0.8,0.1l3.4-0.2c0.8,0,1.1,0.3,1.1,0.8c0,0.4-0.2,0.8-0.6,1
			c-0.4,0.2-0.8,0.3-1.2,0.3s-0.9,0-1.5,0c-1.3,0.1-2.7,0-4-0.2c-0.1-0.1-0.2-0.5-0.2-1.1s0-1.1,0-1.3S55.3,217.4,55.3,217.2z"/>
		<path d="M68.7,209.4c1.2,0,2.2,0.6,2.8,1.6c0.8,1.2,1.2,2.6,1.1,4c0,1.4-0.4,2.8-1.1,3.9c-1.1,1.7-3.3,2.1-5,1
			c-0.4-0.3-0.8-0.6-1-1c-0.8-1.1-1.1-2.4-1.1-3.7c-0.1-1.5,0.3-2.9,1-4.2C66.1,210,67.3,209.3,68.7,209.4z M68.4,211.4
			c-0.7,0-1.3,0.4-1.7,1c-0.4,0.7-0.6,1.4-0.6,2.2c-0.1,1,0.2,1.9,0.7,2.8c0.4,0.6,1,0.9,1.6,0.9c0.9,0.1,1.8-0.5,2.1-1.4
			c0.1-0.5,0.2-1.1,0.2-1.7C70.7,212.7,69.9,211.4,68.4,211.4L68.4,211.4z"/>
		<path d="M75.4,210.2c0.6-0.6,1.5-0.8,2.3-0.8c0.9,0,1.7,0.2,2.5,0.5s1.2,0.7,1.2,1.3c0,0.3-0.1,0.5-0.3,0.6
			c-0.2,0.1-0.3,0.2-0.5,0.2h-0.4c-0.3-0.1-0.7-0.3-1-0.4c-0.5-0.3-1-0.4-1.5-0.4c-0.4,0-0.8,0.1-1.2,0.3c-0.3,0.2-0.5,0.6-0.5,1
			s0.2,0.8,0.6,1c0.6,0.3,1.3,0.6,2,0.7c0.8,0.1,1.5,0.4,2.2,0.8c0.6,0.5,0.8,1.2,0.8,1.9c0.1,1-0.2,2.1-1,2.8
			c-0.7,0.6-1.6,0.8-2.5,0.8s-1.7-0.1-2.5-0.4c-0.7-0.3-1-0.7-1-1.2c-0.1-0.4,0.2-0.9,0.7-0.9c0.1,0,0.2,0,0.2,0
			c0.3,0.1,0.7,0.2,1,0.3c0.5,0.2,1.1,0.3,1.6,0.3s0.9-0.2,1.2-0.5c0.3-0.3,0.4-0.7,0.4-1.2c0-0.4-0.2-0.8-0.6-1
			c-0.5-0.3-1.1-0.4-1.7-0.5s-1.1-0.2-1.7-0.4c-1-0.4-1.6-1.5-1.4-2.6C74.5,211.5,74.8,210.7,75.4,210.2z"/>
		<path d="M95.7,204.7c0.8,0,1.6,0.2,2.3,0.6c0.8,0.4,1.1,0.8,1.1,1.3c0,0.7-0.3,1.1-0.9,1.1c-0.4-0.1-0.8-0.2-1.2-0.4
			c-0.4-0.3-0.9-0.4-1.4-0.4c-1.4,0-2.7,0.7-3.4,1.8c-1,1.4-1.4,3-1.4,4.7c0,1.3,0.3,2.6,0.9,3.7c0.4,0.9,1.2,1.5,2.2,1.6
			c0.8,0,1.5-0.3,2-0.9c0.5-0.5,0.7-1.2,0.7-1.9c0-0.3,0-0.7-0.1-1s-0.2-0.5-0.4-0.7c-0.2-0.2-0.6-0.3-0.9-0.3s-0.7-0.1-1-0.2
			c-0.3-0.1-0.5-0.3-0.5-0.6s0.1-0.5,0.2-0.8c0.1-0.2,0.4-0.4,0.6-0.4c0.7-0.1,1.5,0.1,2.2,0.3c0.4,0.2,0.7,0.4,0.8,0.6
			c0.2,0.2,0.4,0.4,0.5,0.7s0.2,0.6,0.3,0.8c0.1,0.4,0.1,0.7,0.2,1.1c0,0.8,0,1.8,0,2.9c0.1,0.7,0,1.4-0.2,2
			c-0.2,0.2-0.4,0.3-0.7,0.3c-0.2,0-0.5,0-0.7-0.2c-0.2-0.3-0.3-0.7-0.2-1c-0.4,0.4-0.9,0.7-1.4,0.9s-1,0.3-1.5,0.4
			c-1.5-0.1-2.8-0.9-3.5-2.2c-1-1.6-1.5-3.5-1.4-5.4c0-1.1,0.2-2.2,0.6-3.3c0.3-1,0.8-1.9,1.5-2.7C92.1,205.4,93.9,204.6,95.7,204.7
			z"/>
		<path d="M104.4,209.4c1.2,0,2.2,0.6,2.8,1.6c0.8,1.2,1.2,2.6,1.1,4c0,1.4-0.4,2.8-1.1,3.9c-0.6,1-1.8,1.6-3,1.6s-2.4-0.6-3-1.7
			c-0.8-1.1-1.2-2.4-1.2-3.7c-0.1-1.5,0.3-2.9,1-4.2C101.8,209.9,103.1,209.3,104.4,209.4z M104.1,211.4c-0.7,0-1.3,0.4-1.7,1
			c-0.4,0.7-0.6,1.4-0.6,2.2c-0.1,1,0.2,1.9,0.7,2.8c0.3,0.6,1,0.9,1.6,0.9c0.9,0.1,1.8-0.5,2.1-1.4c0.1-0.5,0.2-1.1,0.2-1.7
			C106.4,212.7,105.7,211.4,104.1,211.4L104.1,211.4z"/>
		<path d="M114.2,211.3l-3.4,0.3c-0.8,0-1.1-0.3-1.1-1s0.4-1,1.2-1.1c0.2,0,1.8,0,4.6,0c0.6,0,1.2,0.2,1.8,0.5c0.7,0.4,1,1.1,1,1.8
			c-0.2,1.1-0.8,2.1-1.7,2.7c-0.5,0.4-1,0.8-1.5,1.2c-1.8,1.3-2.7,2.2-2.7,2.5s0.3,0.4,0.9,0.4c0.5,0,1.1,0,1.6-0.1l1.6-0.2
			c0.4-0.1,0.7-0.1,1.1-0.1c0.7,0,1,0.2,1,0.7c0,1.1-1.6,1.6-4.9,1.6c-0.9,0.1-1.7-0.1-2.5-0.4c-0.5-0.3-0.9-0.8-1-1.4
			c0-0.1,0-0.2,0-0.3c0.1-0.6,0.3-1.2,0.8-1.6c0.8-0.9,1.7-1.8,2.8-2.5c0.8-0.5,1.6-1.1,2.2-1.9c0.1-0.2,0.2-0.4,0.1-0.5
			C115.9,211.5,115.3,211.3,114.2,211.3z"/>
		<path d="M124.2,209.4c1.2,0,2.2,0.6,2.8,1.6c0.8,1.2,1.2,2.6,1.1,4c0,1.4-0.4,2.8-1.1,3.9c-1.1,1.7-3.3,2.1-5,1
			c-0.4-0.3-0.8-0.6-1-1c-0.8-1.1-1.1-2.4-1.1-3.7c-0.1-1.5,0.3-2.9,1.1-4.2C121.7,210,122.9,209.4,124.2,209.4z M124,211.4
			c-0.7,0-1.3,0.4-1.7,1c-0.4,0.7-0.6,1.4-0.6,2.2c-0.1,1,0.2,1.9,0.7,2.8c0.4,0.6,1,0.9,1.6,0.9c0.9,0.1,1.8-0.5,2.1-1.4
			c0.1-0.5,0.2-1.1,0.2-1.7C126.3,212.7,125.5,211.4,124,211.4L124,211.4z"/>
		<path d="M131.1,210.2c0.6-0.6,1.5-0.8,2.3-0.8c0.9,0,1.7,0.2,2.5,0.5s1.2,0.7,1.2,1.3c0,0.3-0.1,0.5-0.3,0.6s-0.3,0.2-0.5,0.2
			h-0.4c-0.3-0.1-0.7-0.3-1-0.4c-0.5-0.3-1-0.4-1.5-0.4c-0.4,0-0.8,0.1-1.2,0.3c-0.3,0.2-0.5,0.6-0.5,1s0.2,0.8,0.6,1
			c0.6,0.3,1.3,0.6,2,0.7c0.8,0.1,1.5,0.4,2.2,0.8c0.6,0.5,0.8,1.2,0.8,1.9c0.1,1-0.2,2.1-1,2.8c-0.7,0.6-1.6,0.8-2.5,0.8
			s-1.7-0.1-2.5-0.4c-0.7-0.3-1-0.7-1-1.2c-0.1-0.4,0.2-0.9,0.7-0.9c0.1,0,0.2,0,0.2,0c0.3,0.1,0.7,0.2,1,0.3
			c0.5,0.2,1.1,0.3,1.6,0.3s0.9-0.2,1.2-0.5s0.4-0.7,0.4-1.2c0-0.4-0.2-0.8-0.6-1c-0.5-0.3-1.1-0.4-1.7-0.5
			c-0.6-0.1-1.1-0.2-1.6-0.4c-1-0.4-1.6-1.5-1.4-2.6C130.1,211.5,130.4,210.7,131.1,210.2z"/>
		<path class="st1" d="M18.3,3.5h156c8,0,14.5,6.5,14.5,14.5v156c0,8-6.5,14.5-14.5,14.5h-156c-8,0-14.5-6.5-14.5-14.5V18
			C3.8,10,10.3,3.5,18.3,3.5z"/>
		<path class="st0" d="M174.3,7c6.1,0,11,4.9,11,11v156c0,6.1-4.9,11-11,11h-156c-6.1,0-11-4.9-11-11V18c0-6.1,4.9-11,11-11H174.3
			 M174.3,0h-156c-9.9,0-18,8.1-18,18v156c0,9.9,8.1,18,18,18h156c9.9,0,18-8.1,18-18V18C192.3,8.1,184.2,0,174.3,0z"/>
		<path class="st0" d="M58.8,32c-0.9,3.7-6,5.7-15.3,6.1c-1.2,0-2.9,0.1-5.1,0.3c-1.2,0.2-2.3,0.7-3.2,1.6c-0.7,1-1.1,2.1-1.3,3.3
			l0.2,1.8l1.4,0.8c2.2-0.5,4.5-0.9,6.7-1.4s4.5-0.8,6.8-0.8c3.4-0.1,6.8,0.7,9.8,2.3c3.1,1.5,5,4.7,4.9,8.2c0,3.3-1.4,6.7-4.3,10.2
			c-2.3,3-5.3,5.5-8.7,7.3c-3.9,1.9-8.2,2.9-12.6,2.9c-4.6,0-9.5-1.8-14.6-5.3c-1.4-1-2.1-1.8-2.1-2.6c0-1.5,0.8-2.2,2.5-2.2
			c1.4,0.3,2.9,0.7,4.2,1.2c3.3,1.3,6.8,2,10.3,2.2c2.3-0.1,4.5-0.4,6.7-1.1c2.1-0.5,4.1-1.4,6-2.6c1.3-0.9,2.4-2,3.3-3.3
			c1-1.2,1.5-2.8,1.6-4.3c0-2.6-2-4.8-6-6.6c-0.6-0.3-1.2-0.5-1.8-0.8c-0.7-0.1-1.3-0.2-2-0.2c-2.9,0.1-5.8,0.8-8.4,2.1
			c-2.2,1.1-4.6,2-7,2.5c-1.1-1.2-1.9-2.7-2.1-4.4s-0.3-3.3-0.5-4.9c-0.1-0.6-0.3-1.5-0.5-2.8c-0.1-0.3-0.4-1.3-0.9-3
			c-0.3-1-0.6-2-0.6-3c0-1.9,1.4-3.1,4.3-3.5l23.9-3.1c1-0.1,2,0.1,2.9,0.6C58,30.2,58.5,31,58.8,32z"/>
		<path class="st2" d="M130.9,158.6c0.3,1.6,0.1,2-1.4,2.8c-9.4,4.9-20.2,6.5-30.6,4.6c-11.8-1.9-22.4-8.4-29.5-18
			c-1-1.1-1.3-2.7-0.9-4.1c0.9-3.6,2.1-7.1,3.7-10.4c0.1-0.3,0.4-0.6,0.3-1.1c-1.8,0-3.5-0.8-4.7-2.2c-0.3-0.3-0.5-0.2-0.8,0
			c-3.4,2.7-6.2,2.6-9.4-0.2c-0.7-0.6-0.8,0-1.1,0.2c-2.7,2.4-6.9,2.1-9.3-0.6c-0.4-0.5-0.8-1.1-1.1-1.7c-0.7-1.5-0.8-3.2-0.2-4.7
			c2.5-5.8,5.6-11.2,10.6-15.3c5.5-4.5,11.7-5.5,18.5-3.5c0.3,0.1,0.6,0.3,1,0.2c-1.4-2.5-2.5-5.1-3.3-7.8c-0.1-0.4-0.4-0.5-0.8-0.6
			c-4.9-0.5-8.6-4.5-8.8-9.4c-0.1-2.3,0.5-4.5,1.9-6.3c0.5-0.6,0.8-1.3,1-2c1.7-9.1,6.3-17.5,13.3-23.6c13.4-12,33.1-14.2,48.8-5.3
			c9.7,5.4,16.8,14.4,19.8,25c0.3,0.8,0.5,1.7,0.7,2.6c0.2,1.4,0.7,2.7,1.5,3.8c3,4.6,1.7,10.7-2.9,13.6c-1.2,0.8-2.7,1.3-4.1,1.5
			c-0.5,0.1-0.9,0.1-1.1,0.7c-0.8,2.6-1.8,5-3.1,7.4l-0.1,0.3h0.3c3.8-1.3,7.9-1.5,11.8-0.5c5.2,1.5,9.1,4.8,12.2,9.1
			c2.5,3.3,4.5,7,6,10.9v2.4c-0.5,1-1,2.1-1.6,3c-2.3,2.7-6.3,3.1-9,0.8c-0.1-0.1-0.1-0.1-0.2-0.2c-0.6-0.5-0.9-0.5-1.4,0
			c-2.5,2.5-6.5,2.6-9,0.2c-0.4-0.4-0.6-0.6-1.1,0c-1.5,1.5-2.4,1.8-4.7,2.1c0.8,2.1,1.8,4,2.5,6.1s1.3,4.3,1.8,6.5
			c0.2,0.6,0,1.3-0.3,1.8c-2.7,3.9-5.9,7.3-9.7,10.1c-1,0.8-1.9,0.4-2.7-0.3c-0.6-1.2-0.1-2.1,0.9-2.9c2.9-2.2,5.4-4.8,7.6-7.7
			c0.2-0.3,0.6-0.6,0.5-1.1c-0.5-2.3-1.2-4.5-2.1-6.7c-1.8,2.2-3.7,4.2-5.8,6.1c-12.3,10.8-29.9,13.4-44.8,6.6
			c-1.5-0.7-1.8-1.3-1.4-2.8c0.7-0.9,2-1.1,2.9-0.5c4.1,2,8.6,3.1,13.2,3.3c14.2,0.8,25.3-4.8,33.8-16.1c0.3-0.4,0.3-0.9,0.1-1.3
			c-1.1-1.9-2-3.8-3.2-5.6c-2.3-3.5-4.8-7-7.4-10.2c-0.3-0.6-1-0.8-1.6-0.5c-0.1,0-0.2,0.1-0.2,0.2c-1.1,0.7-2.2,1.3-3.4,1.8
			c-0.6,0.2-1.1,0.9-1,1.6c0,1.5-0.5,2.9-1.3,4.2c-2.7,4.4-9,6-12.4,2.7c-0.4-0.4-0.7-0.3-1.1,0.1c-0.7,0.6-1.4,1-2.3,1.3
			c-5,1.7-11-2.5-11.4-7.9c0-0.5,0.2-1.1-0.4-1.5c-1.4-0.8-2.9-1.5-4.3-2.4c-0.5-0.3-0.7,0-1,0.3c-4.5,4.9-8.3,10.3-11.3,16.1
			c-0.2,0.4-0.2,0.9,0.1,1.2c1.1,1.6,2.4,3.1,3.8,4.5c1.4,1.5,3,2.9,4.7,4.2c1,0.5,1.3,1.7,0.8,2.7c-1.2,1-1.9,1.1-3.1,0.1
			c-1.4-1.1-2.7-2.2-4.1-3.4l-4.3-4.8c-0.8,2.1-1.5,4.2-2,6.4c-0.1,0.4,0,0.7,0.2,1c1.1,1.5,2.3,2.9,3.6,4.2c0.9,1.1,1.9,2.1,3,2.9
			c8.3,7.1,18,10.3,28.8,10.3c7,0,13.9-1.7,20.1-5C128.8,157.4,130.1,157.6,130.9,158.6L130.9,158.6z M144.8,126.1
			c0.1-0.5,0-1-0.2-1.4c-0.3-1.2,0.1-2.2,1.1-2.5s1.8,0.1,2.4,1.3c0.4,0.9,0.8,1.9,1.3,2.8c0.5,1.6,2.3,2.5,3.9,1.9
			c1.5-0.6,2.1-2.1,1.7-3.9c-0.4-0.9,0-2,0.9-2.4s2,0.1,2.4,1v0.1c0.5,1,0.9,2.1,1.4,3.2c0.6,1.5,2.4,2.3,3.9,1.7
			c1.5-0.7,2.2-2.4,1.5-4v-0.1c-2.1-4.6-4.6-8.9-8.4-12.3c-3.1-3-7.2-4.6-11.5-4.4c-4,0.3-7.9,1.7-11.1,4.2
			c-1.6,0.8-2.6,2.3-3.9,3.3c-0.6,0.4-0.1,0.7,0.2,1c3.3,3.6,6.2,7.5,8.7,11.6c0.8,1.2,2.2,1.7,3.6,1.4
			C143.9,128.5,144.8,127.4,144.8,126.1z M69.8,125.8c0,1.3,0.8,2.4,2,2.8c1.4,0.3,2.8-0.2,3.7-1.3c2.6-4.2,5.6-8.2,9-11.9
			c0.3-0.3,0.5-0.5,0-0.9c-1.4-1-2.4-2.5-4-3.3c-0.7-0.4-1.3-0.9-2-1.3c-7.2-4.4-14.9-3.7-21,1.8c-3.7,3.4-6.1,7.8-8.2,12.4
			c-0.6,1.4,0.1,3,1.4,3.7c1.4,0.6,3.1,0.1,3.8-1.3c0.6-1.1,1.1-2.3,1.6-3.5c0.3-1,1.3-1.5,2.3-1.2c0.1,0,0.1,0,0.2,0.1
			c0.9,0.4,1.4,1.5,1,2.4c-0.5,1.9,0.2,3.4,1.7,4s3.1-0.3,3.8-2c0.5-1,0.9-2.1,1.4-3.1c0.5-0.9,1.6-1.2,2.5-0.7
			c0.7,0.4,1,1.1,0.9,1.9C69.8,125,69.8,125.4,69.8,125.8L69.8,125.8z M104.2,48.1c-1,0.1-1.9,0.2-2.9,0.3c-12.6,2.2-22,9-28.2,20.3
			c-1.2,2.3-2.2,4.7-2.9,7.3c-0.1,0.3-0.6,1,0.4,0.9c2.5-0.3,5.1-0.3,7.5-1.4c2-0.5,3.9-1.1,5.7-2c5.3-2.3,10.2-5.2,13.7-10
			c0.4-0.6,0.9-1.2,1.4-1.8c1-1.3,2.9-1.5,4.2-0.5c0,0,0.1,0,0.1,0.1c1,0.7,1.8,1.6,2.8,2.3c6.8,5.9,15,10,23.8,12
			c4.9,1.1,9.8,1,14.7,1.4l0.1,0.1c0,0,0.1-0.2,0-0.2c0-0.2-0.1-0.5-0.1-0.7C139.4,58.3,122.5,46.6,104.2,48.1L104.2,48.1z
			 M80.4,78.6C79,79,77.5,79.4,76,79.8c-0.5,0.1-0.8,0.5-0.8,1c-0.6,3.6-0.6,7.3,0,10.9c1.5,9.9,7.5,18.5,16.3,23.3
			c1.8,1.1,1.9,1,2.6-1c1.8-3.4,5.1-5.8,8.9-6.2c1.5-0.2,2.9,0.7,4.3,0.7s2.8-1,4.4-0.7c4.3,0.5,7.9,3.3,9.3,7.4
			c0.2,0.6,0.4,0.8,1.1,0.5c12.7-6.4,19.7-20.3,17.5-34.3c-0.1-0.8-0.4-1.1-1.2-1.1c-2.9-0.1-5.8-0.5-8.6-1.1
			C119.5,77,110,72.1,102.2,65c-0.7-0.6-0.9-0.5-1.4,0.2c-1.9,2.8-4.2,5.2-7,7.1C89.6,75,85.2,77.1,80.4,78.6z M105.5,117.8
			c0-1.4,0-2.9,0-4.3c0-1.9-0.6-2.4-2.4-2c-0.4,0.1-0.8,0.2-1.2,0.3c-3.6,1.2-5.5,4.3-5.3,8.7c0,2.1,1.2,3.9,3.1,4.8
			c3,1.5,6,0.2,5.8-3.5C105.4,120.5,105.5,119.1,105.5,117.8z M109.1,117.6L109.1,117.6c0,1.8-0.1,3.5,0,5.3c0.1,1.7,1.5,3,3.2,3
			c0.1,0,0.1,0,0.2,0c2.3-0.1,4.3-1.6,5-3.8c0.4-1.5,0.5-3,0.2-4.5c-0.7-3.3-3.5-5.8-6.8-6.2c-1.4-0.1-1.9,0.4-1.9,1.8
			S109.1,116.1,109.1,117.6z M143,92.7c3-0.6,5.1-3.3,5.1-6.4c-0.1-2.9-2.2-5.3-5-5.8C143.7,84.5,143.7,88.6,143,92.7z M71.6,92.7
			c-0.7-4.1-0.7-8.2,0-12.2c-3.4,0.7-5.6,3.9-4.9,7.3C67.2,90.2,69.1,92.2,71.6,92.7z"/>
		<path class="st3" d="M88.5,148.1c-0.3,1.6-0.1,2.1,1.4,2.8c14.9,6.8,32.5,4.3,44.8-6.6c2.1-1.9,4-3.9,5.8-6.1
			c0.9,2.2,1.6,4.4,2.1,6.7c0.1,0.5-0.2,0.7-0.5,1.1c-2.2,2.9-4.7,5.5-7.6,7.7c-1,0.8-1.5,1.7-0.9,2.9l-2.8,1.9
			c-0.7-1-2-1.2-2.9-0.5c0,0,0,0-0.1,0c-6.2,3.3-13.1,5-20.1,5c-10.8,0-20.5-3.1-28.8-10.3c-1.1-0.9-2.1-1.8-3-2.9
			c0.8-2.3,1.6-4.6,2.4-6.9c1.4,1.1,2.7,2.3,4.1,3.4c1.2,0.9,1.9,0.9,3.1-0.1C86.4,147.1,87.4,147.7,88.5,148.1z"/>
		<path class="st4" d="M80.4,78.6c4.7-1.5,9.2-3.6,13.2-6.5c2.8-1.9,5.1-4.3,7-7.1c0.5-0.7,0.7-0.8,1.4-0.2
			c7.7,7.1,17.3,12,27.6,14.2c2.8,0.6,5.7,1,8.6,1.1c0.9,0,1.1,0.3,1.2,1.1c2.2,14-4.8,27.9-17.5,34.4c-0.7,0.4-0.8,0.1-1.1-0.5
			c-1.4-4-5-6.9-9.3-7.4c-1.6-0.2-3,0.8-4.4,0.7s-2.7-1-4.3-0.7c-3.8,0.5-7.1,2.8-8.9,6.2c-0.2,0-0.3-0.1-0.4-0.1
			c-2.5-2-4.7-4.2-6.6-6.7c-3.3-4.4-5.5-9.6-6.4-15C80.2,90,80,88,80.1,85.9C80.1,83.5,80.3,81,80.4,78.6z M107.4,95
			c1.6,0,3.2-0.6,4.3-1.8c0.8-0.6,0.9-1.8,0.3-2.6l0,0c-0.6-0.8-1.7-0.9-2.5-0.3l-0.1,0.1c-1.9,1.3-2.3,1.3-4.2,0
			c-0.7-0.7-1.8-0.6-2.5,0.1l-0.1,0.1c-0.7,0.7-0.6,1.9,0.1,2.5c0,0,0,0,0.1,0.1C104,94.4,105.7,95.1,107.4,95z M89.1,91.5
			c-0.8,0-1.6,0-2.4,0c-1,0-1.8,0.8-1.8,1.8s0.8,1.8,1.8,1.8l0,0c1.5,0,3.1,0,4.6,0c1,0.1,1.9-0.6,2-1.6s-0.6-1.9-1.6-2
			c-0.1,0-0.3,0-0.4,0C90.6,91.5,89.8,91.5,89.1,91.5z M125.5,95.1c0.8,0,1.6,0,2.4,0c1,0,1.8-0.8,1.8-1.8s-0.8-1.8-1.8-1.8l0,0
			c-1.6,0-3.1,0-4.7,0c-1,0-1.8,0.8-1.8,1.7v0.1c0,1,0.8,1.7,1.8,1.7C123.9,95.2,124.7,95.1,125.5,95.1z M127.3,86.4L127.3,86.4
			c0-0.7,0-1.3,0-2c-0.1-0.8-0.7-1.5-1.6-1.5c-0.8-0.2-1.7,0.4-1.8,1.2l0,0c-0.3,1.5-0.3,3,0,4.5c0.1,0.8,0.9,1.4,1.8,1.3h0.1
			c0.8,0,1.5-0.7,1.6-1.6C127.4,87.7,127.4,87.1,127.3,86.4z M87.3,86.4c0,0.6,0,1.2,0,1.8c0,0.9,0.7,1.7,1.6,1.7l0,0
			c0.9,0.1,1.7-0.4,1.8-1.3c0-0.1,0-0.1,0-0.2c0.1-1.4,0.1-2.7,0-4.1c0-0.9-0.8-1.5-1.7-1.5c-0.1,0-0.1,0-0.2,0
			c-0.9,0-1.7,0.8-1.7,1.7l0,0C87.2,85.2,87.3,85.8,87.3,86.4L87.3,86.4z"/>
		<path class="st5" d="M88.5,148.1c-1.1-0.4-2.1-1-3-1.8c0.5-1,0.2-2.2-0.8-2.7c-1.7-1.3-3.3-2.7-4.7-4.2c0.1-0.2,0.1-0.4,0.2-0.6
			c2.2-5.2,5.1-10.2,8.6-14.6c1.1-1.6,2.4-3.2,3.9-4.5c0.6,0.4,0.3,1,0.4,1.5c0.4,5.4,6.4,9.6,11.4,7.9c0.8-0.3,1.6-0.7,2.3-1.3
			c0.4-0.3,0.7-0.5,1.1-0.1c3.4,3.2,9.8,1.7,12.4-2.7c0.8-1.3,1.3-2.7,1.3-4.2c-0.1-0.7,0.4-1.3,1-1.6c1.2-0.5,2.3-1.1,3.4-1.8
			c0.5-0.4,1.2-0.4,1.7,0.1c0.1,0.1,0.1,0.1,0.2,0.2c2.7,3.3,5.1,6.7,7.4,10.2c1.2,1.8,2.2,3.7,3.2,5.6c0.3,0.4,0.3,0.9-0.1,1.3
			c-8.4,11.2-19.6,16.8-33.8,16.1c-4.6-0.2-9.1-1.4-13.2-3.3C90.5,147.1,89.2,147.3,88.5,148.1z"/>
		<path class="st6" d="M144.4,76.8c-4.9-0.4-9.9-0.3-14.7-1.4c-8.8-2-17-6.1-23.8-12c-0.9-0.8-1.8-1.6-2.8-2.3
			c-1.3-1.1-3.2-0.9-4.2,0.4c0,0,0,0.1-0.1,0.1c-0.5,0.6-1,1.2-1.4,1.8c-3.5,4.8-8.3,7.8-13.7,10.1c-1.8,0.9-3.7,1.5-5.7,2
			c0.2-0.5,0.4-1.1,0.5-1.6c0.9-3,2.3-5.9,4-8.6c2.2-3.7,5.1-6.9,8.4-9.6c1.6-1.2,3.2-2.4,4.9-3.5c2.7-1.5,5.4-2.9,8.3-4
			c18.4-1.5,35.2,10.2,40.3,27.9c0.1,0.2,0.1,0.5,0.1,0.7H144.4z"/>
		<path class="st7" d="M69.8,125.8c0-0.4,0-0.9,0.2-1.3c0.3-0.9-0.2-2-1.2-2.3c-0.9-0.3-1.8,0.1-2.2,1c-0.5,1-0.9,2-1.4,3.1
			c-0.8,1.7-2.3,2.5-3.8,2s-2.2-2-1.7-4c0.4-0.9-0.1-2-1-2.4s-2,0.1-2.4,1.1v0.1c-0.6,1.2-1,2.4-1.6,3.5c-0.8,1.4-2.4,1.9-3.8,1.3
			c-1.4-0.7-2-2.3-1.4-3.7c2-4.6,4.4-8.9,8.1-12.4c6-5.6,13.7-6.2,21-1.8c0.7,0.4,1.3,0.9,2,1.3c-0.3,0.8-0.8,1.4-1.4,2
			c-3.1,3.7-6,7.6-8.5,11.7C70.3,125.3,70.2,125.7,69.8,125.8z"/>
		<path class="st7" d="M134.1,111.4c3.2-2.4,7.1-3.9,11.1-4.2c4.3-0.2,8.4,1.4,11.5,4.4c3.8,3.4,6.3,7.8,8.4,12.3
			c0.7,1.5,0.1,3.3-1.4,4h-0.1c-1.5,0.6-3.3-0.1-3.9-1.7c-0.5-1-0.9-2.1-1.4-3.2c-0.3-1-1.4-1.5-2.3-1.2h-0.1
			c-0.9,0.4-1.3,1.5-0.9,2.4c0.4,1.8-0.2,3.3-1.7,3.9c-1.6,0.5-3.3-0.3-3.9-1.9c-0.4-0.9-0.8-1.9-1.3-2.8c-0.6-1.2-1.4-1.6-2.4-1.3
			s-1.3,1.2-1.1,2.5c0.2,0.4,0.2,0.9,0.2,1.4c-0.1-0.1-0.3-0.3-0.4-0.4c-2.3-3.9-4.9-7.7-7.9-11.1
			C135.6,113.6,134.7,112.5,134.1,111.4z"/>
		<path class="st8" d="M104.2,48.1c-2.9,1.1-5.6,2.5-8.3,4c-1.7,1.1-3.3,2.2-4.9,3.5c-3.3,2.7-6.1,6-8.4,9.6c-1.7,2.7-3.1,5.5-4,8.6
			c-0.2,0.5-0.4,1.1-0.5,1.6c-2.4,1.1-5,1.1-7.5,1.4c-0.9,0.1-0.4-0.6-0.4-0.9c0.7-2.5,1.6-5,2.9-7.3c6.2-11.2,15.6-18,28.2-20.3
			C102.2,48.3,103.2,48.2,104.2,48.1z"/>
		<path class="st9" d="M80.4,78.6c-0.1,2.4-0.3,4.9-0.3,7.3c0,2.1,0.1,4.1,0.4,6.2c0.9,5.4,3.1,10.6,6.4,15c1.9,2.5,4.2,4.8,6.7,6.8
			c0.1,0.1,0.3,0.1,0.4,0.1c-0.7,2-0.8,2-2.6,1c-8.8-4.8-14.8-13.4-16.3-23.3c-0.6-3.6-0.6-7.3,0-10.9c0-0.5,0.4-0.9,0.8-1
			C77.5,79.4,79,79,80.4,78.6z"/>
		<path class="st10" d="M92.7,119.7c-1.5,1.3-2.8,2.8-3.9,4.5c-3.5,4.5-6.4,9.4-8.6,14.6c-0.1,0.2-0.1,0.4-0.2,0.6
			c-1.4-1.4-2.7-2.9-3.8-4.5c-0.3-0.3-0.3-0.8-0.1-1.2c3-5.9,6.8-11.3,11.3-16.1c0.3-0.3,0.5-0.5,1-0.3
			C89.8,118.2,91.2,118.9,92.7,119.7z"/>
		<path class="st11" d="M105.5,117.8c0,1.3-0.1,2.7,0,4c0.2,3.7-2.8,5-5.8,3.5c-1.9-0.9-3.1-2.7-3.1-4.8c-0.2-4.4,1.7-7.5,5.3-8.7
			c0.4-0.1,0.8-0.2,1.2-0.3c1.8-0.3,2.4,0.1,2.4,2C105.5,114.9,105.5,116.4,105.5,117.8z"/>
		<path class="st12" d="M109.1,117.6c0-1.5,0-3,0-4.5s0.5-1.9,1.9-1.8c3.4,0.3,6.2,2.8,6.8,6.2c0.3,1.5,0.2,3.1-0.2,4.5
			c-0.7,2.2-2.7,3.7-5,3.8c-1.7,0.2-3.2-1-3.4-2.7c0-0.1,0-0.1,0-0.2c-0.1-1.8,0-3.5,0-5.3H109.1z"/>
		<path class="st13" d="M69.8,125.8c0.4-0.1,0.5-0.6,0.8-0.9c2.5-4.1,5.4-8,8.5-11.6c0.6-0.6,1.1-1.2,1.4-2c1.6,0.8,2.6,2.3,4,3.3
			c0.4,0.3,0.2,0.6,0,0.9c-3.4,3.7-6.4,7.7-9,11.9c-0.9,1.1-2.3,1.6-3.7,1.3C70.6,128.3,69.8,127.1,69.8,125.8z"/>
		<path class="st13" d="M134.1,111.4c0.6,1.2,1.5,2.3,2.4,3.2c2.9,3.5,5.6,7.2,7.9,11.1c0.1,0.2,0.3,0.3,0.4,0.4
			c0,1.3-0.9,2.3-2.2,2.5c-1.4,0.3-2.8-0.2-3.6-1.4c-2.6-4.1-5.5-8-8.7-11.6c-0.2-0.3-0.7-0.6-0.2-1
			C131.5,113.6,132.5,112.2,134.1,111.4z"/>
		<path class="st11" d="M143,92.7c0.7-4,0.7-8.2,0-12.2c2.8,0.5,4.9,3,5,5.8C148.1,89.3,146,92,143,92.7z"/>
		<path class="st11" d="M71.6,92.7c-3.4-0.7-5.6-3.9-4.9-7.3c0.5-2.5,2.4-4.4,4.9-4.9C70.9,84.5,70.9,88.6,71.6,92.7z"/>
		<path class="st14" d="M78.4,143.1c-0.8,2.3-1.6,4.6-2.4,6.9c-1.3-1.3-2.6-2.6-3.6-4.2c-0.2-0.3-0.3-0.6-0.2-1
			c0.5-2.2,1.2-4.4,2-6.4L78.4,143.1z"/>
		<path class="st6" d="M144.6,76.7c0.1,0.1,0.1,0.2,0,0.2s-0.1-0.1-0.1-0.1L144.6,76.7z"/>
		<path class="st15" d="M139,104.7h-0.3l0.1-0.3L139,104.7z"/>
		<path class="st16" d="M107.4,95c-1.7,0.1-3.3-0.6-4.5-1.8c-0.8-0.6-0.9-1.8-0.3-2.5c0,0,0,0,0.1-0.1c0.6-0.8,1.7-0.9,2.5-0.3
			l0.1,0.1c1.8,1.3,2.2,1.3,4.2,0c0.7-0.6,1.8-0.6,2.5,0.1l0.1,0.1c0.6,0.8,0.5,1.9-0.3,2.6l0,0C110.6,94.4,109,95.1,107.4,95z"/>
		<path class="st17" d="M89.1,91.5c0.7,0,1.4,0,2.2,0c1-0.1,1.9,0.6,2,1.6s-0.6,1.9-1.6,2c-0.1,0-0.3,0-0.4,0c-1.5,0-3,0-4.6,0
			c-1,0-1.8-0.8-1.8-1.8s0.8-1.8,1.8-1.8l0,0C87.5,91.5,88.3,91.5,89.1,91.5z"/>
		<path class="st17" d="M125.4,95.1c-0.8,0-1.5,0-2.3,0c-1,0-1.8-0.8-1.8-1.7c0-1,0.7-1.8,1.7-1.9h0.1c1.6,0,3.1,0,4.7,0
			c1,0,1.8,0.8,1.8,1.8s-0.8,1.8-1.8,1.8l0,0C127.1,95.2,126.3,95.1,125.4,95.1z"/>
		<path class="st16" d="M127.3,86.4c0,0.6,0,1.3,0,1.9c0,0.8-0.7,1.5-1.6,1.6c-0.8,0.2-1.7-0.3-1.9-1.1v-0.1c-0.3-1.5-0.3-3,0-4.5
			c0.2-0.8,1-1.4,1.8-1.2l0,0c0.8,0,1.5,0.7,1.6,1.5C127.3,85,127.3,85.7,127.3,86.4L127.3,86.4z"/>
		<path class="st2" d="M87.3,86.4c0-0.6,0-1.2,0-1.8c0-0.9,0.7-1.7,1.6-1.7l0,0c0.9-0.2,1.7,0.4,1.8,1.3c0,0.1,0,0.1,0,0.2
			c0.1,1.4,0.1,2.7,0,4.1c0,0.9-0.8,1.5-1.6,1.5c-0.1,0-0.1,0-0.2,0c-0.9,0-1.7-0.7-1.7-1.7l0,0C87.2,87.6,87.3,87,87.3,86.4z"/>
	</g>
</g>
</svg>
