<?xml version="1.0" encoding="utf-8"?>
<!-- Generator: Adobe Illustrator 26.3.1, SVG Export Plug-In . SVG Version: 6.00 Build 0)  -->
<svg version="1.1" id="Capa_1" xmlns="http://www.w3.org/2000/svg" xmlns:xlink="http://www.w3.org/1999/xlink" x="0px" y="0px"
	 viewBox="0 0 192.8 246.6" style="enable-background:new 0 0 192.8 246.6;" xml:space="preserve">
<style type="text/css">
	.st0{fill:#FFFFFF;}
	.st1{fill:#00B5FF;}
	.st2{fill:#040302;}
	.st3{fill:#FDB156;}
	.st4{fill:#FDCC70;}
	.st5{fill:#040303;}
	.st6{fill:#FAAF55;}
	.st7{fill:#FDDCCE;}
	.st8{fill:#ACD6FD;}
	.st9{fill:#87C3FB;}
	.st10{fill:#FCC9BC;}
	.st11{fill:#ABD5FC;}
	.st12{fill:#FBC8BB;}
	.st13{fill:#FB8D9C;}
	.st14{fill:#F6C4B7;}
	.st15{fill:#040403;}
</style>
<g id="Capa_2_00000051373518091499040270000010667007327011617714_">
	<g id="Capa_1-2">
		<path class="st0" d="M7.6,165.7h177.3c4.2,0,7.6,3.4,7.6,7.6V239c0,4.2-3.4,7.6-7.6,7.6H7.6c-4.2,0-7.6-3.4-7.6-7.6v-65.7
			C0,169.1,3.4,165.7,7.6,165.7z"/>
		<path class="st1" d="M18.8,3.5h156c8,0,14.5,6.5,14.5,14.5v156c0,8-6.5,14.5-14.5,14.5h-156c-8,0-14.5-6.5-14.5-14.5V18
			C4.2,10,10.7,3.5,18.8,3.5z"/>
		<path class="st0" d="M174.8,7c6.1,0,11,4.9,11,11v156c0,6.1-4.9,11-11,11h-156c-6.1,0-11-4.9-11-11V18c0-6.1,4.9-11,11-11H174.8
			 M174.8,0h-156c-9.9,0-18,8.1-18,18v156c0,9.9,8.1,18,18,18h156c9.9,0,18-8.1,18-18V18C192.7,8.1,184.7,0,174.8,0z"/>
		<path class="st0" d="M63.9,55.2c-0.1,0.8-0.4,1.5-0.7,2.3c-1.3,4.4-4,8.3-7.7,11c-4.9,3.5-10.8,5.3-16.8,5.3
			c-4.5,0.1-8.8-1.3-12.5-3.8c-0.6-0.4-1.2-0.9-1.7-1.5c-3.3-3.3-5.1-7.8-4.9-12.4c0-6,2-11.8,6.1-17.3s9-9.1,14.8-10.7
			c0.7-0.2,1.3-0.3,2-0.4c1.3,0,2.7,0.3,3.9,0.8c1.7,0.6,2.6,1.5,2.6,2.5c-0.2,1.3-0.7,2.5-1.6,3.4c-6.9,2-11.5,3.8-14,5.4
			c-4.3,2.9-6.5,7.1-6.7,12.7l1.7-0.2l5.3-3.6c2.5-1.7,5.2-3,8.1-3.8c2.8-1,5.8-1.6,8.8-1.7c6.2,0,10.6,2.8,13.2,8.5
			C63.8,53.8,63.9,55,63.9,55.2z M55.5,55.8c-1.9-2.1-4.7-3.1-8.1-3.1c-3.8,0.1-7.5,1.1-10.7,3c-3.9,2.2-6.4,4.8-7.6,7.9
			c2.8,2.2,6.7,3.3,11.7,3.3c3.4,0.1,6.8-0.7,9.8-2.3c3.3-1.8,5-4.5,5-8L55.5,55.8z"/>
		<path class="st2" d="M49.6,118.8c0.4-1.4,0.7-2.9,0.9-4.4c0.6-3,1.5-5.6,4.3-7.2c0.4-0.2,0.3-0.4,0.2-0.8c-0.5-3,0.7-5.5,2.3-7.8
			c0.5-0.8,1.6-0.9,2.4-0.4c0.7,0.5,0.9,1.6,0.4,2.3c0,0,0,0,0,0c-0.3,0.6-0.7,1.3-1,1.9c-0.8,1.3-0.9,3-0.3,4.4
			c0.7,1.5,0.3,2.3-1.2,2.8c-1.4,0.4-2.6,1.5-3,2.9c-1.3,4.3-1.7,8.7-1.2,13.2c0.1,1.4,0.9,2.7,2.1,3.4c1.6,0.9,1.8,1.7,0.7,3.2
			c-0.8,1.1-1.1,2.5-0.7,3.8c0.8,2.6,2,5.1,3.7,7.3c1.5,2,3.8,3.2,6.3,3.1c1.6,0,2.2,0.6,2.2,2.2c0,2.5,1.2,4.9,3.2,6.4
			c1.9,1.4,3.9,2.5,6.1,3.3c1.7,0.8,3.7,0.6,5.2-0.5c0.7-0.6,1.7-0.6,2.3,0c0.2,0.2,0.3,0.3,0.4,0.5c1.1,2.1,2.9,2.7,5.1,2.7
			c3.8,0.2,7.6-0.2,11.3-1.2c1.6-0.4,2.9-1.6,3.4-3.2c0.5-1.4,1.3-1.8,2.7-1.2c1.4,0.6,3,0.6,4.3-0.1c1.2-0.6,2.3-1.3,3.3-2.2
			c2-1.6,3.7-3.4,5.6-5.1c1.3-1.1,2-2.8,1.9-4.6c-0.2-0.9,0.4-1.8,1.3-1.9c0.2,0,0.4,0,0.7,0c1.5,0.2,3-0.4,4-1.5
			c4.7-4.7,9.3-9.3,14-14c0.3-0.3,0.6-0.7,0.9-1.1c0.5-0.7,0.8-1.7,0.7-2.6c-0.1-1.8,0.4-2.4,2.3-2.4c1.4,0.1,2.8-0.5,3.8-1.5
			c0.8-0.9,1.7-1.7,2.5-2.5c1.9-1.9,3.6-4,5-6.2c0.9-1.4,1-3.1,0.4-4.6c-0.7-1.6-0.3-2.3,1.3-2.9c1.4-0.4,2.5-1.5,2.9-2.9
			c1.3-4.3,1.8-8.9,1.2-13.4c-0.1-1.4-0.9-2.6-2.1-3.2c-1.6-0.9-1.7-1.7-0.7-3.2c0.9-1.1,1.1-2.6,0.7-3.9c-0.8-2.6-2-5.1-3.7-7.3
			c-1.5-2-3.8-3.1-6.2-3.1c-1.7,0-2.2-0.6-2.3-2.3c0-1.5-0.4-2.9-1.2-4.1c-0.4-0.9-1-1.7-1.8-2.2c-2.2-1.6-4.6-2.8-7.1-3.6
			c-1.5-0.5-3.1-0.2-4.4,0.7c-0.6,0.7-1.7,0.7-2.3,0.1c-0.2-0.2-0.3-0.4-0.4-0.6c-0.9-1.7-2.7-2.7-4.6-2.7
			c-3.7-0.1-7.5,0.3-11.1,1.1c-1.8,0.3-3.4,1.7-3.9,3.5c-0.1,0.9-1,1.5-1.9,1.4c-0.2,0-0.5-0.1-0.7-0.3c-1.4-0.7-3.1-0.6-4.5,0.2
			c-1.1,0.6-2.2,1.3-3.1,2.1c-2,1.6-3.7,3.4-5.6,5.2c-1.3,1.1-2.1,2.8-1.9,4.6c0.2,0.9-0.4,1.8-1.3,2c-0.2,0.1-0.5,0.1-0.7,0
			c-1.4-0.2-2.9,0.3-3.9,1.4c-4.9,4.7-9.6,9.5-14.4,14.3c-1.1,1-1.6,2.5-1.4,3.9c0.2,0.9-0.3,1.8-1.2,2c-0.2,0-0.4,0.1-0.6,0
			c-1.9-0.2-3.7,0.6-4.8,2c-0.4,0.5-0.9,0.9-1.4,1.4c-0.6,0.9-1.7,1.1-2.6,0.5c-0.1,0-0.1-0.1-0.1-0.1c-0.8-1.3-0.8-1.8,0.3-2.8
			c1.2-1.4,2.6-2.6,4.1-3.6c0.9-0.5,2.1-0.4,2.8-1s0.5-1.9,1-2.7c0.6-0.9,1.2-1.7,2-2.5c4.3-4.3,8.6-8.7,13-13
			c1.5-1.5,3.2-3,5.5-3.3c0.4,0,0.4-0.4,0.5-0.7c0.4-1.9,1.4-3.7,2.9-4.9c2-2,4-3.9,6.2-5.7c2.7-2,5.4-3.8,9-3
			c0.2,0.1,0.5-0.1,0.5-0.3c1.6-2.8,4.3-3.8,7.3-4.3c1.5-0.2,3-0.5,4.5-0.9h7.1c1.9,0.6,3.7,1.2,5,2.8c0.2,0.3,0.4,0.2,0.7,0.1
			c2.6-1.1,5.2-0.6,7.7,0.5c1.9,0.8,3.7,1.8,5.4,3c2.6,1.7,4.3,4.3,4.8,7.4c0,0.7,0.6,1.2,1.3,1.2c2.7,0.4,5.1,1.9,6.7,4.1
			c2,2.6,3.5,5.5,4.4,8.6c0.5,1.7,0.4,3.5-0.3,5.1c-0.2,0.4-0.2,0.7,0.2,1.1c1.7,1.6,2.6,3.7,2.6,6c0.2,4.3-0.3,8.7-1.4,12.8
			c-0.5,1.9-1.7,3.6-3.4,4.7c-0.5,0.2-0.7,0.7-0.6,1.2c0.3,2-0.1,4-1.1,5.7c-1.3,2.2-2.8,4.2-4.6,6c-1.1,1.2-2.3,2.3-3.4,3.4
			c-1.2,1.3-2.7,2.2-4.4,2.5c-0.5,0-0.9,0.4-0.9,0.9c-0.2,1.2-0.8,2.4-1.7,3.3c-1.3,1.5-2.7,3-4.2,4.4c-3.4,3.4-6.8,6.8-10.3,10.2
			c-1.3,1.5-3.1,2.5-5,2.8c-0.5,0.1-0.5,0.4-0.6,0.7c-0.4,1.8-1.4,3.5-2.8,4.8c-2.3,2.3-4.7,4.5-7.2,6.5c-2.4,1.7-4.9,3-8,2.3
			c-0.2-0.1-0.4-0.1-0.6,0.2c-1.7,3-4.6,3.9-7.7,4.4c-3.8,0.8-7.6,1-11.4,0.6c-1.8-0.2-3.5-1-4.7-2.4c-0.3-0.4-0.9-0.5-1.3-0.2
			c-1.8,0.7-3.8,0.7-5.6,0c-2.7-0.9-5.2-2.2-7.5-3.8c-2.4-1.7-4.1-4.3-4.6-7.3c-0.1-0.5-0.2-0.9-0.8-1c-3.8-0.6-6.4-2.8-8.3-5.9
			c-1.2-2-2.2-4.1-3-6.3c-0.7-1.8-0.7-3.7,0-5.5c0.3-0.5,0.2-1.1-0.3-1.4c-1.1-1-1.8-2.3-2.1-3.7c-0.1-0.3,0-0.6-0.3-0.8L49.6,118.8
			z"/>
		<path class="st3" d="M61.9,95.7c0.8,0.7,2,0.5,2.6-0.3c0,0,0.1-0.1,0.1-0.1c0.4-0.5,1-0.9,1.4-1.4c1.1-1.5,3-2.3,4.8-2.1
			c0.9,0.1,1.7-0.5,1.9-1.4c0-0.2,0-0.4,0-0.6c-0.2-1.5,0.3-2.9,1.4-3.9c4.7-4.8,9.5-9.7,14.4-14.3c1-1,2.4-1.5,3.9-1.4
			c0.9,0.2,1.8-0.4,2-1.3c0.1-0.2,0.1-0.5,0-0.7c-0.1-1.7,0.6-3.4,1.9-4.6c1.8-1.7,3.6-3.5,5.6-5.2c1-0.8,2-1.5,3.1-2.1
			c1.4-0.8,3.1-0.8,4.5-0.2c0.8,0.5,1.8,0.3,2.3-0.5c0.1-0.2,0.2-0.4,0.3-0.7c0.6-1.8,2.1-3.1,3.9-3.4c3.6-0.9,7.4-1.3,11.2-1.1
			c1.9-0.1,3.7,1,4.6,2.7c0.3,0.9,1.3,1.3,2.1,1c0.2-0.1,0.5-0.2,0.6-0.4c1.2-0.9,2.9-1.2,4.4-0.7c2.5,0.8,4.9,2,7.1,3.6
			c0.8,0.5,1.4,1.3,1.8,2.2c-0.3,0-0.5,0-0.8,0c-4.1,0.9-8,2.5-11.6,4.7c-2.4-1.7-5.1-2.9-8-3.7c-4.9-1.1-7.7,1.7-6.7,6.6
			c0,0.1,0,0.1,0.1,0.2c0.3,0.8,0.1,1-0.8,1c-4-0.1-8,0.8-11.6,2.6c-0.4,0.3-1,0.3-1.4-0.1c-3.5-2.5-8.5-1.7-11,1.9
			c-1.9,2.7-1.9,6.4,0,9.1c0.4,0.4,0.4,1,0.2,1.4c-2.4,4.9-3.3,10.4-2.3,15.8c0.1,0.7-0.1,0.9-0.7,1c-3.9,0.6-7.5,2.4-10.3,5.3
			c-3.7,3.3-7.1,6.8-10.4,10.5c-5.3,6-6.3,12.8-3.3,20.2c2.2,5.5,6.6,8.8,12.1,10.6c-0.4,0.2-0.2,0.5-0.1,0.8c0.4,1,0.7,1.9,1.1,2.9
			c1.9,4.3,4.6,8.2,7.9,11.5c-2.2,0-4-0.6-5.1-2.7c-0.3-0.8-1.3-1.3-2.2-0.9c-0.2,0.1-0.4,0.2-0.5,0.4c-1.5,1.1-3.5,1.3-5.2,0.5
			c-2.2-0.8-4.3-1.9-6.2-3.3c-2-1.5-3.2-3.9-3.2-6.4c0-1.6-0.6-2.2-2.2-2.2c-2.5,0.1-4.9-1.1-6.3-3.1c-1.7-2.2-2.9-4.7-3.7-7.3
			c-0.4-1.3-0.1-2.7,0.7-3.8c1-1.6,0.9-2.3-0.7-3.2c-1.2-0.7-2-2-2.1-3.4c-0.5-4.4-0.1-8.9,1.2-13.2c0.4-1.4,1.6-2.5,3-2.9
			c1.5-0.6,1.9-1.4,1.2-2.8c-0.6-1.4-0.5-3.1,0.3-4.4c0.3-0.6,0.7-1.3,1-1.9c0.5-0.7,0.4-1.8-0.4-2.3c0,0,0,0,0,0
			C60.3,97.3,61.1,96.5,61.9,95.7z"/>
		<path class="st4" d="M135.5,63.6c3.6-2.2,7.5-3.8,11.6-4.7c0.3,0,0.5,0,0.8,0c0.8,1.2,1.2,2.7,1.2,4.1c0,1.7,0.6,2.3,2.3,2.3
			c2.5,0,4.8,1.1,6.2,3.1c1.7,2.2,2.9,4.7,3.7,7.3c0.4,1.3,0.2,2.8-0.7,3.9c-1,1.5-0.8,2.3,0.7,3.2c1.2,0.7,2,1.9,2.1,3.2
			c0.5,4.5,0.1,9.1-1.2,13.4c-0.4,1.4-1.5,2.5-2.9,2.9c-1.6,0.6-2,1.3-1.3,2.9c0.6,1.5,0.5,3.2-0.4,4.6c-1.4,2.3-3.1,4.4-5,6.2
			c-0.8,0.9-1.7,1.7-2.5,2.5c-1,1.1-2.4,1.6-3.8,1.5c-1.9,0-2.4,0.6-2.3,2.4c0.1,0.9-0.2,1.8-0.7,2.6c-0.3,0.4-0.5,0.7-0.9,1.1
			c-4.7,4.7-9.3,9.3-14,14c-1,1.1-2.5,1.7-4,1.5c-0.9-0.2-1.8,0.4-2,1.3c0,0.2-0.1,0.4,0,0.7c0.1,1.7-0.6,3.4-1.9,4.6
			c-1.8,1.7-3.6,3.5-5.6,5.1c-1,0.9-2.1,1.6-3.3,2.2c-1.3,0.7-2.9,0.7-4.3,0.1c-1.3-0.6-2.2-0.2-2.7,1.2c-0.5,1.6-1.8,2.8-3.4,3.2
			c-3.7,1-7.5,1.4-11.3,1.3c-3.3-3.4-5.9-7.3-7.9-11.5c-0.4-0.9-0.8-1.9-1.1-2.9c-0.1-0.3-0.3-0.6,0.1-0.8l0.8,0.2
			c6.2,1.5,11.9,0.3,16.7-3.9c4.1-3.7,8-7.5,11.7-11.7c2.5-2.6,4-5.9,4.5-9.5c0.1-0.7,0.4-0.8,1.1-0.7c5.3,0.9,10.7,0.1,15.5-2.2
			c0.6-0.3,1.3-0.3,1.8,0.1c3.6,2.4,8.5,1.5,10.9-2.1c1.7-2.5,1.8-5.8,0.2-8.4c-0.7-0.8-0.7-1.9-0.1-2.7c0.1-0.1,0.1-0.3,0.2-0.4
			c1.5-3.6,2.3-7.4,2.1-11.3c1,0.2,1.8,0.4,2.7,0.5c1.9,0.4,3.9-0.5,4.9-2.2c0.9-2,0.9-4.3-0.1-6.2c-0.3-0.9-1.2-1.3-2-1
			c0,0-0.1,0-0.1,0c-0.9,0.3-1.4,1.3-1,2.2c0,0,0,0,0,0c0.2,0.7,0.4,1.4,0.4,2.1c0,1.3-0.4,1.7-1.7,1.5c-1-0.1-2-0.4-2.9-0.8
			c-0.5-0.1-0.8-0.6-0.9-1.1c-0.6-2.8-1.6-5.4-3.1-7.9c-3.2-5.4-8.2-9.5-14.1-11.6c0.7-1.6,2.1-2.4,3.5-3.2c2.8,1.7,5.4,3.7,7.8,6
			c2.9,2.7,5.5,5.7,7.7,8.9c0.4,0.8,1.5,1.2,2.3,0.7c0.8-0.4,1.2-1.5,0.7-2.3c-0.1-0.1-0.1-0.2-0.2-0.3c-0.3-0.5-0.6-1-1-1.4
			C145.7,72.2,140.9,67.5,135.5,63.6z"/>
		<path class="st5" d="M135.5,63.6c5.4,3.9,10.2,8.6,14.2,13.9c0.3,0.5,0.7,0.9,1,1.4c0.6,0.7,0.5,1.8-0.2,2.4
			c-0.7,0.6-1.8,0.5-2.4-0.2c-0.1-0.1-0.1-0.2-0.2-0.3c-2.2-3.2-4.8-6.2-7.7-8.9c-2.4-2.3-5-4.3-7.8-6c-1.9-1.4-4.1-2.4-6.4-2.8
			c-0.7-0.1-1.4-0.1-1.7,0.6c-0.5,1.4,0.2,2.6,0.6,3.9c0.2,0.8,0.9,0.7,1.5,0.8c0.8,0.3,1.7,0.5,2.5,0.7c5.9,2.1,10.9,6.2,14.1,11.7
			c1.4,2.4,2.5,5.1,3,7.9c0,0.5,0.4,0.9,0.9,1.1c0.9,0.4,1.9,0.6,2.9,0.8c1.3,0.1,1.7-0.3,1.7-1.5c0-0.7-0.2-1.4-0.4-2.1
			c-0.4-0.9,0.1-1.9,1-2.3c0,0,0,0,0,0c0.8-0.3,1.8,0,2.1,0.9c0,0,0,0.1,0,0.1c1,1.9,1,4.2,0.1,6.2c-1,1.7-3,2.6-4.9,2.2
			c-0.9-0.1-1.8-0.3-2.7-0.5c0.1,3.9-0.6,7.8-2.1,11.3c0,0.1-0.1,0.3-0.2,0.4c-0.6,0.8-0.6,2,0.1,2.7c2.2,3.7,1,8.5-2.7,10.7
			c-2.6,1.6-5.9,1.5-8.4-0.2c-0.5-0.4-1.3-0.5-1.8-0.1c-4.8,2.3-10.2,3.1-15.5,2.2c-0.7-0.1-1,0-1.1,0.7c-0.5,3.5-2.1,6.9-4.5,9.5
			c-3.7,4.1-7.6,8-11.7,11.7c-4.8,4.2-10.5,5.4-16.7,3.9l-0.8-0.2c-5.5-1.9-9.8-5.2-12.1-10.6c-3-7.4-2-14.2,3.3-20.2
			c3.3-3.7,6.8-7.2,10.4-10.5c2.8-2.8,6.4-4.7,10.3-5.3c0.6-0.1,0.8-0.3,0.7-1c-0.9-5.4-0.1-10.9,2.3-15.8c0.3-0.5,0.2-1-0.2-1.4
			c-2.5-3.6-1.6-8.5,2-11c2.7-1.9,6.3-1.9,9,0c0.4,0.3,1,0.4,1.4,0.1c3.6-1.8,7.6-2.7,11.6-2.6c0.9,0,1.1-0.2,0.8-1
			c0-0.1-0.1-0.1-0.1-0.2c-1-4.9,1.8-7.7,6.7-6.6C130.3,60.6,133,61.9,135.5,63.6z M98.3,86.6c-0.8,1.9-1.2,3.9-1.2,6
			c-0.3,2.7,0,5.4,0.8,8c2.6,9.2,11.5,16.4,20.7,16.7c1.1,0.2,2.1,0.2,3.2,0c2.1-0.1,4.1-0.5,6-1.2c0.1,0,0.3-0.1,0.4-0.1
			c11.6-4.4,17.7-17,13.9-28.8c-3.3-10-13.4-16.9-23.3-15.8C110.3,71.1,100.7,78.3,98.3,86.6L98.3,86.6z M86.8,143.3
			c1.7,0,3.3-0.3,4.9-0.9c0.9-0.3,1-0.6,0.4-1.4c-8.3-11.1-8.5-26.2-0.6-37.5c0,0,0-0.1,0-0.2c-2.4,0.6-4.5,1.8-6.2,3.6
			c-3.3,3.2-6.4,6.4-9.7,9.6c-2.6,2.6-4.3,5.9-4.7,9.5C69.8,135.1,77.7,143.8,86.8,143.3z M89.5,118.5c-0.2,0.5-0.2,1-0.2,1.6
			c-0.4,6.9,1.7,13.8,5.9,19.3c0.5,0.7,0.8,0.7,1.4,0.2c3.9-3.9,8-7.6,11.6-11.8c1.8-2.1,3-4.6,3.4-7.4c0.1-0.5,0.3-1-0.5-1.3
			c-4.9-1.8-9.2-5-12.3-9.2c-1.3-1.8-2.4-3.8-3.3-5.8c-0.5,0.7-1,1.3-1.4,1.9C91.5,109.8,90,114.1,89.5,118.5z M104.5,72.7
			c-1.8-0.9-3.9-0.5-5.3,1C98,75,97.7,77,98.6,78.6C100.3,76.4,102.2,74.4,104.5,72.7L104.5,72.7z M141.6,109.8
			c-1.6,2.3-3.6,4.3-5.9,5.9c1.6,0.9,3.7,0.7,5-0.6C142.1,113.7,142.5,111.5,141.6,109.8L141.6,109.8z"/>
		<path class="st6" d="M128.8,69.1c-0.8-0.2-1.7-0.4-2.5-0.7c-0.5-0.2-1.2,0-1.5-0.8c-0.4-1.3-1.1-2.5-0.6-3.9
			c0.3-0.8,1-0.7,1.7-0.6c2.3,0.5,4.5,1.4,6.4,2.8C130.9,66.7,129.5,67.5,128.8,69.1z"/>
		<path class="st7" d="M118.7,71.2c9.9-1,20,5.8,23.3,15.8c3.8,11.8-2.3,24.4-13.9,28.8c-0.1,0-0.3,0.1-0.4,0.1
			c0.3-0.8,0.3-1.7,0.2-2.6c-0.2-0.8-0.5-1.6-0.8-2.4c0.3,0,0.5,0,0.8,0.1c1.3,0,2-0.6,2.1-1.6s-0.6-1.7-1.9-1.8
			c-1.8-0.2-2.5-0.9-2.6-2.7c-0.1-1.2-0.7-1.8-1.8-1.8s-1.6,0.7-1.7,1.8c0,1.4,0.4,2.8,1.2,4c-0.7,0-1.3,0-2,0.2
			c-2.2,0.9-2.9,3.5-1.6,5.7c0.6,0.9,1.4,1.7,2.2,2.4c-1.1,0.2-2.1,0.2-3.2,0c-0.2-0.4-0.5-0.4-0.8-0.6c-3.3-1.5-6.3-3.8-8.6-6.7
			c-3.5-4.2-5.5-9.4-5.6-14.9c1.4-0.8,2.1-2.4,1.8-4c1.1,0.8,2.5,1.2,3.9,1.2c1.2-0.1,1.9-0.6,1.9-1.7s-0.6-1.7-1.8-1.8
			c-1.8-0.1-2.5-0.8-2.7-2.6c0-0.7-0.4-1.4-1-1.8c0.9-3.2,3-5.7,5.2-7.9C113.2,74.3,115.8,72.5,118.7,71.2z M113.6,98.2
			c-1.5,0.1-2.7,1.2-2.7,2.7c0,1.4,1.1,2.5,2.5,2.4c0,0,0,0,0,0c1.4-0.1,2.6-1.2,2.7-2.6C116,99.4,114.9,98.3,113.6,98.2L113.6,98.2
			z"/>
		<path class="st8" d="M98.7,110c3.1,4.2,7.4,7.4,12.3,9.2c0.8,0.3,0.6,0.8,0.5,1.3c-0.4,2.7-1.5,5.3-3.4,7.4
			c-3.6,4.2-7.7,7.9-11.6,11.8c-0.6,0.6-0.9,0.5-1.4-0.2c-4.2-5.5-6.3-12.4-5.9-19.3c0-0.5,0.1-1.1,0.2-1.6l7.4-7.3
			C97.4,110.7,98,110.3,98.7,110z"/>
		<path class="st9" d="M86.8,143.3c-9.1,0.5-17-8.1-15.8-17.1c0.4-3.6,2.1-7,4.7-9.6c3.2-3.2,6.4-6.4,9.7-9.6c1.6-1.8,3.8-3,6.1-3.6
			c0,0.1,0.1,0.2,0,0.2c-4,5.8-6.1,12.7-5.8,19.8c-0.9,0.9-1.5,2-1.8,3.2C82,132.3,83,138.6,86.8,143.3z"/>
		<path class="st10" d="M103.5,95.1c0,5.5,2,10.7,5.5,14.9c2.3,2.9,5.2,5.1,8.6,6.7c0.3,0.2,0.7,0.2,0.8,0.6
			c-9.2-0.2-18.1-7.4-20.7-16.7c-0.8-2.6-1.1-5.3-0.8-8C98.7,94.7,100.7,96,103.5,95.1z"/>
		<path class="st11" d="M86.8,143.3c-3.7-4.7-4.8-11-2.8-16.7c0.3-1.2,0.9-2.3,1.8-3.2c0.3,6.4,2.5,12.6,6.3,17.7
			c0.6,0.8,0.5,1.1-0.4,1.4C90.1,143,88.4,143.3,86.8,143.3z"/>
		<path class="st12" d="M118.7,71.2c-2.9,1.3-5.6,3.1-7.9,5.4c-2.2,2.3-4.3,4.7-5.2,7.9c-1.7-0.2-2.3,0.3-2.4,1.8c0,0.3,0,0.7,0,1
			c-0.4,0-0.7-0.1-1-0.3c-1.2-0.7-2.7-0.8-4-0.4C100.7,78.3,110.3,71.1,118.7,71.2z"/>
		<path class="st13" d="M127,111c0.3,0.8,0.6,1.6,0.9,2.4c0.2,0.8,0.1,1.7-0.2,2.6c-1.9,0.8-3.9,1.2-6,1.2c-0.8-0.7-1.6-1.5-2.2-2.4
			c-1.3-2.2-0.6-4.8,1.6-5.7c0.7-0.2,1.3-0.2,2-0.2C124.1,110,125.5,110.7,127,111z"/>
		<path class="st13" d="M98.3,86.6c1.3-0.4,2.8-0.3,4,0.4c0.3,0.2,0.6,0.3,1,0.3c0.3,1.5,1,2.8,2.2,3.8c0.3,1.6-0.5,3.2-1.8,4
			c-2.8,0.9-4.8-0.4-6.5-2.6C97.1,90.5,97.5,88.5,98.3,86.6z"/>
		<path class="st9" d="M98.7,110c-0.7,0.3-1.3,0.7-1.7,1.2l-7.4,7.3c0.4-4.4,2-8.7,4.5-12.4c0.4-0.6,0.8-1.2,1.4-1.9
			C96.3,106.3,97.4,108.2,98.7,110z"/>
		<path class="st14" d="M104.5,72.7c-2.3,1.6-4.2,3.6-5.9,5.9c-0.9-1.6-0.7-3.6,0.6-4.9C100.5,72.2,102.7,71.8,104.5,72.7z"/>
		<path class="st14" d="M141.6,109.8c0.9,1.8,0.5,3.9-0.9,5.3c-1.3,1.3-3.4,1.6-5,0.6C137.9,114,139.9,112,141.6,109.8z"/>
		<path class="st15" d="M127,111c-1.5-0.3-2.8-1-3.8-2.2c-0.8-1.2-1.3-2.6-1.2-4c0.1-1.1,0.7-1.8,1.7-1.8s1.7,0.6,1.8,1.8
			c0.2,1.8,0.8,2.5,2.6,2.7c1.3,0.1,1.9,0.7,1.9,1.8s-0.8,1.7-2.1,1.6C127.5,111.1,127.2,111,127,111z"/>
		<path class="st15" d="M105.4,91.1c-1.1-1-1.9-2.4-2.2-3.8c0-0.3,0-0.7,0-1c0.1-1.4,0.8-1.9,2.4-1.8c0.6,0.4,1,1,1,1.8
			c0.1,1.8,0.9,2.5,2.7,2.6c1.2,0.1,1.8,0.7,1.8,1.8s-0.7,1.6-1.9,1.7C107.9,92.4,106.5,92,105.4,91.1z"/>
		<path class="st15" d="M113.6,98.3c1.4,0,2.4,1.1,2.4,2.5c0,0,0,0,0,0c-0.1,1.4-1.2,2.6-2.7,2.6c-1.4,0-2.5-1.1-2.5-2.4
			c0,0,0,0,0,0C110.9,99.5,112.1,98.3,113.6,98.3z"/>
		<path d="M59.6,195c1.1,0,2.1,0.4,2.8,1.1c1.5,1.4,2.3,3.5,2.3,6.5c0.2,2.6-0.8,5.1-2.5,7c-0.8,0.8-1.9,1.3-3,1.4
			c-1.4,0.1-2.7-0.5-3.5-1.6c-0.8-1-1.4-2.2-1.8-3.5c-0.3-1.2-0.5-2.5-0.5-3.7c-0.1-1.8,0.4-3.5,1.5-5
			C55.9,195.7,57.7,194.9,59.6,195z M59.4,197c-1.9-0.2-3.6,1.1-4,3c-0.2,0.7-0.3,1.4-0.2,2.1c0,1,0.2,2,0.5,2.9
			c0.3,1.2,0.9,2.3,1.9,3.1c0.5,0.4,1.1,0.6,1.8,0.6c0.7,0,1.4-0.4,1.9-0.9c0.6-0.7,1-1.5,1.1-2.4c0.2-1,0.3-2,0.3-2.9
			c0.1-1.4-0.2-2.8-0.8-4.1C61.4,197.5,60.4,196.9,59.4,197z"/>
		<path d="M69.5,207.4v2.5c0,0.3-0.2,0.6-0.4,0.8c-0.2,0.2-0.5,0.3-0.8,0.4c-0.4,0-0.6-0.3-0.7-0.9c0-0.1-0.1-1.3-0.2-3.5
			c-0.1-1.7-0.3-3.5-0.6-5.2c-0.1-0.4-0.2-0.7-0.2-1.1c0-0.5,0.3-0.8,1-0.8c0.3,0,0.5,0.1,0.7,0.3c0.1,0.2,0.3,0.4,0.3,0.6
			c0,0.2,0.1,0.5,0.1,0.9s0,0.6,0.1,0.7c0.3-0.7,0.8-1.4,1.5-1.8c0.7-0.4,1.4-0.6,2.2-0.6c1.3,0,2,0.3,2,1c0,0.3-0.1,0.6-0.3,0.8
			c-0.2,0.2-0.5,0.3-0.8,0.3c-1.1-0.1-2.2,0.4-2.9,1.3C69.7,204.4,69.4,205.9,69.5,207.4z"/>
		<path d="M82.3,199.7c0.7,0,1,0.6,1,1.8v0.4v1.7c0,0.5,0,1,0,1.6l0.4,5.4c0,0.4-0.4,0.6-1.2,0.6h-0.3c-0.2,0-0.3-0.1-0.4-0.2
			c-0.1-0.2-0.1-0.4,0-0.5c0-0.2,0-0.5-0.1-0.7c-0.8,0.8-1.8,1.2-2.9,1.2c-2.2,0-3.4-1.7-3.4-5.2c-0.1-1.5,0.3-3.1,1.1-4.4
			c0.7-1,1.9-1.5,3.1-1.5c0.7,0,1.3,0.1,1.9,0.3C81.7,199.9,82,199.7,82.3,199.7z M79.8,201.9c-0.7-0.1-1.5,0.2-2,0.8
			c-0.5,0.9-0.8,1.9-0.7,2.9c0,2.4,0.6,3.5,1.9,3.5c0.4,0,0.8-0.2,1.1-0.5c0.4-0.2,0.7-0.6,0.8-1c0.3-0.9,0.5-1.9,0.4-2.8
			c0.1-0.8-0.1-1.5-0.4-2.2C80.9,202.1,80.3,201.8,79.8,201.9z"/>
		<path d="M85.5,202.4c0.5-0.8,1.3-1.5,2.2-2c0.8-0.4,1.7-0.6,2.6-0.6c0.7,0,1.4,0.1,2,0.3c0.5,0.2,0.8,0.5,0.8,0.8
			c0,0.4-0.1,0.7-0.3,1c-0.1,0.3-0.4,0.5-0.7,0.5c-0.3-0.1-0.7-0.2-1-0.3c-0.3-0.1-0.7-0.2-1-0.3c-0.9,0-1.8,0.3-2.4,1
			c-0.7,0.7-1,1.7-1,2.7c-0.1,0.9,0.1,1.7,0.5,2.5c0.4,0.6,1.1,0.9,1.8,0.8c0.6-0.1,1.2-0.3,1.8-0.6c0.5-0.3,1-0.5,1.6-0.6
			c0.2,0,0.4,0.1,0.5,0.2c0.1,0.1,0.2,0.3,0.2,0.5c-0.1,0.5-0.3,0.9-0.7,1.2c-0.5,0.4-1.1,0.8-1.8,1c-0.6,0.3-1.3,0.4-1.9,0.4
			c-1.2,0-2.3-0.5-3-1.5c-0.8-1.2-1.2-2.7-1.1-4.1C84.6,204.2,84.9,203.2,85.5,202.4z"/>
		<path d="M95.8,195.8c0.3,0,0.6,0.2,0.8,0.4c0.2,0.2,0.3,0.5,0.4,0.8c0,0.3-0.2,0.7-0.4,0.9c-0.2,0.3-0.5,0.4-0.9,0.5
			c-0.3,0-0.6-0.1-0.8-0.4c-0.3-0.3-0.4-0.6-0.4-1C94.5,196.2,94.9,195.8,95.8,195.8L95.8,195.8z M96.8,208.3v1.7
			c0,0.3-0.1,0.6-0.4,0.8c-0.2,0.2-0.5,0.3-0.8,0.3c-0.3,0-0.6-0.2-0.6-0.5c0,0,0-0.1,0-0.1c-0.2-5.1-0.3-7.9-0.3-8.4s0-1.2,0.1-2
			c0-0.3,0.2-0.4,0.6-0.4c0.8,0,1.3,0.3,1.4,1c0,0.3,0.1,0.6,0.1,0.8l-0.1,1.6V208.3z"/>
		<path d="M103.8,199.7c1.2,0,2.2,0.6,2.8,1.6c0.8,1.2,1.2,2.6,1.1,4c0,1.4-0.4,2.8-1.1,3.9c-1.1,1.7-3.3,2.1-5,1
			c-0.4-0.3-0.8-0.6-1-1c-0.8-1.1-1.2-2.4-1.2-3.7c-0.1-1.5,0.3-2.9,1.1-4.2C101.3,200.4,102.5,199.7,103.8,199.7z M103.5,201.7
			c-0.7,0-1.3,0.4-1.7,1.1c-0.4,0.7-0.6,1.4-0.6,2.2c-0.1,1,0.2,1.9,0.7,2.8c0.3,0.6,0.9,1,1.6,1c0.9,0.1,1.8-0.5,2.1-1.4
			c0.1-0.5,0.2-1.1,0.2-1.7C105.8,203,105.1,201.7,103.5,201.7z M103.7,195c0.1-0.3,0.3-0.4,0.6-0.4c0.3,0,0.5,0.1,0.7,0.3
			c0.1,0.1,0.2,0.3,0.3,0.5c0,0.1,0,0.2,0,0.3c-0.3,0.7-0.7,1.4-1.3,2c-0.6,0.6-1.1,0.9-1.4,0.9c-0.3,0-0.5-0.1-0.7-0.2
			c-0.2-0.1-0.2-0.3-0.2-0.6c0-0.3,0.2-0.5,0.4-0.6C102.8,196.7,103.4,195.9,103.7,195L103.7,195z"/>
		<path d="M110.1,210.1l-0.3-9.7c0-0.3,0.1-0.5,0.3-0.7c0.2-0.2,0.4-0.3,0.6-0.3c0.4-0.1,0.8,0.2,0.9,0.6c0.1,0.4,0.1,0.9,0.1,1.3
			c0.7-1.1,1.9-1.7,3.2-1.7c2,0,3,2.2,3,6.8v1.9c0,0.6,0,1.2-0.2,1.8c-0.1,0.5-0.5,0.8-1,0.7c-0.4,0-0.6-0.2-0.6-0.8v-1.3
			c0-1.3,0-2.5-0.2-3.8c-0.1-0.7-0.2-1.2-0.3-1.6c-0.3-0.9-0.7-1.3-1.3-1.3c-0.7-0.1-1.3,0.3-1.7,0.9c-0.4,0.7-0.6,1.4-0.6,2.2
			c-0.1,1.5-0.2,3.1-0.2,4.7c0,0.3-0.1,0.6-0.4,0.8c-0.2,0.2-0.5,0.3-0.9,0.3C110.3,210.9,110.1,210.6,110.1,210.1z"/>
		<path d="M132.2,199.7c0.7,0,1.1,0.6,1.1,1.8v0.4l-0.1,1.7c0,0.5,0,1,0,1.6l0.4,5.4c0,0.4-0.4,0.6-1.2,0.6h-0.4
			c-0.2,0-0.3-0.1-0.4-0.2c-0.1-0.2-0.1-0.4,0-0.5c0-0.2,0-0.5-0.1-0.7c-0.8,0.8-1.8,1.2-2.9,1.2c-2.2,0-3.4-1.7-3.4-5.2
			c-0.1-1.5,0.3-3.1,1.1-4.4c0.7-1,1.9-1.5,3.1-1.5c0.7,0,1.3,0.1,1.9,0.3C131.5,199.9,131.8,199.7,132.2,199.7z M129.7,201.9
			c-0.7-0.1-1.5,0.2-2,0.8c-0.5,0.9-0.8,1.9-0.7,2.9c0,2.4,0.6,3.5,1.9,3.5c0.4,0,0.8-0.2,1.1-0.5c0.4-0.2,0.7-0.6,0.9-1
			c0.3-0.9,0.5-1.9,0.4-2.8c0.1-0.8-0.1-1.5-0.4-2.2C130.7,202.1,130.2,201.8,129.7,201.9L129.7,201.9z"/>
		<path d="M134.8,195.4c0-0.4,0.1-0.8,0.3-1.2c0.2-0.2,0.5-0.3,0.7-0.3c0.7,0,1,0.3,1,0.8s0,1.6-0.1,3.4s-0.1,3.4-0.1,4.9
			c0,1.2,0,2.3,0.2,3.5c0.2,1.5,0.5,2.3,0.8,2.3s0.6-0.2,0.8-0.7c0.1-0.2,0.2-0.4,0.4-0.5c0.2-0.2,0.4-0.2,0.7-0.2
			c0.6,0,0.8,0.5,0.8,1.4c0,0.6-0.3,1.2-0.8,1.5c-0.4,0.4-1,0.7-1.6,0.8c-0.4,0-0.9-0.1-1.3-0.3c-0.3-0.2-0.6-0.5-0.8-0.8
			c-0.2-0.3-0.3-0.7-0.5-1.1c-0.1-0.4-0.2-0.8-0.2-1.2c-0.1-0.8-0.2-2.1-0.2-3.8s-0.1-3.4-0.1-5S134.8,196,134.8,195.4z"/>
		<path d="M61.9,220.6c0.3,0,0.5,0.1,0.7,0.3c0.2,0.2,0.3,0.5,0.3,0.8c0,6.2,0,10,0.1,11.3c0,1.3,0.1,2,0.1,2c0,0.4-0.1,0.7-0.3,1
			c-0.2,0.3-0.4,0.5-0.6,0.5c-0.2,0-0.3,0-0.5,0l-0.3-0.1c-0.1,0-0.2-0.1-0.3-0.2l-0.2-0.2c-0.1-0.1-0.2-0.2-0.2-0.4l-0.2-0.4
			c-0.1-0.1-0.2-0.3-0.3-0.6s-0.4-0.9-0.9-1.7l-1.2-2.3c-1-1.9-2.2-3.8-3.5-5.5c0.1,3.6-0.1,7.2-0.4,10.8c0,0.4-0.3,0.6-0.9,0.6
			c-0.2,0-0.4-0.1-0.6-0.2c-0.2-0.2-0.3-0.4-0.2-0.6c0-0.3,0.1-1.9,0.2-4.7s0.2-4.6,0.2-5.4v-1.3c0-1.1,0.1-1.8,0.3-1.9
			c0.2-0.1,0.3-0.2,0.5-0.2c0.9,0,2.2,1.4,4,4.3c0.3,0.6,1,1.7,2,3.5s1.6,2.9,1.8,3.3l-0.3-9.9c0-1.3,0.2-2.1,0.5-2.3
			C61.4,220.7,61.7,220.6,61.9,220.6z"/>
		<path d="M66.4,221.4c0.3,0,0.6,0.2,0.8,0.4c0.2,0.2,0.4,0.5,0.4,0.9c0,0.3-0.2,0.7-0.4,0.9c-0.2,0.3-0.5,0.4-0.9,0.4
			c-0.3,0-0.6-0.1-0.8-0.4c-0.3-0.3-0.4-0.6-0.4-1C65.1,221.8,65.5,221.4,66.4,221.4L66.4,221.4z M67.4,233.9v1.7
			c0,0.3-0.1,0.6-0.4,0.8c-0.2,0.2-0.5,0.3-0.8,0.3c-0.3,0-0.6-0.2-0.6-0.5c0,0,0-0.1,0-0.1c-0.2-5.1-0.3-7.9-0.3-8.4
			c0-0.6,0-1.2,0.1-2c0-0.3,0.2-0.4,0.6-0.4c0.8,0,1.3,0.4,1.4,1c0,0.3,0.1,0.6,0.1,0.8l-0.1,1.5L67.4,233.9z"/>
		<path d="M71,235.7l-0.3-9.7c0-0.3,0.1-0.5,0.3-0.7c0.2-0.2,0.4-0.3,0.6-0.3c0.5,0,0.8,0.2,0.9,0.6c0.1,0.4,0.1,0.9,0.1,1.3
			c0.7-1.1,1.9-1.7,3.2-1.7c2,0,3,2.3,3,6.8v1.9c0,0.6,0,1.2-0.1,1.8c-0.1,0.5-0.5,0.8-1,0.7c-0.4,0-0.6-0.3-0.6-0.8v-1.3
			c0-1.3,0-2.5-0.2-3.8c-0.1-0.7-0.2-1.2-0.3-1.6c-0.3-0.9-0.7-1.3-1.3-1.3c-0.7-0.1-1.3,0.3-1.7,0.9c-0.4,0.7-0.6,1.4-0.6,2.2
			c-0.1,1.5-0.2,3-0.2,4.7c0,0.3-0.1,0.6-0.4,0.8c-0.2,0.2-0.5,0.3-0.9,0.3C71.2,236.5,71,236.2,71,235.7z M71.4,223
			c0.1-0.4,0.3-0.8,0.7-1c0.4-0.3,0.8-0.5,1.3-0.6c0.3,0,0.7,0.1,1,0.2c0.2,0.1,0.4,0.2,0.6,0.4c0.3,0.4,0.5,0.6,0.7,0.6
			s0.4-0.2,0.7-0.6s0.5-0.6,0.7-0.6c0.2,0,0.4,0.1,0.6,0.3c0.1,0.2,0.2,0.4,0.2,0.6c0,0.5-0.2,1-0.7,1.3c-0.4,0.3-0.9,0.4-1.4,0.4
			c-0.4,0-0.7-0.1-1-0.3c-0.2-0.2-0.4-0.4-0.6-0.6c-0.1-0.2-0.4-0.3-0.6-0.3c-0.1,0-0.3,0.2-0.6,0.5c-0.3,0.4-0.6,0.5-0.8,0.5
			c-0.2,0-0.4-0.1-0.6-0.3C71.5,223.6,71.4,223.3,71.4,223z"/>
		<path d="M85.1,225.3c1.2,0,2.3,0.6,2.9,1.7c0.8,1.2,1.1,2.6,1.1,3.9c0,1.4-0.3,2.7-1.1,3.9c-1.1,1.7-3.3,2.1-5,1
			c-0.4-0.3-0.8-0.6-1-1c-0.8-1.1-1.2-2.4-1.1-3.7c-0.1-1.5,0.3-2.9,1-4.1C82.6,225.9,83.8,225.3,85.1,225.3z M84.9,227.3
			c-0.7,0-1.3,0.4-1.7,1.1c-0.4,0.7-0.6,1.4-0.6,2.2c-0.1,1,0.2,1.9,0.7,2.8c0.3,0.6,0.9,1,1.6,1c1,0.1,1.9-0.6,2.1-1.5
			c0.1-0.5,0.2-1.1,0.2-1.7C87.2,228.6,86.4,227.3,84.9,227.3L84.9,227.3z"/>
		<path d="M100.8,221.3c0-0.2,0.1-0.3,0.4-0.5c0.2-0.2,0.5-0.2,0.8-0.3c0.2,0,0.4,0,0.6,0.2c0.1,0.1,0.2,0.2,0.2,0.4
			c0.3,4.3,0.5,7,0.5,8.1s0,2,0,2.6c0,0.6-0.1,1.2-0.2,1.9c-0.1,0.5-0.3,1.1-0.6,1.6c-0.5,0.9-1.5,1.4-2.5,1.3
			c-1.1,0-2.1-0.4-2.8-1.2c-0.8-0.9-1.2-2.1-1.1-3.3c0-0.3,0.2-0.5,0.4-0.6c0.2-0.2,0.5-0.3,0.8-0.3c0.3,0,0.6,0.3,0.6,1
			c0.2,1.8,0.9,2.8,2.1,2.8c0.3,0,0.6-0.1,0.8-0.3c0.2-0.2,0.4-0.4,0.5-0.7c0.1-0.4,0.2-0.7,0.3-1.1c0.1-0.8,0.1-1.6,0.1-2.4
			c0-0.9-0.1-2.6-0.3-5.1S100.8,221.4,100.8,221.3z"/>
		<path d="M108.3,225.4c0.9,0,1.7,0.3,2.4,0.7c0.7,0.4,1.1,1.1,1.2,1.8c0,0.8-0.4,1.5-0.9,2.1c-0.7,0.7-1.5,1.1-2.5,1.2
			c-0.7,0.1-1.3,0.1-2,0.1c0,1,0.4,1.9,1,2.7c0.2,0.2,0.4,0.3,0.6,0.3c0.9,0,1.8-0.3,2.5-0.9c0.7-0.6,1.2-0.9,1.4-0.9
			c0.1,0,0.3,0.1,0.6,0.4c0.2,0.2,0.3,0.4,0.4,0.7c0,0.4-0.5,1-1.5,1.8c-0.5,0.4-1,0.7-1.6,0.9c-0.6,0.2-1.1,0.4-1.8,0.4
			c-1.4,0-2.4-0.9-3.1-2.7c-0.4-1.2-0.6-2.4-0.6-3.6c0-1.2,0.3-2.4,0.9-3.4C106,225.8,107.1,225.3,108.3,225.4z M108.4,227
			c-0.7,0-1.2,0.4-1.6,1c-0.2,0.5-0.4,1.1-0.5,1.6c2.2,0,3.3-0.6,3.3-1.6C109.8,227.4,109.3,227,108.4,227L108.4,227z"/>
		<path d="M115.8,226.1c0.7-0.5,1.5-0.8,2.3-0.8c0.9,0,1.7,0.2,2.5,0.5c0.8,0.3,1.2,0.7,1.2,1.3c0,0.3-0.1,0.5-0.3,0.6
			c-0.2,0.1-0.3,0.2-0.5,0.2h-0.4c-0.3-0.1-0.7-0.3-1-0.4c-0.5-0.3-1-0.4-1.5-0.4c-0.4,0-0.8,0.1-1.2,0.4c-0.3,0.2-0.5,0.6-0.5,1
			c0,0.4,0.2,0.8,0.6,1.1c0.6,0.3,1.3,0.6,2,0.7c0.8,0.1,1.5,0.4,2.2,0.8c0.6,0.4,0.8,1.2,0.8,1.9c0.1,1-0.3,2.1-1,2.8
			c-0.7,0.6-1.6,0.9-2.5,0.8c-0.9,0-1.7-0.1-2.5-0.4c-0.7-0.3-1-0.7-1-1.2c-0.1-0.4,0.2-0.9,0.7-0.9c0.1,0,0.2,0,0.2,0
			c0.3,0.1,0.7,0.2,1,0.3c0.5,0.2,1.1,0.3,1.6,0.3c0.5,0,0.9-0.2,1.2-0.5c0.3-0.3,0.4-0.7,0.4-1.2c0-0.4-0.2-0.8-0.6-1
			c-0.5-0.2-1.1-0.4-1.7-0.5c-0.6-0.1-1.1-0.2-1.7-0.4c-1-0.4-1.6-1.5-1.4-2.6C114.7,227.5,115.1,226.6,115.8,226.1z"/>
		<path d="M123.9,225.5c0.2-0.2,0.4-0.3,0.6-0.3c0.2,0,0.3,0,0.5,0.1c0.1,0,0.2,0.1,0.2,0.2c0,0.1,0.1,0.2,0.1,0.3
			c-0.1,1.2-0.2,2.4-0.2,3.4c0,1.1,0.1,2.3,0.4,3.4c0.2,1.3,0.5,1.9,0.8,1.9c0.6-0.1,1.2-0.3,1.6-0.7c0.6-0.4,1.1-0.9,1.4-1.5
			c-0.2-2.3-0.3-4.3-0.3-5.9c0-0.3,0.1-0.6,0.3-0.9c0.2-0.2,0.5-0.4,0.8-0.4c0.5,0,0.7,0.3,0.7,1c0,1.1,0.1,2.8,0.2,5
			c0.1,1.4,0.2,2.8,0.5,4.2c0,0.1,0.1,0.3,0.1,0.4c0,0.2-0.1,0.3-0.3,0.5c-0.2,0.2-0.5,0.2-0.8,0.2c-0.3,0-0.6-0.2-0.7-0.6
			c-0.1-0.5-0.1-1-0.2-1.4c-0.8,1-2.1,1.7-3.4,1.7c-0.5,0-1-0.2-1.4-0.6c-0.5-0.5-0.8-1-1-1.6c-0.4-1.2-0.6-2.5-0.6-3.7
			c0-1.2,0.1-2.6,0.2-4.3C123.6,225.9,123.7,225.7,123.9,225.5z M127.4,220.7c0.1-0.3,0.3-0.4,0.6-0.4c0.3,0,0.5,0.1,0.7,0.3
			c0.1,0.1,0.2,0.3,0.3,0.5c0,0.1,0,0.2-0.1,0.3c-0.3,0.7-0.7,1.4-1.3,2c-0.6,0.7-1.1,1-1.4,1c-0.3,0-0.5-0.1-0.7-0.2
			c-0.2-0.1-0.2-0.3-0.2-0.6c0-0.3,0.2-0.5,0.4-0.6C126.5,222.3,127.1,221.6,127.4,220.7z"/>
		<path d="M134.5,226.1c0.7-0.5,1.5-0.8,2.3-0.8c0.9,0,1.7,0.2,2.5,0.5c0.8,0.3,1.2,0.7,1.2,1.3c0,0.3-0.1,0.5-0.3,0.6
			c-0.2,0.1-0.3,0.2-0.5,0.2h-0.4c-0.4-0.1-0.7-0.3-1-0.4c-0.5-0.3-1-0.4-1.5-0.4c-0.4,0-0.8,0.1-1.2,0.4c-0.3,0.2-0.5,0.6-0.5,1
			c0,0.4,0.2,0.8,0.6,1.1c0.6,0.3,1.3,0.6,2,0.7c0.8,0.1,1.5,0.4,2.2,0.8c0.6,0.4,0.8,1.2,0.8,1.9c0.1,1-0.3,2.1-1,2.8
			c-0.7,0.6-1.6,0.9-2.5,0.8c-0.9,0-1.7-0.1-2.5-0.4c-0.7-0.3-1-0.7-1-1.2c-0.1-0.4,0.2-0.9,0.7-0.9c0.1,0,0.2,0,0.2,0
			c0.4,0.1,0.7,0.2,1.1,0.3c0.5,0.2,1.1,0.3,1.6,0.3c0.5,0,0.9-0.2,1.2-0.5c0.3-0.3,0.4-0.7,0.4-1.2c0-0.4-0.2-0.8-0.6-1
			c-0.5-0.2-1.1-0.4-1.7-0.5c-0.6-0.1-1.1-0.2-1.6-0.4c-1-0.4-1.6-1.5-1.4-2.6C133.5,227.5,133.9,226.6,134.5,226.1z"/>
	</g>
</g>
</svg>
