<?xml version="1.0" encoding="utf-8"?>
<!-- Generator: Adobe Illustrator 26.3.1, SVG Export Plug-In . SVG Version: 6.00 Build 0)  -->
<svg version="1.1" id="Capa_1" xmlns="http://www.w3.org/2000/svg" xmlns:xlink="http://www.w3.org/1999/xlink" x="0px" y="0px"
	 viewBox="0 0 192.1 192.1" style="enable-background:new 0 0 192.1 192.1;" xml:space="preserve">
<style type="text/css">
	.st0{fill:#00B5FF;}
	.st1{fill:#FFFFFF;}
	.st2{fill:#040302;}
	.st3{fill:#FDB156;}
	.st4{fill:#FDCC70;}
	.st5{fill:#040303;}
	.st6{fill:#FAAF55;}
	.st7{fill:#FDDCCE;}
	.st8{fill:#ACD6FD;}
	.st9{fill:#87C3FB;}
	.st10{fill:#FCC9BC;}
	.st11{fill:#ABD5FC;}
	.st12{fill:#FBC8BB;}
	.st13{fill:#FB8D9C;}
	.st14{fill:#F6C4B7;}
	.st15{fill:#040403;}
</style>
<g id="Capa_2_00000146478062313938712420000012668351660056788619_">
	<g id="Capa_1-2">
		<path class="st0" d="M18,3.5h156c8,0,14.5,6.5,14.5,14.5v156c0,8-6.5,14.5-14.5,14.5H18c-8,0-14.5-6.5-14.5-14.5V18
			C3.5,10,10,3.5,18,3.5z"/>
		<path class="st1" d="M174,7c6.1,0,11,4.9,11,11v156c0,6.1-4.9,11-11,11H18c-6.1,0-11-4.9-11-11V18c0-6.1,4.9-11,11-11H174 M174,0
			H18C8.1,0,0,8.1,0,18v156c0,9.9,8.1,18,18,18h156c9.9,0,18-8.1,18-18V18C192,8.1,183.9,0,174,0z"/>
		<path class="st1" d="M63.2,55.2c-0.2,0.8-0.4,1.5-0.7,2.3c-1.3,4.4-4,8.3-7.7,11C49.9,72,44,73.9,38,73.9
			c-4.5,0.1-8.8-1.3-12.5-3.8c-0.6-0.4-1.2-0.9-1.7-1.5c-3.3-3.3-5-7.8-4.9-12.4c0-6,2-11.8,6.1-17.3s9-9.1,14.8-10.7
			c0.6-0.2,1.3-0.3,2-0.4c1.3,0,2.7,0.3,3.9,0.8c1.7,0.6,2.6,1.5,2.6,2.5c-0.2,1.3-0.7,2.5-1.6,3.4c-6.9,1.9-11.5,3.7-14,5.4
			c-4.2,2.9-6.5,7.1-6.7,12.7l1.7-0.2l5.3-3.6c2.5-1.7,5.2-3,8.1-3.8c2.8-1,5.8-1.6,8.8-1.7c6.2,0,10.6,2.8,13.2,8.5
			C63.1,53.8,63.2,55,63.2,55.2z M54.8,55.8c-2-2.1-4.7-3.1-8.1-3.1c-3.8,0.1-7.5,1.1-10.7,3c-3.9,2.2-6.4,4.8-7.6,7.9
			c2.8,2.2,6.7,3.3,11.7,3.3c3.4,0.1,6.8-0.7,9.8-2.3c3.3-1.8,5-4.5,5-8L54.8,55.8z"/>
		<path class="st2" d="M48.8,118.8c0.4-1.4,0.7-2.9,0.9-4.4c0.6-3,1.5-5.6,4.3-7.2c0.4-0.2,0.3-0.4,0.2-0.8c-0.5-3,0.7-5.5,2.3-7.8
			c0.5-0.8,1.6-0.9,2.4-0.4c0.7,0.5,0.9,1.5,0.4,2.3c0,0,0,0,0,0.1c-0.3,0.6-0.7,1.3-1,1.9c-0.8,1.3-0.9,3-0.3,4.4
			c0.7,1.5,0.3,2.3-1.2,2.8c-1.4,0.4-2.6,1.5-3,2.9c-1.3,4.3-1.7,8.7-1.2,13.2c0.1,1.4,0.9,2.7,2.1,3.4c1.6,0.9,1.8,1.7,0.7,3.2
			c-0.8,1.1-1.1,2.5-0.7,3.8c0.8,2.6,2,5.1,3.7,7.3c1.5,2,3.9,3.2,6.3,3.1c1.6,0,2.2,0.6,2.2,2.2c0,2.5,1.2,4.9,3.2,6.4
			c1.9,1.4,4,2.5,6.2,3.3c1.7,0.8,3.7,0.6,5.2-0.5c0.7-0.6,1.7-0.6,2.3,0c0.2,0.2,0.3,0.3,0.4,0.5c1.1,2.1,2.9,2.7,5.1,2.7
			c3.8,0.2,7.5-0.2,11.2-1.2c1.6-0.4,2.9-1.6,3.4-3.2c0.5-1.4,1.3-1.8,2.7-1.2c1.4,0.6,3,0.6,4.3-0.1c1.2-0.6,2.3-1.3,3.3-2.2
			c2-1.6,3.7-3.4,5.6-5.1c1.3-1.1,2-2.8,1.9-4.6c-0.2-0.9,0.4-1.8,1.3-1.9c0.2,0,0.5,0,0.7,0c1.5,0.2,3-0.4,4-1.5
			c4.7-4.7,9.3-9.3,14-14c0.3-0.3,0.6-0.7,0.9-1.1c0.6-0.7,0.8-1.7,0.7-2.6c-0.1-1.8,0.4-2.4,2.3-2.4c1.4,0.1,2.8-0.5,3.8-1.5
			c0.8-0.9,1.7-1.7,2.5-2.5c1.9-1.9,3.6-4,5-6.2c0.9-1.4,1-3.1,0.4-4.6c-0.7-1.6-0.4-2.3,1.3-2.9c1.4-0.4,2.5-1.5,2.9-2.9
			c1.3-4.3,1.8-8.9,1.2-13.4c-0.1-1.4-0.9-2.6-2.1-3.2c-1.6-0.9-1.7-1.7-0.7-3.2c0.8-1.1,1.1-2.6,0.7-3.9c-0.8-2.6-2-5.1-3.7-7.3
			c-1.5-2-3.8-3.1-6.3-3.1c-1.7,0-2.2-0.6-2.3-2.3c0-1.5-0.4-2.9-1.2-4.1c-0.4-0.9-1-1.6-1.8-2.2c-2.2-1.6-4.6-2.8-7.1-3.6
			c-1.5-0.5-3.1-0.2-4.3,0.7c-0.7,0.6-1.7,0.6-2.4,0c-0.2-0.2-0.3-0.4-0.4-0.6c-0.9-1.7-2.7-2.7-4.6-2.7c-3.8-0.1-7.5,0.3-11.2,1.1
			c-1.8,0.3-3.4,1.7-3.9,3.5c-0.1,0.9-1,1.5-1.9,1.4c-0.2,0-0.5-0.1-0.7-0.3c-1.4-0.7-3.1-0.6-4.5,0.2c-1.1,0.6-2.2,1.3-3.1,2.1
			c-2,1.6-3.7,3.4-5.6,5.2c-1.3,1.1-2.1,2.8-1.9,4.6c0.2,0.9-0.4,1.8-1.3,2c-0.2,0.1-0.5,0.1-0.7,0c-1.4-0.2-2.9,0.3-3.8,1.4
			c-4.9,4.7-9.6,9.5-14.4,14.3c-1,1-1.5,2.5-1.3,3.9c0.2,0.9-0.3,1.8-1.2,2c-0.2,0-0.4,0.1-0.6,0c-1.9-0.2-3.7,0.6-4.8,2.1
			c-0.4,0.5-0.9,0.9-1.4,1.4c-0.6,0.9-1.7,1.1-2.6,0.5c0,0-0.1-0.1-0.1-0.1c-0.8-1.3-0.8-1.8,0.3-2.8c1.2-1.4,2.6-2.6,4.1-3.6
			c0.9-0.5,2.1-0.4,2.8-1s0.5-1.9,1-2.7c0.6-0.9,1.2-1.7,2-2.5c4.3-4.3,8.6-8.7,13-13c1.6-1.5,3.2-3,5.5-3.3c0.4,0,0.4-0.4,0.5-0.7
			c0.4-1.9,1.4-3.7,2.9-4.9c2-2,4-3.9,6.2-5.7c2.7-2,5.4-3.8,9-3c0.2,0.1,0.5,0,0.6-0.3c1.6-2.8,4.3-3.8,7.3-4.3
			c1.5-0.2,3-0.5,4.5-0.9h7.1c1.9,0.6,3.7,1.2,5.1,2.8c0.2,0.3,0.5,0.2,0.7,0.1c2.6-1.1,5.2-0.6,7.7,0.5c1.9,0.8,3.7,1.8,5.4,3
			c2.6,1.7,4.3,4.3,4.8,7.4c0.1,0.6,0.6,1.1,1.2,1.2c2.7,0.4,5.1,1.9,6.7,4.1c2,2.6,3.5,5.5,4.4,8.6c0.5,1.7,0.4,3.5-0.2,5.1
			c-0.2,0.4-0.2,0.7,0.2,1.1c1.7,1.6,2.6,3.7,2.6,6c0.2,4.3-0.3,8.7-1.4,12.9c-0.5,2-1.7,3.6-3.4,4.7c-0.4,0.2-0.7,0.7-0.6,1.2
			c0.3,2-0.1,4-1.1,5.7c-1.3,2.2-2.8,4.2-4.6,6c-1.1,1.2-2.3,2.3-3.4,3.4c-1.2,1.3-2.7,2.2-4.4,2.5c-0.5,0-0.9,0.4-0.9,0.9
			c-0.2,1.2-0.8,2.4-1.6,3.3c-1.3,1.6-2.7,3-4.2,4.4c-3.4,3.4-6.8,6.8-10.3,10.2c-1.3,1.5-3.1,2.5-5,2.8c-0.5,0.1-0.5,0.4-0.6,0.7
			c-0.4,1.8-1.3,3.5-2.8,4.8c-2.3,2.4-4.7,4.5-7.3,6.6c-2.4,1.7-4.9,3-8,2.3c-0.2-0.1-0.4-0.1-0.6,0.2c-1.7,3-4.6,3.9-7.7,4.4
			c-3.8,0.8-7.6,1-11.4,0.6c-1.8-0.2-3.5-1-4.7-2.4c-0.3-0.4-0.8-0.5-1.3-0.2c-1.8,0.7-3.8,0.7-5.6,0c-2.7-0.9-5.2-2.2-7.5-3.8
			c-2.4-1.7-4.1-4.3-4.6-7.3c-0.1-0.5-0.2-0.9-0.8-1c-3.8-0.6-6.4-2.8-8.3-5.9c-1.2-2-2.2-4.1-3-6.3c-0.7-1.8-0.7-3.7,0-5.5
			c0.3-0.5,0.2-1.1-0.3-1.4c-1.1-1-1.8-2.3-2.2-3.7c-0.1-0.3,0-0.6-0.3-0.8L48.8,118.8z"/>
		<path class="st3" d="M61.2,95.7c0.8,0.7,2,0.5,2.6-0.3c0,0,0.1-0.1,0.1-0.1c0.4-0.5,1-0.9,1.4-1.4c1.1-1.5,3-2.3,4.8-2.1
			c0.9,0.1,1.7-0.5,1.8-1.4c0-0.2,0-0.4,0-0.6c-0.2-1.5,0.3-2.9,1.4-3.9c4.7-4.8,9.5-9.7,14.4-14.3c1-1,2.4-1.5,3.8-1.4
			c0.9,0.2,1.8-0.4,2-1.3c0.1-0.2,0.1-0.5,0-0.7c-0.1-1.7,0.6-3.4,1.9-4.6c1.9-1.7,3.6-3.5,5.6-5.2c1-0.8,2-1.5,3.1-2.1
			c1.4-0.8,3.1-0.8,4.5-0.2c0.8,0.5,1.8,0.3,2.3-0.5c0.1-0.2,0.2-0.4,0.3-0.7c0.6-1.8,2.1-3.1,3.9-3.5c3.6-0.9,7.4-1.3,11.2-1.1
			c1.9,0,3.7,1,4.6,2.7c0.3,0.9,1.3,1.3,2.1,1c0.2-0.1,0.5-0.2,0.6-0.4c1.2-0.9,2.9-1.2,4.3-0.7c2.6,0.8,5,2,7.1,3.6
			c0.8,0.5,1.4,1.3,1.8,2.2c-0.3,0-0.5,0-0.8,0c-4.1,0.9-8,2.5-11.6,4.7c-2.4-1.7-5.1-2.9-8-3.7c-4.9-1.1-7.7,1.7-6.7,6.6
			c0,0.1,0,0.1,0.1,0.2c0.3,0.8,0.1,1-0.8,1c-4-0.1-8,0.8-11.6,2.6c-0.4,0.3-1,0.3-1.4-0.1c-3.6-2.5-8.5-1.7-11,1.9
			c-1.9,2.7-1.9,6.3,0,9c0.4,0.4,0.4,1,0.2,1.4C92.9,87.4,92.1,93,93,98.4c0.1,0.7-0.1,0.9-0.7,1c-4.1,0.5-7.4,2.5-10.3,5.3
			c-3.6,3.4-7.2,6.8-10.4,10.5c-5.3,6-6.3,12.8-3.3,20.2c2.2,5.5,6.6,8.8,12.1,10.6c-0.4,0.2-0.2,0.5-0.1,0.8c0.4,1,0.7,1.9,1.1,2.9
			c1.9,4.3,4.6,8.2,7.8,11.5c-2.2,0-4-0.6-5.1-2.7c-0.3-0.8-1.3-1.3-2.2-0.9c-0.2,0.1-0.4,0.2-0.5,0.4c-1.5,1.1-3.5,1.3-5.2,0.5
			c-2.2-0.8-4.3-1.9-6.2-3.3c-2-1.5-3.2-3.9-3.2-6.4c0-1.6-0.6-2.2-2.2-2.2c-2.5,0.1-4.9-1.1-6.3-3.1c-1.7-2.2-2.9-4.7-3.7-7.3
			c-0.4-1.3-0.1-2.7,0.7-3.8c1-1.6,0.9-2.3-0.7-3.2c-1.2-0.7-2-2-2.1-3.4c-0.5-4.4-0.1-8.9,1.2-13.2c0.4-1.4,1.6-2.5,3-2.9
			c1.5-0.6,1.9-1.4,1.2-2.8c-0.6-1.4-0.5-3.1,0.3-4.4c0.3-0.6,0.7-1.3,1-1.9c0.5-0.7,0.4-1.8-0.3-2.3c0,0,0,0-0.1,0
			C59.5,97.3,60.3,96.5,61.2,95.7z"/>
		<path class="st4" d="M134.8,63.6c3.6-2.2,7.5-3.8,11.6-4.7c0.3,0,0.5,0,0.8,0c0.8,1.2,1.2,2.6,1.2,4.1c0,1.7,0.6,2.3,2.3,2.3
			c2.5,0,4.8,1.1,6.3,3.1c1.7,2.2,2.9,4.7,3.7,7.3c0.4,1.3,0.2,2.8-0.7,3.9c-1,1.5-0.8,2.3,0.7,3.2c1.2,0.7,2,1.9,2.1,3.2
			c0.6,4.5,0.1,9.1-1.2,13.4c-0.4,1.4-1.5,2.5-2.9,2.9c-1.6,0.6-2,1.3-1.3,2.9c0.6,1.5,0.5,3.2-0.4,4.6c-1.4,2.3-3.1,4.4-5,6.2
			c-0.8,0.9-1.7,1.7-2.5,2.5c-1,1.1-2.4,1.6-3.8,1.5c-1.8,0-2.4,0.6-2.3,2.4c0.1,0.9-0.2,1.8-0.7,2.6c-0.3,0.4-0.5,0.7-0.9,1.1
			c-4.7,4.7-9.3,9.3-14,14c-1,1.1-2.5,1.7-4,1.5c-0.9-0.2-1.8,0.3-2,1.2c-0.1,0.2-0.1,0.5,0,0.7c0.1,1.7-0.6,3.4-1.9,4.6
			c-1.8,1.7-3.6,3.5-5.6,5.1c-1,0.9-2.1,1.6-3.3,2.2c-1.3,0.7-2.9,0.7-4.3,0.1c-1.3-0.6-2.2-0.2-2.7,1.2c-0.5,1.6-1.8,2.9-3.5,3.3
			c-3.7,1-7.5,1.4-11.2,1.3c-3.3-3.4-5.9-7.3-7.8-11.5c-0.4-0.9-0.8-1.9-1.1-2.9c-0.1-0.3-0.3-0.6,0.1-0.8l0.8,0.2
			c6.2,1.5,11.9,0.3,16.7-3.9c4.1-3.7,8-7.5,11.7-11.7c2.5-2.6,4-5.9,4.5-9.5c0.1-0.7,0.4-0.8,1.1-0.7c5.3,0.9,10.7,0.1,15.5-2.2
			c0.6-0.3,1.3-0.3,1.8,0.1c3.6,2.4,8.5,1.5,10.9-2.1c1.7-2.5,1.8-5.8,0.2-8.4c-0.7-0.8-0.7-1.9-0.1-2.7c0.1-0.1,0.1-0.3,0.2-0.4
			c1.5-3.6,2.3-7.4,2.1-11.3c1,0.2,1.9,0.4,2.7,0.5c1.9,0.4,3.9-0.5,4.9-2.2c0.9-2,0.9-4.3-0.1-6.2c-0.3-0.8-1.2-1.3-2-1.1
			c-0.1,0-0.1,0-0.2,0.1c-0.9,0.3-1.4,1.3-1,2.2c0,0,0,0,0,0c0.2,0.7,0.4,1.4,0.4,2.1c0,1.3-0.4,1.7-1.7,1.5c-1-0.1-1.9-0.4-2.9-0.8
			c-0.5-0.1-0.8-0.6-0.9-1.1c-0.6-2.8-1.6-5.4-3.1-7.9c-3.2-5.4-8.2-9.5-14.1-11.7c0.7-1.6,2.1-2.4,3.5-3.2c2.8,1.7,5.4,3.7,7.8,6
			c2.9,2.7,5.5,5.7,7.7,8.9c0.4,0.9,1.5,1.2,2.3,0.8c0.9-0.4,1.2-1.5,0.8-2.3c-0.1-0.1-0.2-0.3-0.2-0.4c-0.3-0.5-0.6-1-1-1.4
			C144.9,72.2,140.2,67.5,134.8,63.6z"/>
		<path class="st5" d="M134.8,63.6c5.4,3.9,10.2,8.6,14.2,13.9c0.3,0.5,0.7,0.9,1,1.4c0.6,0.7,0.6,1.8-0.2,2.4s-1.8,0.6-2.4-0.2
			c-0.1-0.1-0.2-0.2-0.2-0.4c-2.2-3.2-4.8-6.2-7.7-8.9c-2.4-2.3-5-4.3-7.8-6c-1.9-1.4-4.1-2.4-6.4-2.8c-0.7-0.1-1.4-0.1-1.7,0.6
			c-0.5,1.4,0.2,2.6,0.6,3.9c0.2,0.8,1,0.7,1.5,0.8c0.8,0.3,1.7,0.5,2.5,0.7c5.9,2.1,10.9,6.3,14.1,11.7c1.5,2.4,2.5,5.1,3.1,7.9
			c0.1,0.5,0.4,0.9,0.9,1.1c0.9,0.4,1.9,0.6,2.9,0.8c1.3,0.1,1.7-0.3,1.7-1.5c-0.1-0.7-0.2-1.4-0.4-2.1c-0.4-0.9,0.1-1.9,1-2.3
			c0,0,0,0,0,0c0.8-0.3,1.8,0,2.1,0.8c0,0.1,0,0.1,0.1,0.2c1,1.9,1.1,4.2,0.1,6.2c-1,1.7-3,2.6-4.9,2.2c-0.9-0.1-1.8-0.3-2.7-0.5
			c0.1,3.9-0.6,7.8-2.1,11.3c0,0.1-0.1,0.3-0.2,0.4c-0.6,0.8-0.6,2,0.1,2.7c2.2,3.7,1,8.5-2.7,10.7c-2.6,1.6-5.9,1.5-8.4-0.2
			c-0.5-0.4-1.3-0.5-1.8-0.1c-4.8,2.3-10.2,3.1-15.5,2.2c-0.7-0.1-1,0-1.1,0.7c-0.5,3.5-2.1,6.9-4.5,9.5c-3.7,4.1-7.6,8-11.7,11.7
			c-4.8,4.2-10.5,5.4-16.7,3.9l-0.8-0.2c-5.5-1.9-9.8-5.2-12.1-10.6c-3-7.4-2-14.2,3.3-20.2c3.3-3.7,6.8-7.2,10.4-10.5
			c3-2.7,6.2-4.8,10.3-5.3c0.6-0.1,0.8-0.3,0.7-1C92.2,93,93,87.5,95.5,82.6c0.3-0.5,0.2-1-0.2-1.4c-2.5-3.6-1.6-8.5,2-11
			c2.7-1.9,6.3-1.9,9,0c0.4,0.3,1,0.4,1.4,0.1c3.6-1.8,7.6-2.7,11.6-2.6c0.9,0,1.1-0.2,0.8-1c0-0.1,0-0.1-0.1-0.2
			c-1-4.9,1.8-7.7,6.7-6.6C129.6,60.6,132.3,61.9,134.8,63.6z M97.6,86.6c-0.8,1.9-1.2,3.9-1.2,6c-0.3,2.7-0.1,5.4,0.8,8
			c2.6,9.2,11.5,16.4,20.7,16.7c1.1,0.2,2.1,0.2,3.2,0c2.1-0.1,4.1-0.5,6-1.2c0.2,0,0.3-0.1,0.4-0.1c11.6-4.4,17.7-17,13.9-28.8
			C138,77,127.9,70.2,118,71.2C109.6,71.1,99.9,78.3,97.6,86.6L97.6,86.6z M86.1,143.3c1.7,0,3.3-0.3,4.9-0.9c0.9-0.3,1-0.6,0.4-1.4
			c-8.3-11.1-8.5-26.2-0.6-37.5c0,0,0-0.1,0-0.2c-2.4,0.6-4.5,1.8-6.2,3.6c-3.3,3.2-6.4,6.4-9.7,9.6c-2.6,2.6-4.3,5.9-4.7,9.6
			C69.1,135.1,77,143.8,86.1,143.3z M88.8,118.5c-0.2,0.5-0.2,1-0.2,1.6c-0.4,6.9,1.7,13.8,5.9,19.3c0.5,0.7,0.8,0.7,1.4,0.2
			c3.9-3.9,8-7.6,11.6-11.8c1.8-2.1,3-4.6,3.4-7.4c0.1-0.5,0.3-1-0.5-1.3c-4.9-1.8-9.2-5-12.3-9.2c-1.3-1.8-2.4-3.8-3.3-5.8
			c-0.5,0.7-1,1.3-1.3,1.9C90.8,109.8,89.2,114.1,88.8,118.5z M103.8,72.7c-1.8-0.9-4-0.5-5.3,1C97.2,75,97,77,97.9,78.6
			C99.5,76.4,101.5,74.4,103.8,72.7L103.8,72.7z M140.9,109.8c-1.6,2.3-3.6,4.3-5.9,5.9c1.6,0.9,3.7,0.7,5-0.6
			C141.4,113.7,141.7,111.5,140.9,109.8L140.9,109.8z"/>
		<path class="st6" d="M128.1,69.1c-0.8-0.2-1.7-0.4-2.5-0.7c-0.5-0.2-1.2,0-1.5-0.8c-0.4-1.3-1.1-2.5-0.6-3.9
			c0.2-0.8,1-0.7,1.7-0.6c2.3,0.5,4.5,1.4,6.4,2.8C130.2,66.7,128.7,67.5,128.1,69.1z"/>
		<path class="st7" d="M118,71.2c9.9-1,20,5.8,23.3,15.8c3.8,11.8-2.3,24.4-13.9,28.8c-0.1,0-0.3,0.1-0.4,0.1
			c0.3-0.8,0.3-1.7,0.2-2.6c-0.2-0.8-0.5-1.6-0.9-2.4l0.8,0.1c1.3,0,2-0.6,2.1-1.6s-0.6-1.7-1.9-1.8c-1.8-0.2-2.5-0.9-2.6-2.7
			c-0.1-1.2-0.7-1.8-1.8-1.8s-1.6,0.7-1.7,1.8c0,1.4,0.4,2.8,1.2,4c-0.7,0-1.3,0-2,0.2c-2.2,0.9-2.9,3.5-1.6,5.7
			c0.6,0.9,1.4,1.7,2.2,2.4c-1.1,0.2-2.1,0.2-3.2,0c-0.2-0.4-0.5-0.4-0.8-0.6c-3.3-1.5-6.3-3.8-8.6-6.7c-3.5-4.2-5.5-9.4-5.6-14.9
			c1.4-0.8,2.1-2.4,1.9-4c1.1,0.8,2.5,1.2,3.8,1.2c1.2-0.1,1.9-0.6,1.9-1.7s-0.6-1.7-1.8-1.8c-1.8-0.1-2.5-0.8-2.7-2.6
			c0-0.7-0.4-1.4-1.1-1.8c0.9-3.2,3-5.7,5.2-7.9C112.4,74.3,115.1,72.5,118,71.2z M112.9,98.2c-1.5,0.1-2.6,1.2-2.7,2.7
			c0,1.4,1.1,2.4,2.5,2.4c1.4-0.1,2.6-1.2,2.7-2.6C115.3,99.4,114.2,98.3,112.9,98.2L112.9,98.2L112.9,98.2z"/>
		<path class="st8" d="M97.9,110c3.1,4.2,7.4,7.4,12.3,9.2c0.8,0.3,0.6,0.8,0.5,1.3c-0.4,2.7-1.5,5.3-3.4,7.4
			c-3.6,4.2-7.7,7.9-11.6,11.8c-0.6,0.6-0.9,0.5-1.4-0.2c-4.2-5.5-6.3-12.4-5.9-19.3c0-0.5,0.1-1.1,0.2-1.6l7.4-7.3
			C96.7,110.7,97.3,110.3,97.9,110z"/>
		<path class="st9" d="M86.1,143.3c-9.1,0.5-17-8.1-15.8-17.1c0.4-3.6,2.1-7,4.7-9.6c3.2-3.2,6.4-6.4,9.7-9.6c1.6-1.8,3.8-3,6.1-3.6
			c0,0.1,0.1,0.2,0,0.2c-4,5.8-6,12.7-5.8,19.8c-0.9,0.9-1.5,2-1.8,3.2C81.2,132.3,82.3,138.6,86.1,143.3z"/>
		<path class="st10" d="M102.8,95.1c0,5.5,2,10.7,5.6,14.9c2.3,2.9,5.2,5.1,8.6,6.7c0.3,0.2,0.7,0.2,0.8,0.6
			c-9.2-0.2-18.1-7.4-20.7-16.7c-0.8-2.6-1.1-5.3-0.8-8C98,94.7,100,96,102.8,95.1z"/>
		<path class="st11" d="M86.1,143.3c-3.7-4.7-4.8-11-2.8-16.7c0.3-1.2,0.9-2.3,1.8-3.2c0.3,6.4,2.5,12.6,6.3,17.7
			c0.6,0.8,0.5,1.1-0.4,1.4C89.4,143,87.7,143.3,86.1,143.3z"/>
		<path class="st12" d="M118,71.2c-2.9,1.3-5.6,3.1-7.9,5.4c-2.2,2.3-4.3,4.7-5.2,7.9c-1.7-0.2-2.3,0.3-2.4,1.8c0,0.3,0,0.7,0,1
			c-0.4,0-0.7-0.1-1-0.3c-1.2-0.7-2.7-0.8-4-0.4C99.9,78.3,109.6,71.1,118,71.2z"/>
		<path class="st13" d="M126.2,111c0.3,0.8,0.6,1.6,0.9,2.4c0.2,0.8,0.1,1.7-0.2,2.6c-1.9,0.8-3.9,1.2-6,1.2
			c-0.8-0.7-1.6-1.5-2.2-2.4c-1.3-2.2-0.6-4.8,1.6-5.7c0.7-0.2,1.3-0.2,2-0.2C123.4,110,124.7,110.7,126.2,111z"/>
		<path class="st13" d="M97.6,86.6c1.3-0.4,2.8-0.3,4,0.4c0.3,0.2,0.6,0.3,1,0.3c0.3,1.5,1,2.8,2.2,3.8c0.3,1.6-0.5,3.2-1.9,4
			c-2.9,0.9-4.9-0.5-6.5-2.6C96.4,90.5,96.8,88.5,97.6,86.6z"/>
		<path class="st9" d="M97.9,110c-0.7,0.3-1.3,0.7-1.7,1.2l-7.4,7.3c0.4-4.5,2-8.7,4.5-12.4c0.4-0.6,0.8-1.2,1.3-1.9
			C95.6,106.2,96.7,108.2,97.9,110z"/>
		<path class="st14" d="M103.8,72.7c-2.3,1.6-4.2,3.6-5.9,5.9c-0.9-1.6-0.7-3.6,0.6-4.9C99.8,72.2,102,71.8,103.8,72.7z"/>
		<path class="st14" d="M140.8,109.8c0.9,1.8,0.5,3.9-0.9,5.3c-1.3,1.3-3.4,1.6-5,0.6C137.2,114,139.2,112,140.8,109.8z"/>
		<path class="st15" d="M126.2,111c-1.5-0.3-2.8-1-3.8-2.2c-0.8-1.2-1.3-2.6-1.2-4c0.1-1.1,0.6-1.8,1.7-1.8s1.7,0.6,1.8,1.8
			c0.2,1.8,0.8,2.5,2.6,2.7c1.3,0.1,1.9,0.7,1.9,1.8s-0.8,1.7-2.1,1.6L126.2,111z"/>
		<path class="st15" d="M104.7,91.1c-1.1-1-1.9-2.4-2.2-3.8c0-0.3,0-0.7,0-1c0.1-1.4,0.7-1.9,2.4-1.8c0.6,0.4,1,1,1.1,1.8
			c0.1,1.8,0.9,2.5,2.7,2.6c1.2,0.1,1.8,0.7,1.8,1.8s-0.7,1.6-1.9,1.7C107.2,92.4,105.8,92,104.7,91.1z"/>
		<path class="st15" d="M112.8,98.3c1.4,0,2.4,1.1,2.4,2.5c0,0,0,0,0,0c-0.1,1.4-1.2,2.6-2.7,2.6c-1.4,0-2.5-1.1-2.5-2.4
			C110.2,99.5,111.4,98.3,112.8,98.3z"/>
	</g>
</g>
</svg>
