<?xml version="1.0" encoding="utf-8"?>
<!-- Generator: Adobe Illustrator 26.3.1, SVG Export Plug-In . SVG Version: 6.00 Build 0)  -->
<svg version="1.1" id="Capa_1" xmlns="http://www.w3.org/2000/svg" xmlns:xlink="http://www.w3.org/1999/xlink" x="0px" y="0px"
	 viewBox="0 0 192.7 246.6" style="enable-background:new 0 0 192.7 246.6;" xml:space="preserve">
<style type="text/css">
	.st0{fill:#FFFFFF;}
	.st1{fill:#0072C8;}
	.st2{fill:#010202;}
	.st3{fill:#010101;}
	.st4{fill:#FBD66F;}
	.st5{fill:#68D4F2;}
	.st6{fill:#FEC629;}
	.st7{fill:#68D3F1;}
	.st8{fill:#67D1EE;}
	.st9{fill:#040404;}
	.st10{fill:#B3DC7E;}
	.st11{fill:#B3DB7E;}
	.st12{fill:#B2DA7D;}
</style>
<g id="Capa_2_00000176008544365829050050000004938211947075480975_">
	<g id="Capa_1-2">
		<path class="st0" d="M7.8,165.7h177.3c4.2,0,7.6,3.4,7.6,7.6V239c0,4.2-3.4,7.6-7.6,7.6H7.8c-4.2,0-7.6-3.4-7.6-7.6v-65.7
			C0.2,169.1,3.6,165.7,7.8,165.7z"/>
		<path d="M57.5,220.1c-0.7-1.9-1.3-3.7-2-5.3c-0.7-1.6-1.6-3.6-2.7-6l-0.7-1.6c-0.1-0.2-0.2-0.4-0.2-0.7c0-0.3,0.1-0.6,0.4-0.7
			c0.2-0.2,0.5-0.4,0.8-0.4c0.3,0,0.6,0.2,0.8,0.5l1.2,2.6c1.6,3.7,2.8,6.4,3.4,8.1L59,215c0.3-1.5,0.7-2.9,1.1-4.4
			c1.1-3.9,2.1-5.9,3.2-5.9c0.2,0,0.4,0.1,0.5,0.2c0.1,0.1,0.2,0.3,0.2,0.4c0,0.3-0.1,0.6-0.3,0.8c-0.3,0.6-0.6,1.3-0.8,2
			c-0.3,1-0.5,1.5-0.6,1.7s-0.5,1.5-1.1,4s-1.3,4.5-1.8,5.9c-0.1,0.3-0.2,0.5-0.5,0.6c-0.2,0.2-0.5,0.3-0.8,0.3
			C57.9,220.7,57.7,220.5,57.5,220.1z"/>
		<path d="M66.4,205.4c0.3,0,0.6,0.2,0.8,0.4c0.2,0.2,0.4,0.5,0.4,0.9c0,0.3-0.2,0.7-0.4,0.9c-0.2,0.3-0.5,0.4-0.9,0.5
			c-0.3,0-0.6-0.1-0.8-0.4c-0.3-0.3-0.4-0.6-0.4-1C65.1,205.9,65.5,205.5,66.4,205.4L66.4,205.4z M67.4,217.9v1.7
			c0,0.3-0.1,0.6-0.4,0.8c-0.2,0.2-0.5,0.3-0.8,0.3c-0.3,0-0.6-0.2-0.6-0.5c0,0,0-0.1,0-0.1c-0.2-5.1-0.3-7.9-0.3-8.4
			c0-0.5,0-1.2,0.1-2c0-0.3,0.2-0.4,0.6-0.4c0.8,0,1.3,0.3,1.4,1c0,0.3,0.1,0.6,0.1,0.8l-0.1,1.5L67.4,217.9z"/>
		<path d="M78.8,217c0.6,0,0.8,0.5,0.8,1.4c0,0.6-0.3,1.2-0.8,1.5c-0.5,0.5-1.1,0.7-1.8,0.8c-1,0-1.8-0.6-2.2-1.5
			c-0.2,0.4-0.6,0.8-1,1c-0.4,0.3-0.9,0.4-1.4,0.4c-0.4,0-0.8-0.1-1.2-0.3c-0.3-0.2-0.6-0.5-0.8-0.8c-0.2-0.3-0.3-0.7-0.5-1.1
			c-0.1-0.4-0.2-0.8-0.3-1.2c-0.1-0.8-0.1-2.1-0.2-3.8s-0.1-3.4-0.1-5s0-2.7,0.1-3.3c0-0.4,0.1-0.8,0.3-1.2c0.2-0.2,0.4-0.3,0.7-0.3
			c0.7,0,1,0.3,1,0.8c0,0.4,0,1.6-0.1,3.4s-0.1,3.4-0.1,4.9c0,1.2,0,2.3,0.2,3.5c0.2,1.5,0.5,2.3,0.8,2.3s0.6-0.2,0.8-0.8
			c0.1-0.2,0.2-0.4,0.4-0.5c0.2-0.2,0.4-0.2,0.7-0.2l0,0c-0.1-1.4-0.2-3.6-0.2-6.6c0-3,0-4.8,0.1-5.4c0-0.4,0.1-0.8,0.3-1.2
			c0.2-0.2,0.4-0.3,0.7-0.3c0.7,0,1,0.3,1,0.8c0,0.4,0,1.6-0.1,3.4s-0.1,3.4-0.1,4.9c0,1.2,0,2.3,0.2,3.5c0.2,1.5,0.5,2.3,0.8,2.3
			s0.6-0.2,0.8-0.8c0.1-0.2,0.2-0.4,0.3-0.5C78.2,217,78.5,216.9,78.8,217z"/>
		<path d="M87.1,209.4c0.7,0,1,0.6,1,1.8v0.4v1.7c0,0.5,0,1,0,1.6l0.3,5.4c0,0.4-0.4,0.6-1.2,0.6h-0.3c-0.2,0-0.3-0.1-0.4-0.2
			c-0.1-0.2-0.1-0.4,0-0.5c0-0.2,0-0.5-0.1-0.7c-0.8,0.8-1.8,1.2-2.9,1.2c-2.2,0-3.4-1.7-3.4-5.2c-0.1-1.5,0.3-3,1-4.3
			c0.7-1,1.9-1.5,3.1-1.5c0.7,0,1.3,0.1,1.9,0.3C86.4,209.6,86.8,209.4,87.1,209.4z M84.6,211.5c-0.7-0.1-1.5,0.2-2,0.8
			c-0.5,0.9-0.8,1.9-0.7,2.9c0,2.4,0.6,3.5,1.9,3.5c0.4,0,0.8-0.2,1.1-0.5c0.4-0.3,0.7-0.6,0.8-1c0.3-0.9,0.5-1.9,0.5-2.8
			c0-0.8-0.1-1.5-0.4-2.2C85.7,211.8,85.2,211.5,84.6,211.5L84.6,211.5z"/>
		<path d="M90.7,219.8l-0.3-9.7c0-0.3,0.1-0.5,0.3-0.7c0.2-0.2,0.4-0.3,0.6-0.3c0.4-0.1,0.8,0.2,0.9,0.6c0,0,0,0,0,0
			c0.1,0.4,0.1,0.9,0.1,1.3c0.7-1.1,1.9-1.7,3.2-1.7c2,0,3,2.2,3,6.8v1.9c0,0.6,0,1.2-0.1,1.8c-0.1,0.5-0.5,0.8-1,0.7
			c-0.4,0-0.6-0.2-0.6-0.8v-1.3c0-1.3,0-2.5-0.2-3.8c-0.1-0.7-0.2-1.2-0.3-1.6c-0.3-0.9-0.7-1.3-1.3-1.3c-0.7-0.1-1.3,0.3-1.7,0.9
			c-0.4,0.7-0.6,1.4-0.6,2.2c-0.1,1.5-0.2,3.1-0.2,4.7c0,0.3-0.1,0.6-0.4,0.8c-0.2,0.2-0.5,0.3-0.9,0.3
			C90.9,220.5,90.7,220.3,90.7,219.8z"/>
		<path d="M101.1,212c0.5-0.9,1.3-1.5,2.2-2c0.8-0.4,1.7-0.6,2.6-0.6c0.7,0,1.4,0.1,2,0.3c0.5,0.2,0.8,0.5,0.8,0.8
			c0,0.4-0.1,0.7-0.3,1c-0.1,0.3-0.4,0.5-0.7,0.5c-0.3-0.1-0.6-0.1-0.9-0.3c-0.3-0.1-0.7-0.2-1-0.3c-0.9,0-1.8,0.3-2.4,1
			c-0.7,0.7-1,1.7-1,2.7c-0.1,0.9,0.1,1.7,0.5,2.5c0.4,0.6,1.1,0.9,1.8,0.8c0.6-0.1,1.2-0.3,1.8-0.6c0.5-0.3,1-0.5,1.6-0.6
			c0.2,0,0.4,0.1,0.5,0.2c0.1,0.1,0.2,0.3,0.2,0.5c-0.1,0.5-0.3,0.9-0.7,1.2c-0.5,0.4-1.1,0.8-1.8,1c-0.6,0.3-1.3,0.4-1.9,0.4
			c-1.2,0-2.3-0.5-3-1.5c-0.8-1.2-1.2-2.7-1.1-4.1C100.2,213.8,100.5,212.8,101.1,212z"/>
		<path d="M111.4,205.4c0.3,0,0.6,0.2,0.8,0.4c0.2,0.2,0.4,0.5,0.4,0.9c0,0.3-0.2,0.7-0.4,0.9c-0.2,0.3-0.5,0.4-0.9,0.5
			c-0.3,0-0.6-0.1-0.8-0.4c-0.3-0.3-0.4-0.6-0.4-1C110.1,205.9,110.6,205.5,111.4,205.4L111.4,205.4z M112.4,217.9v1.7
			c0,0.3-0.1,0.6-0.4,0.8c-0.2,0.2-0.5,0.3-0.8,0.3c-0.3,0-0.6-0.2-0.6-0.5c0,0,0-0.1,0-0.1c-0.2-5.1-0.3-7.9-0.3-8.4
			c0-0.5,0-1.2,0.1-2c0-0.3,0.2-0.4,0.6-0.4c0.8,0,1.3,0.3,1.4,1c0,0.3,0.1,0.6,0.1,0.8l-0.1,1.5L112.4,217.9z"/>
		<path d="M115.7,212c0.5-0.9,1.3-1.5,2.2-2c0.8-0.4,1.7-0.6,2.6-0.6c0.7,0,1.4,0.1,2,0.3c0.5,0.2,0.8,0.5,0.8,0.8
			c0,0.4-0.1,0.7-0.3,1c-0.1,0.3-0.4,0.5-0.7,0.5c-0.3-0.1-0.6-0.1-0.9-0.3c-0.3-0.1-0.7-0.2-1-0.3c-0.9,0-1.8,0.3-2.4,1
			c-0.7,0.7-1,1.7-1,2.7c-0.1,0.9,0.1,1.7,0.5,2.5c0.4,0.6,1.1,0.9,1.8,0.8c0.6-0.1,1.2-0.3,1.8-0.6c0.5-0.3,1-0.5,1.6-0.6
			c0.2,0,0.4,0.1,0.5,0.2c0.1,0.1,0.2,0.3,0.2,0.5c-0.1,0.5-0.3,0.9-0.7,1.2c-0.5,0.4-1.1,0.8-1.8,1c-0.6,0.3-1.3,0.4-1.9,0.4
			c-1.2,0-2.3-0.5-3-1.5c-0.8-1.2-1.2-2.7-1.1-4.1C114.8,213.8,115.2,212.8,115.7,212z"/>
		<path d="M128.7,209.4c1.2,0,2.2,0.6,2.8,1.6c0.8,1.2,1.2,2.6,1.1,4c0,1.4-0.4,2.8-1.1,3.9c-1.1,1.7-3.3,2.1-5,1
			c-0.4-0.3-0.8-0.6-1-1c-0.8-1.1-1.2-2.4-1.2-3.7c-0.1-1.5,0.3-2.9,1.1-4.2C126.1,210,127.4,209.4,128.7,209.4z M128.4,211.4
			c-0.7,0-1.3,0.4-1.7,1c-0.4,0.7-0.6,1.4-0.6,2.2c-0.1,1,0.2,1.9,0.7,2.8c0.3,0.6,1,0.9,1.6,0.9c0.9,0.1,1.8-0.5,2.1-1.4
			c0.1-0.5,0.2-1.1,0.2-1.7C130.7,212.7,130,211.4,128.4,211.4L128.4,211.4z"/>
		<path d="M135.5,210.2c0.6-0.5,1.5-0.8,2.3-0.8c0.9,0,1.7,0.2,2.6,0.5c0.8,0.3,1.2,0.7,1.2,1.3c0,0.3-0.1,0.5-0.3,0.6
			c-0.1,0.1-0.3,0.2-0.5,0.2h-0.4c-0.3-0.1-0.7-0.3-1-0.4c-0.5-0.3-1-0.4-1.5-0.4c-0.4,0-0.8,0.1-1.2,0.3c-0.3,0.2-0.5,0.6-0.5,1
			c0,0.4,0.2,0.8,0.6,1c0.6,0.3,1.3,0.6,2,0.7c0.8,0.1,1.5,0.4,2.2,0.8c0.6,0.5,0.8,1.2,0.8,1.9c0.1,1-0.3,2.1-1,2.8
			c-0.7,0.6-1.6,0.8-2.5,0.8c-0.9,0-1.7-0.1-2.5-0.4c-0.7-0.3-1-0.7-1-1.2c-0.1-0.4,0.2-0.9,0.7-0.9c0.1,0,0.2,0,0.2,0
			c0.4,0.1,0.7,0.2,1.1,0.3c0.5,0.2,1.1,0.3,1.6,0.3c0.5,0,0.9-0.2,1.2-0.5c0.3-0.3,0.4-0.8,0.4-1.2c0-0.4-0.2-0.8-0.6-1
			c-0.5-0.3-1.1-0.4-1.7-0.5c-0.6-0.1-1.1-0.2-1.6-0.4c-1-0.4-1.6-1.5-1.4-2.6C134.5,211.5,134.9,210.7,135.5,210.2z"/>
		<path class="st1" d="M18,3.5h156c8,0,14.5,6.5,14.5,14.5v156c0,8-6.5,14.5-14.5,14.5H18c-8,0-14.5-6.5-14.5-14.5V18
			C3.5,10,10,3.5,18,3.5z"/>
		<path class="st0" d="M174,7c6.1,0,11,4.9,11,11v156c0,6.1-4.9,11-11,11H18c-6.1,0-11-4.9-11-11V18c0-6.1,4.9-11,11-11H174 M174,0
			H18C8.1,0,0,8.1,0,18v156c0,9.9,8.1,18,18,18h156c9.9,0,18-8.1,18-18V18C192,8.1,183.9,0,174,0z"/>
		<path class="st0" d="M59.7,34.1c-0.2,1-1.2,2.8-3,5.3c-1.3,1.8-2.5,3.6-3.8,5.4c-3.5,5.4-6.5,11.1-9.2,16.9
			c-1,2.6-2.5,6.3-4.5,11.2c-0.4,0.6-0.9,1.1-1.5,1.5c-0.5,0.4-1.2,0.7-1.8,0.8c-1,0-1.5-0.9-1.5-2.8c0-2.4,1-6.4,2.9-11.9
			c1.4-4.1,3-8,4.7-11.7c0.9-1.5,2-3.8,3.4-7c0.1-0.6,0.3-1.5,0.5-2.7L44,38.7c-2,0.3-4.9,0.7-8.8,1.4l-4.7,1.2
			c-1.6,0.4-3.2,0.6-4.8,0.7c-2.4,0-3.6-0.7-3.6-2.1c0-1.2,1.2-3,3.7-5.5c3.9-1.5,7.9-2.6,12-3.4c4-0.9,8.1-1.5,12.3-1.6
			c2-0.1,3.9,0.2,5.8,0.7C57.9,30.6,59.3,32.2,59.7,34.1z"/>
		<path class="st2" d="M120.8,120v29.4c0,3.7-2.1,5.8-5.8,5.8H64.1c-3.7,0-5.8-2.1-5.8-5.9V79.5c0-5.7,3.6-9.3,9.3-9.3
			c12.5,0,24.9,0,37.4,0c0.6,0,1.2-0.3,1.6-0.8c8.6-10.7,19.7-15.2,33.1-12.3c13.6,3,22.2,11.8,25.4,25.3
			c4.2,18.2-8.7,36.7-27.1,39.4c-5.5,0.8-11.2,0.3-16.4-1.6L121,120C120.9,120,120.8,120,120.8,120z M61.8,85.7v63.5
			c0,2,0.5,2.5,2.5,2.5h50.5c2,0,2.5-0.5,2.5-2.5V96.8c0-5.7-3.6-9.3-9.3-9.3c-13,0-26,0-39,0C66.4,87.5,64,87.4,61.8,85.7
			L61.8,85.7z M162.4,89.2c0-1.6-0.1-3.2-0.4-4.8c-2.7-17.4-21-28.7-37.8-23.3c-0.8,0.3-0.9,0.6-0.6,1.3c1.1,2.6,2.2,5.2,3.2,7.8
			c0.3,0.7,0.6,0.9,1.3,0.7c3-0.8,6.2-0.9,9.2-0.1c10.2,2.4,16.5,12.7,14.1,22.9c0,0.1-0.1,0.3-0.1,0.4c-0.1,0.6-0.1,0.9,0.6,1.2
			c2.7,1.1,5.4,2.2,8.1,3.3c0.7,0.3,0.9,0.1,1-0.5C161.9,95.2,162.4,92.2,162.4,89.2z M132.9,73.6c-7.3,0-13.7,5.1-15.2,12.3
			c-0.2,1.1-0.4,2.1,0.6,2.9c0.3,0.3,0.5,0.7,0.7,1.1c1.4,2.4,2,5.3,1.7,8.1c-0.1,0.6,0.2,1.3,0.7,1.7c3.4,3.8,8.6,5.7,13.7,4.9
			c8.5-1.4,14.3-9.4,12.9-17.9C146.8,79.3,140.5,73.7,132.9,73.6L132.9,73.6z M103.9,73.6H81.8c-4.9,0-9.8,0-14.8,0
			c-2.9,0-5.2,2.4-5.1,5.3s2.4,5.2,5.3,5.1l0,0c9.1,0,18.1,0,27.2,0c1.8,0,3.5,0,5.3,0c0.5,0,0.7-0.1,0.8-0.6
			C101.1,80,102.2,76.7,103.9,73.6L103.9,73.6z M120.8,104c0,4,0,7.8,0,11.6c0,0.5,0.3,0.6,0.6,0.7c6.5,2.8,13.7,3.2,20.4,1
			c0.6-0.2,0.8-0.3,0.5-1c-1.2-2.7-2.3-5.5-3.4-8.3c-0.2-0.5-0.4-0.6-0.9-0.4C132,109.2,125.6,107.9,120.8,104z M124,72.1l-0.2-0.4
			c-1.2-2.8-2.3-5.7-3.5-8.5c-0.2-0.5-0.5-0.5-0.9-0.3c-1.9,1-3.8,2.2-5.5,3.6c-0.5,0.4-0.5,0.7-0.1,1.1c2,1.9,4,3.8,5.8,5.8
			c0.8,0.8,1.3,0.9,2.1,0.1c0.5-0.4,1.1-0.8,1.7-1.1C123.7,72.5,123.9,72.4,124,72.1z M110.9,69.6l-0.3,0.5
			c-1.5,1.8-2.8,3.7-3.8,5.7c-0.3,0.6,0.1,0.7,0.4,0.8c2.8,1.2,5.5,2.3,8.3,3.4c0.4,0.2,0.8,0.2,1-0.3c0.4-0.8,0.9-1.5,1.5-2.2
			c0.3-0.4,0.3-0.6-0.1-1c-2.2-2.2-4.3-4.3-6.5-6.5C111.2,69.9,111,69.8,110.9,69.6L110.9,69.6z M152.5,111.2
			c-2.3-2.3-4.6-4.6-6.9-6.9c-0.3-0.3-0.5-0.4-0.9-0.1c-0.7,0.6-1.5,1.1-2.3,1.6c-0.3,0.1-0.5,0.4-0.4,0.8c0,0.1,0,0.1,0.1,0.2
			c1.2,2.8,2.4,5.6,3.5,8.5c0.2,0.4,0.4,0.5,0.8,0.3C148.6,114.3,150.6,112.9,152.5,111.2L152.5,111.2z M155,108.8
			c1.6-1.8,3-3.8,4.1-6c0.3-0.6,0.2-0.8-0.4-1.1c-2.5-1-4.9-2-7.4-3c-1.5-0.6-1.4-0.6-2.3,0.7c-0.3,0.5-0.7,1-1.1,1.5
			c-0.3,0.4-0.4,0.6,0,1C150.3,104.1,152.6,106.4,155,108.8L155,108.8z M114.2,85.4c0.7-1.8,0.7-1.8-0.9-2.4s-3.4-1.5-5.2-2.1
			c-1-0.4-2.2-1.4-2.9-1s-0.7,2-1,3.1s0.1,1.2,1,1.1C108.2,84,111.3,83.7,114.2,85.4L114.2,85.4z"/>
		<path class="st3" d="M162.4,150.8c0-3.7,0-7.2,0-10.7c0-0.5-0.1-0.6-0.6-0.6c-7.1,0-14.2,0-21.4,0c-0.9,0-0.6,0.5-0.6,0.9
			c0,5.5,0,11,0,16.5c0,3.8-3.1,6.9-6.9,6.9c-0.1,0-0.2,0-0.3,0c-2.8,0-5.2-1.7-6.2-4.3c-1.2-2.5-0.6-5.5,1.4-7.4
			c1.9-2,4.8-2.7,7.3-1.7c0.2,0.1,0.3,0.1,0.5,0.2l0.6,0.3v-16.1c0-3.5,2.1-5.6,5.6-5.6c6.1,0,12.2,0,18.3,0
			c2.9-0.2,5.4,1.9,5.6,4.8c0,0.2,0,0.5,0,0.7c0,7.4,0,14.9,0,22.3c0,3.8-3.2,6.9-7,6.8c-3,0-5.6-2-6.5-4.8
			c-1.2-3.6,0.8-7.5,4.4-8.7c1.5-0.5,3.1-0.5,4.6,0.1C161.7,150.5,162,150.6,162.4,150.8z M151.1,136c3.5,0,7,0,10.5,0
			c0.3,0,0.7,0.3,0.9-0.3c0.5-1.9-0.4-3.1-2.4-3.1h-17.5c-2.2,0-2.6,0.5-2.7,2.7c0,0.7,0.2,0.8,0.8,0.8
			C144.1,136,147.6,136,151.1,136z M136.4,156.8c0-1.9-1.5-3.5-3.4-3.5c-1.9,0-3.5,1.5-3.5,3.4c0,1.9,1.5,3.5,3.4,3.5
			C134.7,160.3,136.3,158.8,136.4,156.8L136.4,156.8z M159,153.3c-1.9,0-3.5,1.5-3.5,3.4c0,1.9,1.5,3.5,3.4,3.5
			c1.9,0,3.4-1.4,3.5-3.3C162.5,155.1,161,153.5,159,153.3C159,153.4,159,153.4,159,153.3L159,153.3z"/>
		<path class="st4" d="M61.8,85.7c2.2,1.7,4.7,1.8,7.1,1.8c13,0,26,0,39,0c5.7,0,9.3,3.6,9.3,9.3v52.4c0,2-0.5,2.5-2.5,2.5H64.3
			c-2,0-2.5-0.5-2.5-2.5C61.8,149.2,61.8,85.7,61.8,85.7z M103.3,113.5c0-0.1-0.1-0.2-0.1-0.3c-4.4-5.8-8.8-11.7-13.1-17.5
			c-0.6-0.8-0.8-0.2-1.1,0.2l-12.7,16.9c-0.2,0.2-0.4,0.4-0.4,0.8h3.6l-8.7,13.9h3.5l-8.6,13.8h47.8l-8.7-13.8h3.5l-8.6-13.8H103.3z
			"/>
		<path class="st5" d="M162.4,89.2c0,3-0.5,6-1.4,8.8c-0.2,0.6-0.4,0.8-1,0.5c-2.7-1.2-5.4-2.3-8.1-3.3c-0.7-0.3-0.7-0.6-0.6-1.2
			c2.7-10.1-3.4-20.5-13.5-23.2c-0.2,0-0.3-0.1-0.5-0.1c-3-0.8-6.2-0.7-9.2,0.1c-0.7,0.2-1.1,0.1-1.3-0.7c-1-2.6-2.1-5.2-3.2-7.8
			c-0.3-0.7-0.3-1,0.6-1.3c16.8-5.4,35.1,5.9,37.8,23.3C162.3,86,162.4,87.6,162.4,89.2z"/>
		<path class="st6" d="M103.9,73.6c-1.6,3.1-2.8,6.4-3.3,9.8c-0.1,0.5-0.4,0.6-0.8,0.6c-1.8,0-3.5,0-5.3,0c-9.1,0-18.1,0-27.2,0
			c-2.9,0-5.2-2.3-5.3-5.1s2.3-5.2,5.1-5.3c4.9,0,9.8,0,14.8,0L103.9,73.6z"/>
		<path class="st5" d="M120.8,104c4.8,3.9,11.2,5.3,17.1,3.6c0.5-0.1,0.7-0.1,0.9,0.4c1.1,2.8,2.3,5.5,3.4,8.3
			c0.3,0.6,0.1,0.8-0.5,1c-6.7,2.2-13.9,1.8-20.4-1c-0.3-0.1-0.6-0.2-0.6-0.7C120.8,111.8,120.8,108,120.8,104z"/>
		<path class="st7" d="M124,72.1c0,0.2-0.2,0.3-0.4,0.4c-0.6,0.3-1.2,0.7-1.7,1.1c-0.8,0.8-1.3,0.7-2.1-0.1c-1.9-2-3.8-3.9-5.8-5.8
			c-0.5-0.5-0.5-0.7,0.1-1.1c1.7-1.4,3.5-2.6,5.4-3.6c0.4-0.2,0.7-0.3,0.9,0.3c1.2,2.8,2.3,5.7,3.5,8.5L124,72.1z"/>
		<path class="st7" d="M110.8,69.6c0.2,0.2,0.3,0.3,0.5,0.4c2.2,2.2,4.3,4.3,6.5,6.5c0.4,0.4,0.4,0.6,0.1,1
			c-0.6,0.7-1.1,1.5-1.5,2.2c-0.3,0.5-0.6,0.5-1,0.3c-2.8-1.2-5.5-2.3-8.3-3.4c-0.4-0.2-0.7-0.2-0.4-0.8c1.1-2.1,2.3-4,3.8-5.7
			L110.8,69.6z"/>
		<path class="st7" d="M152.5,111.2c-1.9,1.7-3.9,3.1-6.2,4.2c-0.4,0.2-0.6,0.1-0.8-0.3c-1.2-2.8-2.3-5.7-3.5-8.5
			c-0.2-0.3-0.1-0.7,0.1-0.8c0,0,0.1-0.1,0.2-0.1c0.8-0.5,1.6-1,2.3-1.6c0.4-0.3,0.6-0.2,0.9,0.1
			C147.8,106.6,150.1,108.9,152.5,111.2z"/>
		<path class="st7" d="M154.9,108.8c-2.3-2.3-4.6-4.6-6.9-6.9c-0.4-0.4-0.3-0.6,0-1c0.4-0.5,0.7-1,1.1-1.5c0.8-1.3,0.8-1.3,2.3-0.7
			c2.4,1,4.9,2.1,7.4,3c0.6,0.2,0.7,0.4,0.4,1.1C157.9,104.9,156.5,106.9,154.9,108.8z"/>
		<path class="st8" d="M114.1,85.4c-2.8-1.6-6-1.4-9-1.3c-0.9,0-1.3-0.1-1-1.1s0.2-2.6,1-3.1s1.9,0.6,2.9,1c1.7,0.7,3.4,1.4,5.2,2.1
			S114.8,83.6,114.1,85.4z"/>
		<path class="st3" d="M103.3,113.5h-3.7l8.6,13.8h-3.5l8.7,13.8H65.7l8.6-13.8h-3.5l8.7-13.9h-3.6c-0.1-0.4,0.2-0.6,0.4-0.8
			L89,95.8c0.3-0.4,0.5-1,1.1-0.2c4.3,5.9,8.7,11.7,13.1,17.5C103.2,113.2,103.3,113.4,103.3,113.5z M107,137.7c0-0.1,0-0.2,0-0.2
			c-2-3.2-4-6.4-6-9.6c-0.3-0.5-0.7-0.5-1.1-0.5c-6.9,0-13.9,0-20.8,0c-0.5,0-0.9,0.2-1.1,0.6c-1.9,3-3.8,6.1-5.7,9.1
			c-0.1,0.2-0.4,0.4-0.2,0.6L107,137.7z M102,123.8c-2.1-3.4-4.2-6.7-6.2-10c-0.3-0.4-0.7-0.4-1-0.4c-3.5,0-6.9,0-10.4,0
			c-0.5,0-1,0.2-1.2,0.7c-1.1,1.8-2.2,3.6-3.4,5.4l-2.7,4.3L102,123.8z M96.4,110c-2.2-3-4.4-5.8-6.5-8.7c-0.4-0.6-0.6-0.2-0.9,0.1
			c-1.9,2.6-3.9,5.2-5.8,7.8c-0.2,0.2-0.5,0.4-0.3,0.7H96.4z"/>
		<path class="st9" d="M124.2,89.2c0-4.8,3.9-8.7,8.7-8.7s8.7,3.9,8.7,8.7c0,4.8-3.9,8.7-8.7,8.7C128.1,97.9,124.3,94,124.2,89.2z
			 M132.9,94.4c2.9,0,5.2-2.4,5.2-5.2c0-2.9-2.4-5.2-5.2-5.2c-2.8,0-5.2,2.3-5.2,5.2C127.7,92.1,130.1,94.4,132.9,94.4
			C132.9,94.4,132.9,94.4,132.9,94.4z"/>
		<path class="st10" d="M107,137.7H72.1c-0.2-0.3,0.1-0.4,0.2-0.6c1.9-3,3.8-6,5.7-9.1c0.2-0.4,0.7-0.7,1.2-0.7c6.9,0,13.9,0,20.8,0
			c0.4,0,0.8,0,1.1,0.5c2,3.2,4,6.4,6,9.6C107.1,137.5,107,137.6,107,137.7z"/>
		<path class="st11" d="M102,123.8H77.1l2.7-4.3c1.1-1.8,2.3-3.6,3.4-5.4c0.2-0.5,0.7-0.7,1.2-0.7c3.5,0,6.9,0,10.4,0
			c0.4,0,0.8-0.1,1,0.4C97.8,117.2,99.9,120.4,102,123.8z"/>
		<path class="st12" d="M96.4,110H82.9c-0.1-0.4,0.2-0.5,0.3-0.7c1.9-2.6,3.9-5.2,5.8-7.8c0.3-0.4,0.5-0.7,0.9-0.1
			C92.1,104.1,94.2,107,96.4,110z"/>
	</g>
</g>
</svg>
